<svg version="1.1" xmlns="http://www.w3.org/2000/svg" xmlns:xlink="http://www.w3.org/1999/xlink" width="371" height="264"><defs><clipPath id="HSTyvmUvoCMI"><path fill="none" stroke="none" d=" M 0 0 L 371 0 L 371 264 L 0 264 L 0 0 Z"/></clipPath></defs><g transform="scale(1,1)" clip-path="url(#HSTyvmUvoCMI)"><g><rect fill="rgb(255,255,255)" stroke="none" x="0" y="0" width="371" height="264" fill-opacity="1"/><path fill="none" stroke="rgb(0,0,0)" paint-order="fill stroke markers" d=" M 88.88888888888894 14.138888888889426 C 57.822871710906895 14.138888888889426 32.63888888888907 56.11219359225247 32.63888888888907 107.88888888888921 C 32.63888888888907 159.66558418552597 57.822871710906895 201.638888888889 88.88888888888894 201.638888888889 C 119.954906066871 201.638888888889 145.1388888888888 159.66558418552597 145.1388888888888 107.88888888888921 C 145.1388888888888 56.11219359225247 119.954906066871 14.138888888889426 88.88888888888894 14.138888888889426 Z" stroke-opacity="1" stroke-linecap="round" stroke-linejoin="round" stroke-miterlimit="10" stroke-width="2"/><path fill="none" stroke="rgb(0,0,0)" paint-order="fill stroke markers" d=" M 276.3888888888885 14.138888888889426 C 245.32287171090647 14.138888888889426 220.13888888888863 56.11219359225247 220.13888888888863 107.88888888888921 C 220.13888888888863 159.66558418552597 245.32287171090647 201.638888888889 276.3888888888885 201.638888888889 C 307.4549060668706 201.638888888889 332.6388888888884 159.66558418552597 332.6388888888884 107.88888888888921 C 332.6388888888884 56.11219359225247 307.4549060668706 14.138888888889426 276.3888888888885 14.138888888889426 Z" stroke-opacity="1" stroke-linecap="round" stroke-linejoin="round" stroke-miterlimit="10" stroke-width="2"/><path fill="none" stroke="rgb(0,0,0)" paint-order="fill stroke markers" d=" M 88.88888888888894 57.888888888889326 L 260.3888888888885 57.888888888889326" stroke-opacity="1" stroke-linecap="round" stroke-linejoin="round" stroke-miterlimit="10" stroke-width="2"/><path fill="rgb(0,0,0)" stroke="none" paint-order="stroke fill markers" fill-rule="evenodd" d=" M 276.3888888888885 57.888888888889326 L 260.3888888888885 61.888888888889326 L 260.3888888888885 53.888888888889326 Z" fill-opacity="1"/><path fill="none" stroke="rgb(0,0,0)" paint-order="fill stroke markers" d=" M 88.88888888888894 107.88888888888921 L 260.3888888888885 107.88888888888921" stroke-opacity="1" stroke-linecap="round" stroke-linejoin="round" stroke-miterlimit="10" stroke-width="2"/><path fill="rgb(0,0,0)" stroke="none" paint-order="stroke fill markers" fill-rule="evenodd" d=" M 276.3888888888885 107.88888888888921 L 260.3888888888885 111.88888888888921 L 260.3888888888885 103.88888888888921 Z" fill-opacity="1"/><path fill="none" stroke="rgb(0,0,0)" paint-order="fill stroke markers" d=" M 88.88888888888894 157.88888888888908 L 260.3888888888885 157.88888888888908" stroke-opacity="1" stroke-linecap="round" stroke-linejoin="round" stroke-miterlimit="10" stroke-width="2"/><path fill="rgb(0,0,0)" stroke="none" paint-order="stroke fill markers" fill-rule="evenodd" d=" M 276.3888888888885 157.88888888888908 L 260.3888888888885 161.88888888888908 L 260.3888888888885 153.88888888888908 Z" fill-opacity="1"/><path fill="rgb(0,0,0)" stroke="none" paint-order="stroke fill markers" d=" M 92.88888888888894 57.888888888889326 C 92.88888888888894 60.0980278882125 91.09802788821212 61.888888888889326 88.88888888888894 61.888888888889326 C 86.67974988956577 61.888888888889326 84.88888888888894 60.0980278882125 84.88888888888894 57.888888888889326 C 84.88888888888894 55.67974988956615 86.67974988956577 53.888888888889326 88.88888888888894 53.888888888889326 C 91.09802788821212 53.888888888889326 92.88888888888894 55.67974988956615 92.88888888888894 57.888888888889326 Z" fill-opacity="1"/><path fill="rgb(0,0,0)" stroke="none" paint-order="stroke fill markers" d=" M 92.88888888888894 107.88888888888921 C 92.88888888888894 110.09802788821239 91.09802788821212 111.88888888888921 88.88888888888894 111.88888888888921 C 86.67974988956577 111.88888888888921 84.88888888888894 110.09802788821239 84.88888888888894 107.88888888888921 C 84.88888888888894 105.67974988956604 86.67974988956577 103.88888888888921 88.88888888888894 103.88888888888921 C 91.09802788821212 103.88888888888921 92.88888888888894 105.67974988956604 92.88888888888894 107.88888888888921 Z" fill-opacity="1"/><path fill="rgb(0,0,0)" stroke="none" paint-order="stroke fill markers" d=" M 92.88888888888894 157.88888888888908 C 92.88888888888894 160.09802788821224 91.09802788821212 161.88888888888908 88.88888888888894 161.88888888888908 C 86.67974988956577 161.88888888888908 84.88888888888894 160.09802788821224 84.88888888888894 157.88888888888908 C 84.88888888888894 155.6797498895659 86.67974988956577 153.88888888888908 88.88888888888894 153.88888888888908 C 91.09802788821212 153.88888888888908 92.88888888888894 155.6797498895659 92.88888888888894 157.88888888888908 Z" fill-opacity="1"/><path fill="rgb(0,0,0)" stroke="none" paint-order="stroke fill markers" d=" M 280.3888888888885 57.888888888889326 C 280.3888888888885 60.0980278882125 278.5980278882117 61.888888888889326 276.3888888888885 61.888888888889326 C 274.17974988956536 61.888888888889326 272.3888888888885 60.0980278882125 272.3888888888885 57.888888888889326 C 272.3888888888885 55.67974988956615 274.17974988956536 53.888888888889326 276.3888888888885 53.888888888889326 C 278.5980278882117 53.888888888889326 280.3888888888885 55.67974988956615 280.3888888888885 57.888888888889326 Z" fill-opacity="1"/><path fill="rgb(0,0,0)" stroke="none" paint-order="stroke fill markers" d=" M 280.3888888888885 107.88888888888921 C 280.3888888888885 110.09802788821239 278.5980278882117 111.88888888888921 276.3888888888885 111.88888888888921 C 274.17974988956536 111.88888888888921 272.3888888888885 110.09802788821239 272.3888888888885 107.88888888888921 C 272.3888888888885 105.67974988956604 274.17974988956536 103.88888888888921 276.3888888888885 103.88888888888921 C 278.5980278882117 103.88888888888921 280.3888888888885 105.67974988956604 280.3888888888885 107.88888888888921 Z" fill-opacity="1"/><path fill="rgb(0,0,0)" stroke="none" paint-order="stroke fill markers" d=" M 280.3888888888885 157.88888888888908 C 280.3888888888885 160.09802788821224 278.5980278882117 161.88888888888908 276.3888888888885 161.88888888888908 C 274.17974988956536 161.88888888888908 272.3888888888885 160.09802788821224 272.3888888888885 157.88888888888908 C 272.3888888888885 155.6797498895659 274.17974988956536 153.88888888888908 276.3888888888885 153.88888888888908 C 278.5980278882117 153.88888888888908 280.3888888888885 155.6797498895659 280.3888888888885 157.88888888888908 Z" fill-opacity="1"/><g transform="scale(19,19)"><g transform="translate(4.105263157894737,12.542105263157895)"><path fill="rgb(0,0,0)" stroke="none" paint-order="stroke fill markers" d=" M 0.739 -0.148 Q 0.74 -0.151 0.745 -0.151 Q 0.747 -0.151 0.748 -0.15 Q 0.753 -0.148 0.753 -0.14200000000000002 L 0.753 -0.14 Q 0.751 -0.134 0.749 -0.132 Q 0.678 -0.058 0.591 -0.046 L 0.5650000000000001 -0.004 Q 0.5630000000000001 0 0.558 0 L 0.486 0 Q 0.482 0 0.481 -0.002 Q 0.47700000000000004 -0.004 0.47700000000000004 -0.008 Q 0.47700000000000004 -0.011 0.47900000000000004 -0.013000000000000001 L 0.503 -0.047 Q 0.391 -0.055 0.317 -0.085 Q 0.21 0.008 0.12 0.008 Q 0.081 0.008 0.058 -0.008 Q 0.035 -0.024 0.035 -0.052000000000000005 Q 0.035 -0.078 0.057 -0.11 Q 0.077 -0.139 0.114 -0.139 Q 0.147 -0.139 0.147 -0.105 Q 0.147 -0.091 0.129 -0.0785 Q 0.111 -0.066 0.091 -0.066 Q 0.073 -0.066 0.064 -0.078 Q 0.059000000000000004 -0.068 0.059000000000000004 -0.055 Q 0.059000000000000004 -0.014 0.124 -0.014 Q 0.199 -0.014 0.293 -0.096 Q 0.189 -0.146 0.189 -0.23800000000000002 Q 0.189 -0.308 0.251 -0.396 Q 0.271 -0.424 0.308 -0.4395 Q 0.34500000000000003 -0.455 0.38 -0.455 Q 0.501 -0.455 0.56 -0.386 Q 0.637 -0.457 0.782 -0.5670000000000001 L 0.964 -0.6990000000000001 L 0.974 -0.713 Q 0.978 -0.717 0.981 -0.717 L 0.992 -0.717 Q 0.993 -0.717 0.997 -0.715 Q 1 -0.714 1 -0.708 Q 1 -0.705 0.999 -0.704 L 0.606 -0.07100000000000001 Q 0.678 -0.08600000000000001 0.739 -0.148 M 0.608 -0.196 L 0.921 -0.638 L 0.803 -0.553 Q 0.664 -0.45 0.5740000000000001 -0.367 Q 0.609 -0.312 0.609 -0.227 Q 0.609 -0.20600000000000002 0.608 -0.196 M 0.292 -0.374 Q 0.23700000000000002 -0.296 0.23700000000000002 -0.234 Q 0.23700000000000002 -0.161 0.316 -0.117 Q 0.34600000000000003 -0.147 0.37 -0.18 Q 0.436 -0.274 0.54 -0.368 Q 0.488 -0.433 0.376 -0.433 Q 0.358 -0.433 0.3335 -0.41550000000000004 Q 0.309 -0.398 0.292 -0.374 M 0.394 -0.17 Q 0.371 -0.137 0.339 -0.106 Q 0.40900000000000003 -0.075 0.518 -0.069 L 0.5760000000000001 -0.15 Q 0.582 -0.189 0.582 -0.224 Q 0.582 -0.3 0.553 -0.34900000000000003 Q 0.455 -0.256 0.394 -0.17 Z"/></g></g><g transform="scale(19,19)"><g transform="translate(13.947368421052632,12.542105263157895)"><path fill="rgb(0,0,0)" stroke="none" paint-order="stroke fill markers" d=" M 0.642 -0.708 Q 0.776 -0.708 0.849 -0.666 L 0.901 -0.6990000000000001 Q 0.902 -0.7000000000000001 0.905 -0.7000000000000001 Q 0.912 -0.7000000000000001 0.914 -0.6940000000000001 L 0.916 -0.684 Q 0.916 -0.681 0.912 -0.677 Q 0.891 -0.663 0.875 -0.649 Q 0.881 -0.644 0.891 -0.634 Q 0.928 -0.597 0.928 -0.548 Q 0.928 -0.502 0.892 -0.45 Q 0.853 -0.395 0.789 -0.352 Q 0.8210000000000001 -0.333 0.834 -0.304 Q 0.845 -0.28200000000000003 0.845 -0.256 Q 0.845 -0.201 0.799 -0.135 Q 0.755 -0.074 0.6890000000000001 -0.034 Q 0.62 0.008 0.5630000000000001 0.008 Q 0.5 0.008 0.486 -0.039 Q 0.484 -0.045 0.484 -0.058 Q 0.484 -0.098 0.517 -0.145 Q 0.539 -0.177 0.589 -0.199 Q 0.637 -0.221 0.686 -0.221 Q 0.6940000000000001 -0.221 0.6940000000000001 -0.213 Q 0.6940000000000001 -0.209 0.6930000000000001 -0.20800000000000002 L 0.6890000000000001 -0.202 Q 0.686 -0.199 0.682 -0.199 Q 0.64 -0.199 0.597 -0.181 Q 0.554 -0.161 0.536 -0.135 Q 0.506 -0.093 0.506 -0.061 Q 0.506 -0.055 0.508 -0.047 Q 0.516 -0.014 0.5670000000000001 -0.014 Q 0.608 -0.014 0.659 -0.051000000000000004 Q 0.7010000000000001 -0.082 0.747 -0.145 Q 0.798 -0.216 0.798 -0.27 Q 0.798 -0.28 0.794 -0.294 Q 0.785 -0.321 0.761 -0.334 Q 0.6930000000000001 -0.297 0.64 -0.297 Q 0.611 -0.297 0.594 -0.303 L 0.524 -0.20500000000000002 Q 0.461 -0.116 0.3585 -0.051000000000000004 Q 0.256 0.014 0.171 0.014 Q 0.112 0.014 0.073 -0.0055 Q 0.034 -0.025 0.034 -0.062 Q 0.034 -0.09 0.058 -0.124 Q 0.078 -0.153 0.115 -0.153 Q 0.148 -0.153 0.148 -0.11900000000000001 Q 0.148 -0.105 0.13 -0.0925 Q 0.112 -0.08 0.092 -0.08 Q 0.07200000000000001 -0.08 0.063 -0.095 Q 0.055 -0.077 0.055 -0.066 Q 0.055 -0.037 0.088 -0.0225 Q 0.121 -0.008 0.17500000000000002 -0.008 Q 0.234 -0.008 0.3055 -0.0685 Q 0.377 -0.129 0.438 -0.215 Q 0.511 -0.318 0.552 -0.3725 Q 0.593 -0.427 0.6695 -0.509 Q 0.746 -0.591 0.8220000000000001 -0.647 Q 0.759 -0.686 0.638 -0.686 Q 0.532 -0.686 0.417 -0.628 Q 0.303 -0.5710000000000001 0.243 -0.485 Q 0.189 -0.40900000000000003 0.189 -0.356 Q 0.189 -0.34800000000000003 0.19 -0.34400000000000003 Q 0.197 -0.291 0.264 -0.291 Q 0.304 -0.291 0.35000000000000003 -0.319 Q 0.389 -0.34400000000000003 0.421 -0.39 Q 0.448 -0.429 0.4625 -0.4515 Q 0.47700000000000004 -0.47400000000000003 0.4905 -0.5025000000000001 Q 0.504 -0.531 0.504 -0.551 L 0.504 -0.559 Q 0.504 -0.5640000000000001 0.509 -0.5660000000000001 Q 0.512 -0.5680000000000001 0.518 -0.5700000000000001 Q 0.527 -0.5700000000000001 0.527 -0.562 Q 0.529 -0.544 0.529 -0.535 Q 0.529 -0.458 0.47300000000000003 -0.38 Q 0.44 -0.334 0.378 -0.301 Q 0.316 -0.269 0.26 -0.269 Q 0.22 -0.269 0.195 -0.28700000000000003 Q 0.17 -0.305 0.165 -0.338 Q 0.163 -0.35000000000000003 0.163 -0.357 Q 0.163 -0.417 0.218 -0.495 Q 0.281 -0.583 0.405 -0.646 Q 0.528 -0.708 0.642 -0.708 M 0.684 -0.375 Q 0.723 -0.375 0.753 -0.366 Q 0.798 -0.401 0.839 -0.46 Q 0.876 -0.513 0.876 -0.558 Q 0.876 -0.598 0.849 -0.625 Q 0.772 -0.546 0.644 -0.372 Q 0.665 -0.375 0.684 -0.375 M 0.641 -0.331 Q 0.639 -0.328 0.6365000000000001 -0.3245 Q 0.634 -0.321 0.633 -0.32 Q 0.635 -0.319 0.644 -0.319 Q 0.68 -0.319 0.727 -0.34800000000000003 Q 0.704 -0.353 0.68 -0.353 Q 0.664 -0.353 0.653 -0.34700000000000003 Q 0.649 -0.343 0.641 -0.331 Z"/></g></g></g></g></svg>