<svg version="1.1" xmlns="http://www.w3.org/2000/svg" xmlns:xlink="http://www.w3.org/1999/xlink" width="123" height="150"><defs><clipPath id="vqwpZBzCcWEJ"><path fill="none" stroke="none" d=" M 0 0 L 123 0 L 123 150 L 0 150 L 0 0 Z"/></clipPath></defs><g transform="scale(1,1)" clip-path="url(#vqwpZBzCcWEJ)"><g><rect fill="rgb(255,255,255)" stroke="none" x="0" y="0" width="123" height="150" fill-opacity="1"/><path fill="rgb(0,0,0)" stroke="none" paint-order="stroke fill markers" d=" M 26.500000000000227 22.000000000000004 C 26.500000000000227 24.76142374915397 24.261423749154194 27.000000000000004 21.500000000000227 27.000000000000004 C 18.73857625084626 27.000000000000004 16.500000000000227 24.76142374915397 16.500000000000227 22.000000000000004 C 16.500000000000227 19.238576250846037 18.73857625084626 17.000000000000004 21.500000000000227 17.000000000000004 C 24.261423749154194 17.000000000000004 26.500000000000227 19.238576250846037 26.500000000000227 22.000000000000004 Z" fill-opacity="1"/><path fill="rgb(0,0,0)" stroke="none" paint-order="stroke fill markers" d=" M 48.7222222222224 22.000000000000004 C 48.7222222222224 24.76142374915397 46.48364597137636 27.000000000000004 43.7222222222224 27.000000000000004 C 40.96079847306843 27.000000000000004 38.7222222222224 24.76142374915397 38.7222222222224 22.000000000000004 C 38.7222222222224 19.238576250846037 40.96079847306843 17.000000000000004 43.7222222222224 17.000000000000004 C 46.48364597137636 17.000000000000004 48.7222222222224 19.238576250846037 48.7222222222224 22.000000000000004 Z" fill-opacity="1"/><path fill="rgb(0,0,0)" stroke="none" paint-order="stroke fill markers" d=" M 70.94444444444457 22.000000000000004 C 70.94444444444457 24.76142374915397 68.70586819359853 27.000000000000004 65.94444444444457 27.000000000000004 C 63.1830206952906 27.000000000000004 60.94444444444457 24.76142374915397 60.94444444444457 22.000000000000004 C 60.94444444444457 19.238576250846037 63.1830206952906 17.000000000000004 65.94444444444457 17.000000000000004 C 68.70586819359853 17.000000000000004 70.94444444444457 19.238576250846037 70.94444444444457 22.000000000000004 Z" fill-opacity="1"/><path fill="rgb(0,0,0)" stroke="none" paint-order="stroke fill markers" d=" M 93.16666666666674 22.000000000000004 C 93.16666666666674 24.76142374915397 90.9280904158207 27.000000000000004 88.16666666666674 27.000000000000004 C 85.40524291751278 27.000000000000004 83.16666666666674 24.76142374915397 83.16666666666674 22.000000000000004 C 83.16666666666674 19.238576250846037 85.40524291751278 17.000000000000004 88.16666666666674 17.000000000000004 C 90.9280904158207 17.000000000000004 93.16666666666674 19.238576250846037 93.16666666666674 22.000000000000004 Z" fill-opacity="1"/><path fill="rgb(0,0,0)" stroke="none" paint-order="stroke fill markers" d=" M 115.38888888888891 22.000000000000004 C 115.38888888888891 24.76142374915397 113.15031263804288 27.000000000000004 110.38888888888891 27.000000000000004 C 107.62746513973495 27.000000000000004 105.38888888888891 24.76142374915397 105.38888888888891 22.000000000000004 C 105.38888888888891 19.238576250846037 107.62746513973495 17.000000000000004 110.38888888888891 17.000000000000004 C 113.15031263804288 17.000000000000004 115.38888888888891 19.238576250846037 115.38888888888891 22.000000000000004 Z" fill-opacity="1"/><path fill="rgb(0,0,0)" stroke="none" paint-order="stroke fill markers" d=" M 26.500000000000227 44.222222222222165 C 26.500000000000227 46.983645971376134 24.261423749154194 49.222222222222165 21.500000000000227 49.222222222222165 C 18.73857625084626 49.222222222222165 16.500000000000227 46.983645971376134 16.500000000000227 44.222222222222165 C 16.500000000000227 41.460798473068195 18.73857625084626 39.222222222222165 21.500000000000227 39.222222222222165 C 24.261423749154194 39.222222222222165 26.500000000000227 41.460798473068195 26.500000000000227 44.222222222222165 Z" fill-opacity="1"/><path fill="rgb(0,0,0)" stroke="none" paint-order="stroke fill markers" d=" M 48.7222222222224 44.222222222222165 C 48.7222222222224 46.983645971376134 46.48364597137636 49.222222222222165 43.7222222222224 49.222222222222165 C 40.96079847306843 49.222222222222165 38.7222222222224 46.983645971376134 38.7222222222224 44.222222222222165 C 38.7222222222224 41.460798473068195 40.96079847306843 39.222222222222165 43.7222222222224 39.222222222222165 C 46.48364597137636 39.222222222222165 48.7222222222224 41.460798473068195 48.7222222222224 44.222222222222165 Z" fill-opacity="1"/><path fill="rgb(0,0,0)" stroke="none" paint-order="stroke fill markers" d=" M 70.94444444444457 44.222222222222165 C 70.94444444444457 46.983645971376134 68.70586819359853 49.222222222222165 65.94444444444457 49.222222222222165 C 63.1830206952906 49.222222222222165 60.94444444444457 46.983645971376134 60.94444444444457 44.222222222222165 C 60.94444444444457 41.460798473068195 63.1830206952906 39.222222222222165 65.94444444444457 39.222222222222165 C 68.70586819359853 39.222222222222165 70.94444444444457 41.460798473068195 70.94444444444457 44.222222222222165 Z" fill-opacity="1"/><path fill="rgb(0,0,0)" stroke="none" paint-order="stroke fill markers" d=" M 26.500000000000227 66.44444444444433 C 26.500000000000227 69.20586819359829 24.261423749154194 71.44444444444433 21.500000000000227 71.44444444444433 C 18.73857625084626 71.44444444444433 16.500000000000227 69.20586819359829 16.500000000000227 66.44444444444433 C 16.500000000000227 63.68302069529036 18.73857625084626 61.44444444444433 21.500000000000227 61.44444444444433 C 24.261423749154194 61.44444444444433 26.500000000000227 63.68302069529036 26.500000000000227 66.44444444444433 Z" fill-opacity="1"/><path fill="rgb(0,0,0)" stroke="none" paint-order="stroke fill markers" d=" M 48.7222222222224 66.44444444444433 C 48.7222222222224 69.20586819359829 46.48364597137636 71.44444444444433 43.7222222222224 71.44444444444433 C 40.96079847306843 71.44444444444433 38.7222222222224 69.20586819359829 38.7222222222224 66.44444444444433 C 38.7222222222224 63.68302069529036 40.96079847306843 61.44444444444433 43.7222222222224 61.44444444444433 C 46.48364597137636 61.44444444444433 48.7222222222224 63.68302069529036 48.7222222222224 66.44444444444433 Z" fill-opacity="1"/><path fill="rgb(0,0,0)" stroke="none" paint-order="stroke fill markers" d=" M 70.94444444444457 66.44444444444433 C 70.94444444444457 69.20586819359829 68.70586819359853 71.44444444444433 65.94444444444457 71.44444444444433 C 63.1830206952906 71.44444444444433 60.94444444444457 69.20586819359829 60.94444444444457 66.44444444444433 C 60.94444444444457 63.68302069529036 63.1830206952906 61.44444444444433 65.94444444444457 61.44444444444433 C 68.70586819359853 61.44444444444433 70.94444444444457 63.68302069529036 70.94444444444457 66.44444444444433 Z" fill-opacity="1"/><path fill="rgb(0,0,0)" stroke="none" paint-order="stroke fill markers" d=" M 26.500000000000227 88.66666666666649 C 26.500000000000227 91.42809041582045 24.261423749154194 93.66666666666649 21.500000000000227 93.66666666666649 C 18.73857625084626 93.66666666666649 16.500000000000227 91.42809041582045 16.500000000000227 88.66666666666649 C 16.500000000000227 85.90524291751252 18.73857625084626 83.66666666666649 21.500000000000227 83.66666666666649 C 24.261423749154194 83.66666666666649 26.500000000000227 85.90524291751252 26.500000000000227 88.66666666666649 Z" fill-opacity="1"/><path fill="rgb(0,0,0)" stroke="none" paint-order="stroke fill markers" d=" M 48.7222222222224 88.66666666666649 C 48.7222222222224 91.42809041582045 46.48364597137636 93.66666666666649 43.7222222222224 93.66666666666649 C 40.96079847306843 93.66666666666649 38.7222222222224 91.42809041582045 38.7222222222224 88.66666666666649 C 38.7222222222224 85.90524291751252 40.96079847306843 83.66666666666649 43.7222222222224 83.66666666666649 C 46.48364597137636 83.66666666666649 48.7222222222224 85.90524291751252 48.7222222222224 88.66666666666649 Z" fill-opacity="1"/><path fill="rgb(0,0,0)" stroke="none" paint-order="stroke fill markers" d=" M 26.500000000000227 110.88888888888864 C 26.500000000000227 113.6503126380426 24.261423749154194 115.88888888888864 21.500000000000227 115.88888888888864 C 18.73857625084626 115.88888888888864 16.500000000000227 113.6503126380426 16.500000000000227 110.88888888888864 C 16.500000000000227 108.12746513973468 18.73857625084626 105.88888888888864 21.500000000000227 105.88888888888864 C 24.261423749154194 105.88888888888864 26.500000000000227 108.12746513973468 26.500000000000227 110.88888888888864 Z" fill-opacity="1"/><path fill="rgb(0,0,0)" stroke="none" paint-order="stroke fill markers" d=" M 26.500000000000227 133.1111111111108 C 26.500000000000227 135.87253486026478 24.261423749154194 138.1111111111108 21.500000000000227 138.1111111111108 C 18.73857625084626 138.1111111111108 16.500000000000227 135.87253486026478 16.500000000000227 133.1111111111108 C 16.500000000000227 130.34968736195682 18.73857625084626 128.1111111111108 21.500000000000227 128.1111111111108 C 24.261423749154194 128.1111111111108 26.500000000000227 130.34968736195682 26.500000000000227 133.1111111111108 Z" fill-opacity="1"/></g></g></svg>