<svg version="1.1" xmlns="http://www.w3.org/2000/svg" xmlns:xlink="http://www.w3.org/1999/xlink" width="160" height="198"><defs><clipPath id="QHKMpyJNStLf"><path fill="none" stroke="none" d=" M 0 0 L 160 0 L 160 198 L 0 198 L 0 0 Z"/></clipPath></defs><g transform="scale(1,1)" clip-path="url(#QHKMpyJNStLf)"><g><rect fill="rgb(255,255,255)" stroke="none" x="0" y="0" width="160" height="198" fill-opacity="1"/><path fill="rgb(0,0,0)" stroke="none" paint-order="stroke fill markers" d=" M 26.5000000000002 22.000000000000004 C 26.5000000000002 24.76142374915397 24.261423749154165 27.000000000000004 21.5000000000002 27.000000000000004 C 18.738576250846233 27.000000000000004 16.5000000000002 24.76142374915397 16.5000000000002 22.000000000000004 C 16.5000000000002 19.238576250846037 18.738576250846233 17.000000000000004 21.5000000000002 17.000000000000004 C 24.261423749154165 17.000000000000004 26.5000000000002 19.238576250846037 26.5000000000002 22.000000000000004 Z" fill-opacity="1"/><path fill="rgb(0,0,0)" stroke="none" paint-order="stroke fill markers" d=" M 48.72222222222237 22.000000000000004 C 48.72222222222237 24.76142374915397 46.48364597137633 27.000000000000004 43.72222222222237 27.000000000000004 C 40.9607984730684 27.000000000000004 38.72222222222237 24.76142374915397 38.72222222222237 22.000000000000004 C 38.72222222222237 19.238576250846037 40.9607984730684 17.000000000000004 43.72222222222237 17.000000000000004 C 46.48364597137633 17.000000000000004 48.72222222222237 19.238576250846037 48.72222222222237 22.000000000000004 Z" fill-opacity="1"/><path fill="rgb(0,0,0)" stroke="none" paint-order="stroke fill markers" d=" M 70.94444444444454 22.000000000000004 C 70.94444444444454 24.76142374915397 68.7058681935985 27.000000000000004 65.94444444444454 27.000000000000004 C 63.18302069529057 27.000000000000004 60.94444444444454 24.76142374915397 60.94444444444454 22.000000000000004 C 60.94444444444454 19.238576250846037 63.18302069529057 17.000000000000004 65.94444444444454 17.000000000000004 C 68.7058681935985 17.000000000000004 70.94444444444454 19.238576250846037 70.94444444444454 22.000000000000004 Z" fill-opacity="1"/><path fill="rgb(0,0,0)" stroke="none" paint-order="stroke fill markers" d=" M 93.1666666666667 22.000000000000004 C 93.1666666666667 24.76142374915397 90.92809041582066 27.000000000000004 88.1666666666667 27.000000000000004 C 85.40524291751274 27.000000000000004 83.1666666666667 24.76142374915397 83.1666666666667 22.000000000000004 C 83.1666666666667 19.238576250846037 85.40524291751274 17.000000000000004 88.1666666666667 17.000000000000004 C 90.92809041582066 17.000000000000004 93.1666666666667 19.238576250846037 93.1666666666667 22.000000000000004 Z" fill-opacity="1"/><path fill="rgb(0,0,0)" stroke="none" paint-order="stroke fill markers" d=" M 115.38888888888886 22.000000000000004 C 115.38888888888886 24.76142374915397 113.15031263804282 27.000000000000004 110.38888888888886 27.000000000000004 C 107.6274651397349 27.000000000000004 105.38888888888886 24.76142374915397 105.38888888888886 22.000000000000004 C 105.38888888888886 19.238576250846037 107.6274651397349 17.000000000000004 110.38888888888886 17.000000000000004 C 113.15031263804282 17.000000000000004 115.38888888888886 19.238576250846037 115.38888888888886 22.000000000000004 Z" fill-opacity="1"/><path fill="rgb(0,0,0)" stroke="none" paint-order="stroke fill markers" d=" M 26.5000000000002 44.222222222222165 C 26.5000000000002 46.983645971376134 24.261423749154165 49.222222222222165 21.5000000000002 49.222222222222165 C 18.738576250846233 49.222222222222165 16.5000000000002 46.983645971376134 16.5000000000002 44.222222222222165 C 16.5000000000002 41.460798473068195 18.738576250846233 39.222222222222165 21.5000000000002 39.222222222222165 C 24.261423749154165 39.222222222222165 26.5000000000002 41.460798473068195 26.5000000000002 44.222222222222165 Z" fill-opacity="1"/><path fill="rgb(0,0,0)" stroke="none" paint-order="stroke fill markers" d=" M 48.72222222222237 44.222222222222165 C 48.72222222222237 46.983645971376134 46.48364597137633 49.222222222222165 43.72222222222237 49.222222222222165 C 40.9607984730684 49.222222222222165 38.72222222222237 46.983645971376134 38.72222222222237 44.222222222222165 C 38.72222222222237 41.460798473068195 40.9607984730684 39.222222222222165 43.72222222222237 39.222222222222165 C 46.48364597137633 39.222222222222165 48.72222222222237 41.460798473068195 48.72222222222237 44.222222222222165 Z" fill-opacity="1"/><path fill="rgb(0,0,0)" stroke="none" paint-order="stroke fill markers" d=" M 70.94444444444454 44.222222222222165 C 70.94444444444454 46.983645971376134 68.7058681935985 49.222222222222165 65.94444444444454 49.222222222222165 C 63.18302069529057 49.222222222222165 60.94444444444454 46.983645971376134 60.94444444444454 44.222222222222165 C 60.94444444444454 41.460798473068195 63.18302069529057 39.222222222222165 65.94444444444454 39.222222222222165 C 68.7058681935985 39.222222222222165 70.94444444444454 41.460798473068195 70.94444444444454 44.222222222222165 Z" fill-opacity="1"/><path fill="rgb(0,0,0)" stroke="none" paint-order="stroke fill markers" d=" M 26.5000000000002 66.44444444444433 C 26.5000000000002 69.20586819359829 24.261423749154165 71.44444444444433 21.5000000000002 71.44444444444433 C 18.738576250846233 71.44444444444433 16.5000000000002 69.20586819359829 16.5000000000002 66.44444444444433 C 16.5000000000002 63.68302069529036 18.738576250846233 61.44444444444433 21.5000000000002 61.44444444444433 C 24.261423749154165 61.44444444444433 26.5000000000002 63.68302069529036 26.5000000000002 66.44444444444433 Z" fill-opacity="1"/><path fill="rgb(0,0,0)" stroke="none" paint-order="stroke fill markers" d=" M 48.72222222222237 66.44444444444433 C 48.72222222222237 69.20586819359829 46.48364597137633 71.44444444444433 43.72222222222237 71.44444444444433 C 40.9607984730684 71.44444444444433 38.72222222222237 69.20586819359829 38.72222222222237 66.44444444444433 C 38.72222222222237 63.68302069529036 40.9607984730684 61.44444444444433 43.72222222222237 61.44444444444433 C 46.48364597137633 61.44444444444433 48.72222222222237 63.68302069529036 48.72222222222237 66.44444444444433 Z" fill-opacity="1"/><path fill="rgb(0,0,0)" stroke="none" paint-order="stroke fill markers" d=" M 70.94444444444454 66.44444444444433 C 70.94444444444454 69.20586819359829 68.7058681935985 71.44444444444433 65.94444444444454 71.44444444444433 C 63.18302069529057 71.44444444444433 60.94444444444454 69.20586819359829 60.94444444444454 66.44444444444433 C 60.94444444444454 63.68302069529036 63.18302069529057 61.44444444444433 65.94444444444454 61.44444444444433 C 68.7058681935985 61.44444444444433 70.94444444444454 63.68302069529036 70.94444444444454 66.44444444444433 Z" fill-opacity="1"/><path fill="rgb(0,0,0)" stroke="none" paint-order="stroke fill markers" d=" M 26.5000000000002 88.66666666666649 C 26.5000000000002 91.42809041582045 24.261423749154165 93.66666666666649 21.5000000000002 93.66666666666649 C 18.738576250846233 93.66666666666649 16.5000000000002 91.42809041582045 16.5000000000002 88.66666666666649 C 16.5000000000002 85.90524291751252 18.738576250846233 83.66666666666649 21.5000000000002 83.66666666666649 C 24.261423749154165 83.66666666666649 26.5000000000002 85.90524291751252 26.5000000000002 88.66666666666649 Z" fill-opacity="1"/><path fill="rgb(0,0,0)" stroke="none" paint-order="stroke fill markers" d=" M 48.72222222222237 88.66666666666649 C 48.72222222222237 91.42809041582045 46.48364597137633 93.66666666666649 43.72222222222237 93.66666666666649 C 40.9607984730684 93.66666666666649 38.72222222222237 91.42809041582045 38.72222222222237 88.66666666666649 C 38.72222222222237 85.90524291751252 40.9607984730684 83.66666666666649 43.72222222222237 83.66666666666649 C 46.48364597137633 83.66666666666649 48.72222222222237 85.90524291751252 48.72222222222237 88.66666666666649 Z" fill-opacity="1"/><path fill="rgb(0,0,0)" stroke="none" paint-order="stroke fill markers" d=" M 26.5000000000002 110.88888888888864 C 26.5000000000002 113.6503126380426 24.261423749154165 115.88888888888864 21.5000000000002 115.88888888888864 C 18.738576250846233 115.88888888888864 16.5000000000002 113.6503126380426 16.5000000000002 110.88888888888864 C 16.5000000000002 108.12746513973468 18.738576250846233 105.88888888888864 21.5000000000002 105.88888888888864 C 24.261423749154165 105.88888888888864 26.5000000000002 108.12746513973468 26.5000000000002 110.88888888888864 Z" fill-opacity="1"/><path fill="rgb(0,0,0)" stroke="none" paint-order="stroke fill markers" d=" M 26.5000000000002 133.1111111111108 C 26.5000000000002 135.87253486026478 24.261423749154165 138.1111111111108 21.5000000000002 138.1111111111108 C 18.738576250846233 138.1111111111108 16.5000000000002 135.87253486026478 16.5000000000002 133.1111111111108 C 16.5000000000002 130.34968736195682 18.738576250846233 128.1111111111108 21.5000000000002 128.1111111111108 C 24.261423749154165 128.1111111111108 26.5000000000002 130.34968736195682 26.5000000000002 133.1111111111108 Z" fill-opacity="1"/><g transform="scale(19,19)"><g transform="translate(0.42105263157894735,9.06578947368421)"><path fill="rgb(0,0,0)" stroke="none" paint-order="stroke fill markers" d=" M 0.331 0.24 L 0.331 0.24 Q 0.331 0.25 0.321 0.25 Q 0.309 0.25 0.268 0.209 Q 0.20600000000000002 0.147 0.165 0.062 Q 0.099 -0.074 0.099 -0.25 Q 0.099 -0.419 0.162 -0.555 Q 0.214 -0.666 0.294 -0.733 Q 0.315 -0.75 0.321 -0.75 Q 0.331 -0.75 0.331 -0.74 Q 0.331 -0.735 0.318 -0.723 Q 0.157 -0.559 0.157 -0.25 Q 0.157 0.058 0.314 0.218 Q 0.331 0.23500000000000001 0.331 0.24 Z"/></g><g transform="translate(0.8100526315789474,9.06578947368421)"><path fill="rgb(0,0,0)" stroke="none" paint-order="stroke fill markers" d=" M 0.449 -0.201 L 0.449 -0.201 Q 0.449 -0.098 0.372 -0.031 Q 0.31 0.022 0.231 0.022 Q 0.139 0.022 0.085 -0.055 Q 0.05 -0.10400000000000001 0.05 -0.161 Q 0.05 -0.20700000000000002 0.091 -0.213 Q 0.095 -0.214 0.099 -0.214 Q 0.136 -0.214 0.147 -0.181 Q 0.149 -0.17300000000000001 0.149 -0.165 Q 0.149 -0.133 0.121 -0.121 Q 0.111 -0.116 0.099 -0.116 Q 0.088 -0.116 0.082 -0.11800000000000001 Q 0.1 -0.055 0.159 -0.024 Q 0.192 -0.006 0.229 -0.006 Q 0.296 -0.006 0.336 -0.07100000000000001 Q 0.36 -0.113 0.36 -0.20800000000000002 Q 0.36 -0.292 0.342 -0.334 Q 0.314 -0.398 0.257 -0.398 Q 0.176 -0.398 0.128 -0.328 Q 0.122 -0.319 0.115 -0.319 Q 0.10200000000000001 -0.319 0.101 -0.333 L 0.101 -0.34500000000000003 L 0.101 -0.641 Q 0.101 -0.664 0.111 -0.665 Q 0.115 -0.665 0.123 -0.662 Q 0.186 -0.634 0.256 -0.634 Q 0.328 -0.634 0.392 -0.663 Q 0.397 -0.666 0.4 -0.666 Q 0.41000000000000003 -0.666 0.41000000000000003 -0.655 Q 0.41000000000000003 -0.642 0.378 -0.613 Q 0.31 -0.551 0.217 -0.551 Q 0.17500000000000002 -0.551 0.132 -0.5640000000000001 L 0.132 -0.369 Q 0.184 -0.42 0.259 -0.42 Q 0.34700000000000003 -0.42 0.404 -0.343 Q 0.449 -0.28200000000000003 0.449 -0.201 Z"/></g><g transform="translate(1.3100526315789474,9.06578947368421)"><path fill="rgb(0,0,0)" stroke="none" paint-order="stroke fill markers" d=" M 0.203 -0.001 L 0.203 -0.001 Q 0.203 0.096 0.14 0.169 Q 0.123 0.189 0.112 0.193 Q 0.10200000000000001 0.193 0.10200000000000001 0.182 Q 0.10200000000000001 0.177 0.113 0.166 Q 0.17300000000000001 0.106 0.18 0.019 Q 0.181 0.009000000000000001 0.181 -0.001 Q 0.181 -0.016 0.179 -0.016 Q 0.178 -0.016 0.17400000000000002 -0.013000000000000001 Q 0.16 0 0.139 0 Q 0.10200000000000001 0 0.09 -0.034 Q 0.08600000000000001 -0.043000000000000003 0.08600000000000001 -0.053 Q 0.08600000000000001 -0.089 0.117 -0.10200000000000001 Q 0.127 -0.106 0.139 -0.106 Q 0.183 -0.106 0.198 -0.048 Q 0.203 -0.027 0.203 -0.001 Z"/></g><g transform="translate(1.7547192982456141,9.06578947368421)"><path fill="rgb(0,0,0)" stroke="none" paint-order="stroke fill markers" d=" M 0.29 -0.352 L 0.29 -0.352 Q 0.39 -0.332 0.434 -0.254 Q 0.457 -0.215 0.457 -0.171 Q 0.457 -0.08600000000000001 0.387 -0.028 Q 0.326 0.022 0.244 0.022 Q 0.145 0.022 0.085 -0.037 Q 0.042 -0.079 0.042 -0.135 Q 0.042 -0.182 0.084 -0.191 Q 0.091 -0.193 0.098 -0.193 Q 0.136 -0.193 0.149 -0.161 Q 0.153 -0.148 0.154 -0.137 Q 0.154 -0.097 0.11800000000000001 -0.085 Q 0.10400000000000001 -0.08 0.088 -0.082 Q 0.125 -0.02 0.216 -0.008 Q 0.229 -0.006 0.241 -0.006 Q 0.305 -0.006 0.335 -0.069 Q 0.354 -0.109 0.354 -0.171 Q 0.354 -0.304 0.274 -0.331 Q 0.256 -0.337 0.23500000000000001 -0.337 L 0.191 -0.337 Q 0.169 -0.337 0.167 -0.34800000000000003 Q 0.167 -0.358 0.182 -0.36 Q 0.197 -0.36 0.221 -0.363 Q 0.272 -0.365 0.301 -0.402 L 0.301 -0.403 L 0.302 -0.404 L 0.303 -0.405 L 0.304 -0.405 L 0.31 -0.41500000000000004 Q 0.338 -0.462 0.338 -0.529 Q 0.338 -0.622 0.266 -0.638 Q 0.254 -0.641 0.242 -0.641 Q 0.17200000000000001 -0.641 0.128 -0.601 Q 0.117 -0.591 0.109 -0.579 Q 0.171 -0.579 0.171 -0.529 Q 0.171 -0.493 0.14 -0.481 Q 0.131 -0.47800000000000004 0.12 -0.47800000000000004 Q 0.081 -0.47800000000000004 0.07100000000000001 -0.513 L 0.07100000000000001 -0.513 L 0.07100000000000001 -0.514 Q 0.069 -0.522 0.069 -0.53 Q 0.069 -0.597 0.135 -0.637 Q 0.183 -0.666 0.246 -0.666 Q 0.337 -0.666 0.393 -0.612 L 0.395 -0.61 Q 0.43 -0.5740000000000001 0.43 -0.528 Q 0.43 -0.445 0.359 -0.389 Q 0.328 -0.365 0.29 -0.352 Z"/></g><g transform="translate(2.254719298245614,9.06578947368421)"><path fill="rgb(0,0,0)" stroke="none" paint-order="stroke fill markers" d=" M 0.203 -0.001 L 0.203 -0.001 Q 0.203 0.096 0.14 0.169 Q 0.123 0.189 0.112 0.193 Q 0.10200000000000001 0.193 0.10200000000000001 0.182 Q 0.10200000000000001 0.177 0.113 0.166 Q 0.17300000000000001 0.106 0.18 0.019 Q 0.181 0.009000000000000001 0.181 -0.001 Q 0.181 -0.016 0.179 -0.016 Q 0.178 -0.016 0.17400000000000002 -0.013000000000000001 Q 0.16 0 0.139 0 Q 0.10200000000000001 0 0.09 -0.034 Q 0.08600000000000001 -0.043000000000000003 0.08600000000000001 -0.053 Q 0.08600000000000001 -0.089 0.117 -0.10200000000000001 Q 0.127 -0.106 0.139 -0.106 Q 0.183 -0.106 0.198 -0.048 Q 0.203 -0.027 0.203 -0.001 Z"/></g><g transform="translate(2.6993859649122807,9.06578947368421)"><path fill="rgb(0,0,0)" stroke="none" paint-order="stroke fill markers" d=" M 0.29 -0.352 L 0.29 -0.352 Q 0.39 -0.332 0.434 -0.254 Q 0.457 -0.215 0.457 -0.171 Q 0.457 -0.08600000000000001 0.387 -0.028 Q 0.326 0.022 0.244 0.022 Q 0.145 0.022 0.085 -0.037 Q 0.042 -0.079 0.042 -0.135 Q 0.042 -0.182 0.084 -0.191 Q 0.091 -0.193 0.098 -0.193 Q 0.136 -0.193 0.149 -0.161 Q 0.153 -0.148 0.154 -0.137 Q 0.154 -0.097 0.11800000000000001 -0.085 Q 0.10400000000000001 -0.08 0.088 -0.082 Q 0.125 -0.02 0.216 -0.008 Q 0.229 -0.006 0.241 -0.006 Q 0.305 -0.006 0.335 -0.069 Q 0.354 -0.109 0.354 -0.171 Q 0.354 -0.304 0.274 -0.331 Q 0.256 -0.337 0.23500000000000001 -0.337 L 0.191 -0.337 Q 0.169 -0.337 0.167 -0.34800000000000003 Q 0.167 -0.358 0.182 -0.36 Q 0.197 -0.36 0.221 -0.363 Q 0.272 -0.365 0.301 -0.402 L 0.301 -0.403 L 0.302 -0.404 L 0.303 -0.405 L 0.304 -0.405 L 0.31 -0.41500000000000004 Q 0.338 -0.462 0.338 -0.529 Q 0.338 -0.622 0.266 -0.638 Q 0.254 -0.641 0.242 -0.641 Q 0.17200000000000001 -0.641 0.128 -0.601 Q 0.117 -0.591 0.109 -0.579 Q 0.171 -0.579 0.171 -0.529 Q 0.171 -0.493 0.14 -0.481 Q 0.131 -0.47800000000000004 0.12 -0.47800000000000004 Q 0.081 -0.47800000000000004 0.07100000000000001 -0.513 L 0.07100000000000001 -0.513 L 0.07100000000000001 -0.514 Q 0.069 -0.522 0.069 -0.53 Q 0.069 -0.597 0.135 -0.637 Q 0.183 -0.666 0.246 -0.666 Q 0.337 -0.666 0.393 -0.612 L 0.395 -0.61 Q 0.43 -0.5740000000000001 0.43 -0.528 Q 0.43 -0.445 0.359 -0.389 Q 0.328 -0.365 0.29 -0.352 Z"/></g><g transform="translate(3.1993859649122807,9.06578947368421)"><path fill="rgb(0,0,0)" stroke="none" paint-order="stroke fill markers" d=" M 0.203 -0.001 L 0.203 -0.001 Q 0.203 0.096 0.14 0.169 Q 0.123 0.189 0.112 0.193 Q 0.10200000000000001 0.193 0.10200000000000001 0.182 Q 0.10200000000000001 0.177 0.113 0.166 Q 0.17300000000000001 0.106 0.18 0.019 Q 0.181 0.009000000000000001 0.181 -0.001 Q 0.181 -0.016 0.179 -0.016 Q 0.178 -0.016 0.17400000000000002 -0.013000000000000001 Q 0.16 0 0.139 0 Q 0.10200000000000001 0 0.09 -0.034 Q 0.08600000000000001 -0.043000000000000003 0.08600000000000001 -0.053 Q 0.08600000000000001 -0.089 0.117 -0.10200000000000001 Q 0.127 -0.106 0.139 -0.106 Q 0.183 -0.106 0.198 -0.048 Q 0.203 -0.027 0.203 -0.001 Z"/></g><g transform="translate(3.644052631578947,9.06578947368421)"><path fill="rgb(0,0,0)" stroke="none" paint-order="stroke fill markers" d=" M 0.449 -0.17400000000000002 L 0.449 -0.17400000000000002 L 0.421 0 L 0.05 0 Q 0.05 -0.025 0.056 -0.032 L 0.061 -0.037 L 0.253 -0.251 Q 0.358 -0.369 0.358 -0.47200000000000003 Q 0.358 -0.561 0.304 -0.607 L 0.303 -0.608 L 0.302 -0.608 Q 0.27 -0.635 0.224 -0.635 Q 0.152 -0.635 0.109 -0.5730000000000001 Q 0.097 -0.555 0.089 -0.533 Q 0.092 -0.534 0.10200000000000001 -0.534 Q 0.14200000000000002 -0.534 0.153 -0.498 L 0.153 -0.497 Q 0.155 -0.49 0.155 -0.482 Q 0.155 -0.442 0.117 -0.431 Q 0.109 -0.429 0.10300000000000001 -0.429 Q 0.066 -0.429 0.054 -0.46 Q 0.05 -0.47100000000000003 0.05 -0.485 Q 0.05 -0.562 0.109 -0.617 Q 0.162 -0.666 0.23700000000000002 -0.666 Q 0.34700000000000003 -0.666 0.40800000000000003 -0.592 Q 0.443 -0.549 0.448 -0.49 Q 0.449 -0.481 0.449 -0.47200000000000003 Q 0.449 -0.399 0.394 -0.333 Q 0.365 -0.299 0.304 -0.243 L 0.243 -0.189 L 0.233 -0.18 L 0.127 -0.077 L 0.307 -0.077 Q 0.395 -0.077 0.402 -0.085 Q 0.41200000000000003 -0.099 0.424 -0.17400000000000002 L 0.449 -0.17400000000000002 Z"/></g><g transform="translate(4.144052631578948,9.06578947368421)"><path fill="rgb(0,0,0)" stroke="none" paint-order="stroke fill markers" d=" M 0.203 -0.001 L 0.203 -0.001 Q 0.203 0.096 0.14 0.169 Q 0.123 0.189 0.112 0.193 Q 0.10200000000000001 0.193 0.10200000000000001 0.182 Q 0.10200000000000001 0.177 0.113 0.166 Q 0.17300000000000001 0.106 0.18 0.019 Q 0.181 0.009000000000000001 0.181 -0.001 Q 0.181 -0.016 0.179 -0.016 Q 0.178 -0.016 0.17400000000000002 -0.013000000000000001 Q 0.16 0 0.139 0 Q 0.10200000000000001 0 0.09 -0.034 Q 0.08600000000000001 -0.043000000000000003 0.08600000000000001 -0.053 Q 0.08600000000000001 -0.089 0.117 -0.10200000000000001 Q 0.127 -0.106 0.139 -0.106 Q 0.183 -0.106 0.198 -0.048 Q 0.203 -0.027 0.203 -0.001 Z"/></g><g transform="translate(4.588719298245615,9.06578947368421)"><path fill="rgb(0,0,0)" stroke="none" paint-order="stroke fill markers" d=" M 0.294 -0.64 L 0.294 -0.079 Q 0.294 -0.049 0.306 -0.041 Q 0.323 -0.031 0.387 -0.031 L 0.419 -0.031 L 0.419 0 Q 0.384 -0.003 0.257 -0.003 Q 0.13 -0.003 0.095 0 L 0.095 -0.031 L 0.127 -0.031 Q 0.20400000000000001 -0.031 0.215 -0.049 L 0.216 -0.05 Q 0.22 -0.058 0.22 -0.079 L 0.22 -0.597 Q 0.168 -0.5710000000000001 0.089 -0.5710000000000001 L 0.089 -0.602 Q 0.209 -0.602 0.271 -0.666 Q 0.29 -0.666 0.293 -0.659 L 0.293 -0.659 L 0.293 -0.658 Q 0.294 -0.655 0.294 -0.64 Z"/></g><g transform="translate(5.088719298245615,9.06578947368421)"><path fill="rgb(0,0,0)" stroke="none" paint-order="stroke fill markers" d=" M 0.203 -0.001 L 0.203 -0.001 Q 0.203 0.096 0.14 0.169 Q 0.123 0.189 0.112 0.193 Q 0.10200000000000001 0.193 0.10200000000000001 0.182 Q 0.10200000000000001 0.177 0.113 0.166 Q 0.17300000000000001 0.106 0.18 0.019 Q 0.181 0.009000000000000001 0.181 -0.001 Q 0.181 -0.016 0.179 -0.016 Q 0.178 -0.016 0.17400000000000002 -0.013000000000000001 Q 0.16 0 0.139 0 Q 0.10200000000000001 0 0.09 -0.034 Q 0.08600000000000001 -0.043000000000000003 0.08600000000000001 -0.053 Q 0.08600000000000001 -0.089 0.117 -0.10200000000000001 Q 0.127 -0.106 0.139 -0.106 Q 0.183 -0.106 0.198 -0.048 Q 0.203 -0.027 0.203 -0.001 Z"/></g><g transform="translate(5.533385964912282,9.06578947368421)"><path fill="rgb(0,0,0)" stroke="none" paint-order="stroke fill markers" d=" M 0.294 -0.64 L 0.294 -0.079 Q 0.294 -0.049 0.306 -0.041 Q 0.323 -0.031 0.387 -0.031 L 0.419 -0.031 L 0.419 0 Q 0.384 -0.003 0.257 -0.003 Q 0.13 -0.003 0.095 0 L 0.095 -0.031 L 0.127 -0.031 Q 0.20400000000000001 -0.031 0.215 -0.049 L 0.216 -0.05 Q 0.22 -0.058 0.22 -0.079 L 0.22 -0.597 Q 0.168 -0.5710000000000001 0.089 -0.5710000000000001 L 0.089 -0.602 Q 0.209 -0.602 0.271 -0.666 Q 0.29 -0.666 0.293 -0.659 L 0.293 -0.659 L 0.293 -0.658 Q 0.294 -0.655 0.294 -0.64 Z"/></g><g transform="translate(6.033385964912282,9.06578947368421)"><path fill="rgb(0,0,0)" stroke="none" paint-order="stroke fill markers" d=" M 0.289 -0.25 L 0.289 -0.25 Q 0.289 -0.081 0.226 0.055 Q 0.17400000000000002 0.166 0.094 0.233 Q 0.073 0.25 0.067 0.25 Q 0.057 0.25 0.057 0.24 Q 0.057 0.23500000000000001 0.07 0.223 Q 0.231 0.059000000000000004 0.231 -0.25 Q 0.231 -0.555 0.081 -0.712 L 0.076 -0.717 Q 0.057 -0.735 0.057 -0.74 Q 0.057 -0.75 0.067 -0.75 Q 0.079 -0.75 0.12 -0.709 Q 0.182 -0.647 0.223 -0.562 Q 0.289 -0.426 0.289 -0.25 Z"/></g></g></g></g></svg>