<svg version="1.1" xmlns="http://www.w3.org/2000/svg" xmlns:xlink="http://www.w3.org/1999/xlink" width="183" height="198"><defs><clipPath id="BqgPKkmiIWFP"><path fill="none" stroke="none" d=" M 0 0 L 183 0 L 183 198 L 0 198 L 0 0 Z"/></clipPath></defs><g transform="scale(1,1)" clip-path="url(#BqgPKkmiIWFP)"><g><rect fill="rgb(255,255,255)" stroke="none" x="0" y="0" width="183" height="198" fill-opacity="1"/><path fill="rgb(0,0,0)" stroke="none" paint-order="stroke fill markers" d=" M 26.500000000000227 22 C 26.500000000000227 24.761423749153966 24.261423749154194 27 21.500000000000227 27 C 18.73857625084626 27 16.500000000000227 24.761423749153966 16.500000000000227 22 C 16.500000000000227 19.238576250846034 18.73857625084626 17 21.500000000000227 17 C 24.261423749154194 17 26.500000000000227 19.238576250846034 26.500000000000227 22 Z" fill-opacity="1"/><path fill="rgb(0,0,0)" stroke="none" paint-order="stroke fill markers" d=" M 48.7222222222224 22 C 48.7222222222224 24.761423749153966 46.48364597137636 27 43.7222222222224 27 C 40.96079847306843 27 38.7222222222224 24.761423749153966 38.7222222222224 22 C 38.7222222222224 19.238576250846034 40.96079847306843 17 43.7222222222224 17 C 46.48364597137636 17 48.7222222222224 19.238576250846034 48.7222222222224 22 Z" fill-opacity="1"/><path fill="rgb(0,0,0)" stroke="none" paint-order="stroke fill markers" d=" M 70.94444444444457 22 C 70.94444444444457 24.761423749153966 68.70586819359853 27 65.94444444444457 27 C 63.1830206952906 27 60.94444444444457 24.761423749153966 60.94444444444457 22 C 60.94444444444457 19.238576250846034 63.1830206952906 17 65.94444444444457 17 C 68.70586819359853 17 70.94444444444457 19.238576250846034 70.94444444444457 22 Z" fill-opacity="1"/><path fill="rgb(0,0,0)" stroke="none" paint-order="stroke fill markers" d=" M 93.16666666666674 22 C 93.16666666666674 24.761423749153966 90.9280904158207 27 88.16666666666674 27 C 85.40524291751278 27 83.16666666666674 24.761423749153966 83.16666666666674 22 C 83.16666666666674 19.238576250846034 85.40524291751278 17 88.16666666666674 17 C 90.9280904158207 17 93.16666666666674 19.238576250846034 93.16666666666674 22 Z" fill-opacity="1"/><path fill="rgb(0,0,0)" stroke="none" paint-order="stroke fill markers" d=" M 115.38888888888891 22 C 115.38888888888891 24.761423749153966 113.15031263804288 27 110.38888888888891 27 C 107.62746513973495 27 105.38888888888891 24.761423749153966 105.38888888888891 22 C 105.38888888888891 19.238576250846034 107.62746513973495 17 110.38888888888891 17 C 113.15031263804288 17 115.38888888888891 19.238576250846034 115.38888888888891 22 Z" fill-opacity="1"/><path fill="rgb(0,0,0)" stroke="none" paint-order="stroke fill markers" d=" M 26.500000000000227 44.22222222222216 C 26.500000000000227 46.98364597137612 24.261423749154194 49.22222222222216 21.500000000000227 49.22222222222216 C 18.73857625084626 49.22222222222216 16.500000000000227 46.98364597137612 16.500000000000227 44.22222222222216 C 16.500000000000227 41.46079847306819 18.73857625084626 39.22222222222216 21.500000000000227 39.22222222222216 C 24.261423749154194 39.22222222222216 26.500000000000227 41.46079847306819 26.500000000000227 44.22222222222216 Z" fill-opacity="1"/><path fill="rgb(0,0,0)" stroke="none" paint-order="stroke fill markers" d=" M 48.7222222222224 44.22222222222216 C 48.7222222222224 46.98364597137612 46.48364597137636 49.22222222222216 43.7222222222224 49.22222222222216 C 40.96079847306843 49.22222222222216 38.7222222222224 46.98364597137612 38.7222222222224 44.22222222222216 C 38.7222222222224 41.46079847306819 40.96079847306843 39.22222222222216 43.7222222222224 39.22222222222216 C 46.48364597137636 39.22222222222216 48.7222222222224 41.46079847306819 48.7222222222224 44.22222222222216 Z" fill-opacity="1"/><path fill="rgb(0,0,0)" stroke="none" paint-order="stroke fill markers" d=" M 70.94444444444457 44.22222222222216 C 70.94444444444457 46.98364597137612 68.70586819359853 49.22222222222216 65.94444444444457 49.22222222222216 C 63.1830206952906 49.22222222222216 60.94444444444457 46.98364597137612 60.94444444444457 44.22222222222216 C 60.94444444444457 41.46079847306819 63.1830206952906 39.22222222222216 65.94444444444457 39.22222222222216 C 68.70586819359853 39.22222222222216 70.94444444444457 41.46079847306819 70.94444444444457 44.22222222222216 Z" fill-opacity="1"/><path fill="rgb(0,0,0)" stroke="none" paint-order="stroke fill markers" d=" M 26.500000000000227 66.44444444444431 C 26.500000000000227 69.20586819359828 24.261423749154194 71.44444444444431 21.500000000000227 71.44444444444431 C 18.73857625084626 71.44444444444431 16.500000000000227 69.20586819359828 16.500000000000227 66.44444444444431 C 16.500000000000227 63.683020695290345 18.73857625084626 61.444444444444315 21.500000000000227 61.444444444444315 C 24.261423749154194 61.444444444444315 26.500000000000227 63.683020695290345 26.500000000000227 66.44444444444431 Z" fill-opacity="1"/><path fill="rgb(0,0,0)" stroke="none" paint-order="stroke fill markers" d=" M 48.7222222222224 66.44444444444431 C 48.7222222222224 69.20586819359828 46.48364597137636 71.44444444444431 43.7222222222224 71.44444444444431 C 40.96079847306843 71.44444444444431 38.7222222222224 69.20586819359828 38.7222222222224 66.44444444444431 C 38.7222222222224 63.683020695290345 40.96079847306843 61.444444444444315 43.7222222222224 61.444444444444315 C 46.48364597137636 61.444444444444315 48.7222222222224 63.683020695290345 48.7222222222224 66.44444444444431 Z" fill-opacity="1"/><path fill="rgb(0,0,0)" stroke="none" paint-order="stroke fill markers" d=" M 70.94444444444457 66.44444444444431 C 70.94444444444457 69.20586819359828 68.70586819359853 71.44444444444431 65.94444444444457 71.44444444444431 C 63.1830206952906 71.44444444444431 60.94444444444457 69.20586819359828 60.94444444444457 66.44444444444431 C 60.94444444444457 63.683020695290345 63.1830206952906 61.444444444444315 65.94444444444457 61.444444444444315 C 68.70586819359853 61.444444444444315 70.94444444444457 63.683020695290345 70.94444444444457 66.44444444444431 Z" fill-opacity="1"/><path fill="rgb(0,0,0)" stroke="none" paint-order="stroke fill markers" d=" M 26.500000000000227 88.66666666666646 C 26.500000000000227 91.42809041582042 24.261423749154194 93.66666666666646 21.500000000000227 93.66666666666646 C 18.73857625084626 93.66666666666646 16.500000000000227 91.42809041582042 16.500000000000227 88.66666666666646 C 16.500000000000227 85.9052429175125 18.73857625084626 83.66666666666646 21.500000000000227 83.66666666666646 C 24.261423749154194 83.66666666666646 26.500000000000227 85.9052429175125 26.500000000000227 88.66666666666646 Z" fill-opacity="1"/><path fill="rgb(0,0,0)" stroke="none" paint-order="stroke fill markers" d=" M 93.16666666666674 44.22222222222216 C 93.16666666666674 46.98364597137612 90.9280904158207 49.22222222222216 88.16666666666674 49.22222222222216 C 85.40524291751278 49.22222222222216 83.16666666666674 46.98364597137612 83.16666666666674 44.22222222222216 C 83.16666666666674 41.46079847306819 85.40524291751278 39.22222222222216 88.16666666666674 39.22222222222216 C 90.9280904158207 39.22222222222216 93.16666666666674 41.46079847306819 93.16666666666674 44.22222222222216 Z" fill-opacity="1"/><path fill="rgb(0,0,0)" stroke="none" paint-order="stroke fill markers" d=" M 26.500000000000227 110.88888888888862 C 26.500000000000227 113.65031263804258 24.261423749154194 115.88888888888862 21.500000000000227 115.88888888888862 C 18.73857625084626 115.88888888888862 16.500000000000227 113.65031263804258 16.500000000000227 110.88888888888862 C 16.500000000000227 108.12746513973465 18.73857625084626 105.88888888888862 21.500000000000227 105.88888888888862 C 24.261423749154194 105.88888888888862 26.500000000000227 108.12746513973465 26.500000000000227 110.88888888888862 Z" fill-opacity="1"/><path fill="rgb(0,0,0)" stroke="none" paint-order="stroke fill markers" d=" M 137.6111111111111 22 C 137.6111111111111 24.761423749153966 135.37253486026506 27 132.6111111111111 27 C 129.8496873619571 27 127.61111111111109 24.761423749153966 127.61111111111109 22 C 127.61111111111109 19.238576250846034 129.8496873619571 17 132.6111111111111 17 C 135.37253486026506 17 137.6111111111111 19.238576250846034 137.6111111111111 22 Z" fill-opacity="1"/><g transform="scale(19,19)"><g transform="translate(0.7894736842105263,9.06578947368421)"><path fill="rgb(0,0,0)" stroke="none" paint-order="stroke fill markers" d=" M 0.331 0.24 L 0.331 0.24 Q 0.331 0.25 0.321 0.25 Q 0.309 0.25 0.268 0.209 Q 0.20600000000000002 0.147 0.165 0.062 Q 0.099 -0.074 0.099 -0.25 Q 0.099 -0.419 0.162 -0.555 Q 0.214 -0.666 0.294 -0.733 Q 0.315 -0.75 0.321 -0.75 Q 0.331 -0.75 0.331 -0.74 Q 0.331 -0.735 0.318 -0.723 Q 0.157 -0.559 0.157 -0.25 Q 0.157 0.058 0.314 0.218 Q 0.331 0.23500000000000001 0.331 0.24 Z"/></g><g transform="translate(1.1784736842105263,9.06578947368421)"><path fill="rgb(0,0,0)" stroke="none" paint-order="stroke fill markers" d=" M 0.132 -0.328 L 0.132 -0.328 Q 0.17300000000000001 -0.427 0.257 -0.427 Q 0.34900000000000003 -0.427 0.40800000000000003 -0.35100000000000003 Q 0.441 -0.31 0.452 -0.255 Q 0.457 -0.23 0.457 -0.20400000000000001 Q 0.457 -0.093 0.38 -0.026000000000000002 Q 0.324 0.022 0.251 0.022 Q 0.149 0.022 0.092 -0.075 Q 0.042 -0.162 0.042 -0.316 Q 0.042 -0.489 0.14 -0.591 Q 0.213 -0.666 0.305 -0.666 Q 0.392 -0.666 0.422 -0.605 Q 0.432 -0.584 0.432 -0.558 Q 0.432 -0.518 0.395 -0.511 Q 0.39 -0.51 0.386 -0.51 Q 0.354 -0.51 0.343 -0.538 Q 0.34 -0.546 0.34 -0.556 Q 0.34 -0.601 0.395 -0.601 Q 0.369 -0.641 0.307 -0.641 Q 0.23700000000000002 -0.641 0.189 -0.578 Q 0.132 -0.503 0.132 -0.352 L 0.132 -0.328 M 0.251 -0.006 L 0.251 -0.006 Q 0.318 -0.006 0.35000000000000003 -0.07100000000000001 Q 0.367 -0.107 0.367 -0.20500000000000002 Q 0.367 -0.305 0.34900000000000003 -0.342 Q 0.318 -0.404 0.256 -0.404 Q 0.177 -0.404 0.147 -0.31 Q 0.134 -0.271 0.134 -0.226 Q 0.134 -0.128 0.152 -0.081 Q 0.171 -0.035 0.211 -0.015 Q 0.23 -0.006 0.251 -0.006 Z"/></g><g transform="translate(1.6784736842105263,9.06578947368421)"><path fill="rgb(0,0,0)" stroke="none" paint-order="stroke fill markers" d=" M 0.203 -0.001 L 0.203 -0.001 Q 0.203 0.096 0.14 0.169 Q 0.123 0.189 0.112 0.193 Q 0.10200000000000001 0.193 0.10200000000000001 0.182 Q 0.10200000000000001 0.177 0.113 0.166 Q 0.17300000000000001 0.106 0.18 0.019 Q 0.181 0.009000000000000001 0.181 -0.001 Q 0.181 -0.016 0.179 -0.016 Q 0.178 -0.016 0.17400000000000002 -0.013000000000000001 Q 0.16 0 0.139 0 Q 0.10200000000000001 0 0.09 -0.034 Q 0.08600000000000001 -0.043000000000000003 0.08600000000000001 -0.053 Q 0.08600000000000001 -0.089 0.117 -0.10200000000000001 Q 0.127 -0.106 0.139 -0.106 Q 0.183 -0.106 0.198 -0.048 Q 0.203 -0.027 0.203 -0.001 Z"/></g><g transform="translate(2.123140350877193,9.06578947368421)"><path fill="rgb(0,0,0)" stroke="none" paint-order="stroke fill markers" d=" M 0.028 -0.165 L 0.028 -0.196 L 0.335 -0.665 Q 0.343 -0.677 0.355 -0.677 Q 0.369 -0.677 0.371 -0.666 L 0.371 -0.651 L 0.371 -0.196 L 0.47100000000000003 -0.196 L 0.47100000000000003 -0.165 L 0.371 -0.165 L 0.371 -0.078 Q 0.371 -0.047 0.383 -0.04 Q 0.397 -0.031 0.447 -0.031 L 0.468 -0.031 L 0.468 0 Q 0.427 -0.003 0.332 -0.003 Q 0.23800000000000002 -0.003 0.197 0 L 0.197 -0.031 L 0.218 -0.031 Q 0.28 -0.031 0.29 -0.048 Q 0.294 -0.055 0.294 -0.078 L 0.294 -0.165 L 0.028 -0.165 M 0.3 -0.196 L 0.3 -0.5690000000000001 L 0.056 -0.196 L 0.3 -0.196 Z"/></g><g transform="translate(2.623140350877193,9.06578947368421)"><path fill="rgb(0,0,0)" stroke="none" paint-order="stroke fill markers" d=" M 0.203 -0.001 L 0.203 -0.001 Q 0.203 0.096 0.14 0.169 Q 0.123 0.189 0.112 0.193 Q 0.10200000000000001 0.193 0.10200000000000001 0.182 Q 0.10200000000000001 0.177 0.113 0.166 Q 0.17300000000000001 0.106 0.18 0.019 Q 0.181 0.009000000000000001 0.181 -0.001 Q 0.181 -0.016 0.179 -0.016 Q 0.178 -0.016 0.17400000000000002 -0.013000000000000001 Q 0.16 0 0.139 0 Q 0.10200000000000001 0 0.09 -0.034 Q 0.08600000000000001 -0.043000000000000003 0.08600000000000001 -0.053 Q 0.08600000000000001 -0.089 0.117 -0.10200000000000001 Q 0.127 -0.106 0.139 -0.106 Q 0.183 -0.106 0.198 -0.048 Q 0.203 -0.027 0.203 -0.001 Z"/></g><g transform="translate(3.0678070175438594,9.06578947368421)"><path fill="rgb(0,0,0)" stroke="none" paint-order="stroke fill markers" d=" M 0.29 -0.352 L 0.29 -0.352 Q 0.39 -0.332 0.434 -0.254 Q 0.457 -0.215 0.457 -0.171 Q 0.457 -0.08600000000000001 0.387 -0.028 Q 0.326 0.022 0.244 0.022 Q 0.145 0.022 0.085 -0.037 Q 0.042 -0.079 0.042 -0.135 Q 0.042 -0.182 0.084 -0.191 Q 0.091 -0.193 0.098 -0.193 Q 0.136 -0.193 0.149 -0.161 Q 0.153 -0.148 0.154 -0.137 Q 0.154 -0.097 0.11800000000000001 -0.085 Q 0.10400000000000001 -0.08 0.088 -0.082 Q 0.125 -0.02 0.216 -0.008 Q 0.229 -0.006 0.241 -0.006 Q 0.305 -0.006 0.335 -0.069 Q 0.354 -0.109 0.354 -0.171 Q 0.354 -0.304 0.274 -0.331 Q 0.256 -0.337 0.23500000000000001 -0.337 L 0.191 -0.337 Q 0.169 -0.337 0.167 -0.34800000000000003 Q 0.167 -0.358 0.182 -0.36 Q 0.197 -0.36 0.221 -0.363 Q 0.272 -0.365 0.301 -0.402 L 0.301 -0.403 L 0.302 -0.404 L 0.303 -0.405 L 0.304 -0.405 L 0.31 -0.41500000000000004 Q 0.338 -0.462 0.338 -0.529 Q 0.338 -0.622 0.266 -0.638 Q 0.254 -0.641 0.242 -0.641 Q 0.17200000000000001 -0.641 0.128 -0.601 Q 0.117 -0.591 0.109 -0.579 Q 0.171 -0.579 0.171 -0.529 Q 0.171 -0.493 0.14 -0.481 Q 0.131 -0.47800000000000004 0.12 -0.47800000000000004 Q 0.081 -0.47800000000000004 0.07100000000000001 -0.513 L 0.07100000000000001 -0.513 L 0.07100000000000001 -0.514 Q 0.069 -0.522 0.069 -0.53 Q 0.069 -0.597 0.135 -0.637 Q 0.183 -0.666 0.246 -0.666 Q 0.337 -0.666 0.393 -0.612 L 0.395 -0.61 Q 0.43 -0.5740000000000001 0.43 -0.528 Q 0.43 -0.445 0.359 -0.389 Q 0.328 -0.365 0.29 -0.352 Z"/></g><g transform="translate(3.5678070175438594,9.06578947368421)"><path fill="rgb(0,0,0)" stroke="none" paint-order="stroke fill markers" d=" M 0.203 -0.001 L 0.203 -0.001 Q 0.203 0.096 0.14 0.169 Q 0.123 0.189 0.112 0.193 Q 0.10200000000000001 0.193 0.10200000000000001 0.182 Q 0.10200000000000001 0.177 0.113 0.166 Q 0.17300000000000001 0.106 0.18 0.019 Q 0.181 0.009000000000000001 0.181 -0.001 Q 0.181 -0.016 0.179 -0.016 Q 0.178 -0.016 0.17400000000000002 -0.013000000000000001 Q 0.16 0 0.139 0 Q 0.10200000000000001 0 0.09 -0.034 Q 0.08600000000000001 -0.043000000000000003 0.08600000000000001 -0.053 Q 0.08600000000000001 -0.089 0.117 -0.10200000000000001 Q 0.127 -0.106 0.139 -0.106 Q 0.183 -0.106 0.198 -0.048 Q 0.203 -0.027 0.203 -0.001 Z"/></g><g transform="translate(4.012473684210526,9.06578947368421)"><path fill="rgb(0,0,0)" stroke="none" paint-order="stroke fill markers" d=" M 0.294 -0.64 L 0.294 -0.079 Q 0.294 -0.049 0.306 -0.041 Q 0.323 -0.031 0.387 -0.031 L 0.419 -0.031 L 0.419 0 Q 0.384 -0.003 0.257 -0.003 Q 0.13 -0.003 0.095 0 L 0.095 -0.031 L 0.127 -0.031 Q 0.20400000000000001 -0.031 0.215 -0.049 L 0.216 -0.05 Q 0.22 -0.058 0.22 -0.079 L 0.22 -0.597 Q 0.168 -0.5710000000000001 0.089 -0.5710000000000001 L 0.089 -0.602 Q 0.209 -0.602 0.271 -0.666 Q 0.29 -0.666 0.293 -0.659 L 0.293 -0.659 L 0.293 -0.658 Q 0.294 -0.655 0.294 -0.64 Z"/></g><g transform="translate(4.512473684210526,9.06578947368421)"><path fill="rgb(0,0,0)" stroke="none" paint-order="stroke fill markers" d=" M 0.203 -0.001 L 0.203 -0.001 Q 0.203 0.096 0.14 0.169 Q 0.123 0.189 0.112 0.193 Q 0.10200000000000001 0.193 0.10200000000000001 0.182 Q 0.10200000000000001 0.177 0.113 0.166 Q 0.17300000000000001 0.106 0.18 0.019 Q 0.181 0.009000000000000001 0.181 -0.001 Q 0.181 -0.016 0.179 -0.016 Q 0.178 -0.016 0.17400000000000002 -0.013000000000000001 Q 0.16 0 0.139 0 Q 0.10200000000000001 0 0.09 -0.034 Q 0.08600000000000001 -0.043000000000000003 0.08600000000000001 -0.053 Q 0.08600000000000001 -0.089 0.117 -0.10200000000000001 Q 0.127 -0.106 0.139 -0.106 Q 0.183 -0.106 0.198 -0.048 Q 0.203 -0.027 0.203 -0.001 Z"/></g><g transform="translate(4.957140350877194,9.06578947368421)"><path fill="rgb(0,0,0)" stroke="none" paint-order="stroke fill markers" d=" M 0.294 -0.64 L 0.294 -0.079 Q 0.294 -0.049 0.306 -0.041 Q 0.323 -0.031 0.387 -0.031 L 0.419 -0.031 L 0.419 0 Q 0.384 -0.003 0.257 -0.003 Q 0.13 -0.003 0.095 0 L 0.095 -0.031 L 0.127 -0.031 Q 0.20400000000000001 -0.031 0.215 -0.049 L 0.216 -0.05 Q 0.22 -0.058 0.22 -0.079 L 0.22 -0.597 Q 0.168 -0.5710000000000001 0.089 -0.5710000000000001 L 0.089 -0.602 Q 0.209 -0.602 0.271 -0.666 Q 0.29 -0.666 0.293 -0.659 L 0.293 -0.659 L 0.293 -0.658 Q 0.294 -0.655 0.294 -0.64 Z"/></g><g transform="translate(5.457140350877194,9.06578947368421)"><path fill="rgb(0,0,0)" stroke="none" paint-order="stroke fill markers" d=" M 0.289 -0.25 L 0.289 -0.25 Q 0.289 -0.081 0.226 0.055 Q 0.17400000000000002 0.166 0.094 0.233 Q 0.073 0.25 0.067 0.25 Q 0.057 0.25 0.057 0.24 Q 0.057 0.23500000000000001 0.07 0.223 Q 0.231 0.059000000000000004 0.231 -0.25 Q 0.231 -0.555 0.081 -0.712 L 0.076 -0.717 Q 0.057 -0.735 0.057 -0.74 Q 0.057 -0.75 0.067 -0.75 Q 0.079 -0.75 0.12 -0.709 Q 0.182 -0.647 0.223 -0.562 Q 0.289 -0.426 0.289 -0.25 Z"/></g></g></g></g></svg>