<svg version="1.1" xmlns="http://www.w3.org/2000/svg" xmlns:xlink="http://www.w3.org/1999/xlink" width="367" height="255"><defs><clipPath id="XioplLCqqWdT"><path fill="none" stroke="none" d=" M 0 0 L 367 0 L 367 255 L 0 255 L 0 0 Z"/></clipPath></defs><g transform="scale(1,1)" clip-path="url(#XioplLCqqWdT)"><g><rect fill="rgb(255,255,255)" stroke="none" x="0" y="0" width="367" height="255" fill-opacity="1"/><path fill="none" stroke="rgb(0,0,0)" paint-order="fill stroke markers" d=" M 56.49999999999994 220.4999999999999 L 106.49999999999989 220.4999999999999" stroke-opacity="1" stroke-linecap="round" stroke-linejoin="round" stroke-miterlimit="10" stroke-width="2.5"/><path fill="none" stroke="rgb(0,0,0)" paint-order="fill stroke markers" d=" M 106.49999999999989 170.4999999999999 L 106.49999999999989 220.4999999999999" stroke-opacity="1" stroke-linecap="round" stroke-linejoin="round" stroke-miterlimit="10" stroke-width="2.5"/><path fill="none" stroke="rgb(0,0,0)" paint-order="fill stroke markers" d=" M 106.49999999999989 170.4999999999999 L 256.4999999999997 170.4999999999999" stroke-opacity="1" stroke-linecap="round" stroke-linejoin="round" stroke-miterlimit="10" stroke-width="2.5"/><path fill="none" stroke="rgb(0,0,0)" paint-order="fill stroke markers" d=" M 256.4999999999997 170.4999999999999 L 256.4999999999997 20.499999999999943" stroke-opacity="1" stroke-linecap="round" stroke-linejoin="round" stroke-miterlimit="10" stroke-width="2.5"/><path fill="none" stroke="rgb(0,0,0)" paint-order="fill stroke markers" d=" M 256.4999999999997 20.499999999999943 L 306.49999999999966 20.499999999999943" stroke-opacity="1" stroke-linecap="round" stroke-linejoin="round" stroke-miterlimit="10" stroke-width="2.5"/><path fill="rgb(0,255,0)" stroke="none" paint-order="stroke fill markers" d=" M 60.49999999999994 220.4999999999999 C 60.49999999999994 222.70913899932305 58.709138999323116 224.4999999999999 56.49999999999994 224.4999999999999 C 54.29086100067677 224.4999999999999 52.49999999999994 222.70913899932305 52.49999999999994 220.4999999999999 C 52.49999999999994 218.2908610006767 54.29086100067677 216.4999999999999 56.49999999999994 216.4999999999999 C 58.709138999323116 216.4999999999999 60.49999999999994 218.2908610006767 60.49999999999994 220.4999999999999 Z" fill-opacity="1"/><path fill="none" stroke="rgb(0,0,0)" paint-order="fill stroke markers" d=" M 60.49999999999994 220.4999999999999 C 60.49999999999994 222.70913899932305 58.709138999323116 224.4999999999999 56.49999999999994 224.4999999999999 C 54.29086100067677 224.4999999999999 52.49999999999994 222.70913899932305 52.49999999999994 220.4999999999999 C 52.49999999999994 218.2908610006767 54.29086100067677 216.4999999999999 56.49999999999994 216.4999999999999 C 58.709138999323116 216.4999999999999 60.49999999999994 218.2908610006767 60.49999999999994 220.4999999999999 Z" stroke-opacity="1" stroke-linecap="round" stroke-linejoin="round" stroke-miterlimit="10"/><path fill="rgb(255,85,0)" stroke="none" paint-order="stroke fill markers" d=" M 110.49999999999989 220.4999999999999 C 110.49999999999989 222.70913899932305 108.70913899932306 224.4999999999999 106.49999999999989 224.4999999999999 C 104.29086100067671 224.4999999999999 102.49999999999989 222.70913899932305 102.49999999999989 220.4999999999999 C 102.49999999999989 218.2908610006767 104.29086100067671 216.4999999999999 106.49999999999989 216.4999999999999 C 108.70913899932306 216.4999999999999 110.49999999999989 218.2908610006767 110.49999999999989 220.4999999999999 Z" fill-opacity="1"/><path fill="none" stroke="rgb(0,0,0)" paint-order="fill stroke markers" d=" M 110.49999999999989 220.4999999999999 C 110.49999999999989 222.70913899932305 108.70913899932306 224.4999999999999 106.49999999999989 224.4999999999999 C 104.29086100067671 224.4999999999999 102.49999999999989 222.70913899932305 102.49999999999989 220.4999999999999 C 102.49999999999989 218.2908610006767 104.29086100067671 216.4999999999999 106.49999999999989 216.4999999999999 C 108.70913899932306 216.4999999999999 110.49999999999989 218.2908610006767 110.49999999999989 220.4999999999999 Z" stroke-opacity="1" stroke-linecap="round" stroke-linejoin="round" stroke-miterlimit="10"/><path fill="rgb(255,85,0)" stroke="none" paint-order="stroke fill markers" d=" M 110.49999999999989 170.4999999999999 C 110.49999999999989 172.70913899932305 108.70913899932306 174.4999999999999 106.49999999999989 174.4999999999999 C 104.29086100067671 174.4999999999999 102.49999999999989 172.70913899932305 102.49999999999989 170.4999999999999 C 102.49999999999989 168.2908610006767 104.29086100067671 166.4999999999999 106.49999999999989 166.4999999999999 C 108.70913899932306 166.4999999999999 110.49999999999989 168.2908610006767 110.49999999999989 170.4999999999999 Z" fill-opacity="1"/><path fill="none" stroke="rgb(0,0,0)" paint-order="fill stroke markers" d=" M 110.49999999999989 170.4999999999999 C 110.49999999999989 172.70913899932305 108.70913899932306 174.4999999999999 106.49999999999989 174.4999999999999 C 104.29086100067671 174.4999999999999 102.49999999999989 172.70913899932305 102.49999999999989 170.4999999999999 C 102.49999999999989 168.2908610006767 104.29086100067671 166.4999999999999 106.49999999999989 166.4999999999999 C 108.70913899932306 166.4999999999999 110.49999999999989 168.2908610006767 110.49999999999989 170.4999999999999 Z" stroke-opacity="1" stroke-linecap="round" stroke-linejoin="round" stroke-miterlimit="10"/><path fill="rgb(255,85,0)" stroke="none" paint-order="stroke fill markers" d=" M 160.49999999999983 170.4999999999999 C 160.49999999999983 172.70913899932305 158.709138999323 174.4999999999999 156.49999999999983 174.4999999999999 C 154.29086100067664 174.4999999999999 152.49999999999983 172.70913899932305 152.49999999999983 170.4999999999999 C 152.49999999999983 168.2908610006767 154.29086100067664 166.4999999999999 156.49999999999983 166.4999999999999 C 158.709138999323 166.4999999999999 160.49999999999983 168.2908610006767 160.49999999999983 170.4999999999999 Z" fill-opacity="1"/><path fill="none" stroke="rgb(0,0,0)" paint-order="fill stroke markers" d=" M 160.49999999999983 170.4999999999999 C 160.49999999999983 172.70913899932305 158.709138999323 174.4999999999999 156.49999999999983 174.4999999999999 C 154.29086100067664 174.4999999999999 152.49999999999983 172.70913899932305 152.49999999999983 170.4999999999999 C 152.49999999999983 168.2908610006767 154.29086100067664 166.4999999999999 156.49999999999983 166.4999999999999 C 158.709138999323 166.4999999999999 160.49999999999983 168.2908610006767 160.49999999999983 170.4999999999999 Z" stroke-opacity="1" stroke-linecap="round" stroke-linejoin="round" stroke-miterlimit="10"/><path fill="rgb(255,85,0)" stroke="none" paint-order="stroke fill markers" d=" M 210.49999999999977 170.4999999999999 C 210.49999999999977 172.70913899932305 208.70913899932293 174.4999999999999 206.49999999999977 174.4999999999999 C 204.29086100067659 174.4999999999999 202.49999999999977 172.70913899932305 202.49999999999977 170.4999999999999 C 202.49999999999977 168.2908610006767 204.29086100067659 166.4999999999999 206.49999999999977 166.4999999999999 C 208.70913899932293 166.4999999999999 210.49999999999977 168.2908610006767 210.49999999999977 170.4999999999999 Z" fill-opacity="1"/><path fill="none" stroke="rgb(0,0,0)" paint-order="fill stroke markers" d=" M 210.49999999999977 170.4999999999999 C 210.49999999999977 172.70913899932305 208.70913899932293 174.4999999999999 206.49999999999977 174.4999999999999 C 204.29086100067659 174.4999999999999 202.49999999999977 172.70913899932305 202.49999999999977 170.4999999999999 C 202.49999999999977 168.2908610006767 204.29086100067659 166.4999999999999 206.49999999999977 166.4999999999999 C 208.70913899932293 166.4999999999999 210.49999999999977 168.2908610006767 210.49999999999977 170.4999999999999 Z" stroke-opacity="1" stroke-linecap="round" stroke-linejoin="round" stroke-miterlimit="10"/><path fill="rgb(255,85,0)" stroke="none" paint-order="stroke fill markers" d=" M 260.4999999999997 170.4999999999999 C 260.4999999999997 172.70913899932305 258.7091389993229 174.4999999999999 256.4999999999997 174.4999999999999 C 254.29086100067653 174.4999999999999 252.49999999999972 172.70913899932305 252.49999999999972 170.4999999999999 C 252.49999999999972 168.2908610006767 254.29086100067653 166.4999999999999 256.4999999999997 166.4999999999999 C 258.7091389993229 166.4999999999999 260.4999999999997 168.2908610006767 260.4999999999997 170.4999999999999 Z" fill-opacity="1"/><path fill="none" stroke="rgb(0,0,0)" paint-order="fill stroke markers" d=" M 260.4999999999997 170.4999999999999 C 260.4999999999997 172.70913899932305 258.7091389993229 174.4999999999999 256.4999999999997 174.4999999999999 C 254.29086100067653 174.4999999999999 252.49999999999972 172.70913899932305 252.49999999999972 170.4999999999999 C 252.49999999999972 168.2908610006767 254.29086100067653 166.4999999999999 256.4999999999997 166.4999999999999 C 258.7091389993229 166.4999999999999 260.4999999999997 168.2908610006767 260.4999999999997 170.4999999999999 Z" stroke-opacity="1" stroke-linecap="round" stroke-linejoin="round" stroke-miterlimit="10"/><path fill="rgb(255,85,0)" stroke="none" paint-order="stroke fill markers" d=" M 260.4999999999997 120.49999999999991 C 260.4999999999997 122.70913899932309 258.7091389993229 124.49999999999991 256.4999999999997 124.49999999999991 C 254.29086100067653 124.49999999999991 252.49999999999972 122.70913899932309 252.49999999999972 120.49999999999991 C 252.49999999999972 118.29086100067674 254.29086100067653 116.49999999999991 256.4999999999997 116.49999999999991 C 258.7091389993229 116.49999999999991 260.4999999999997 118.29086100067674 260.4999999999997 120.49999999999991 Z" fill-opacity="1"/><path fill="none" stroke="rgb(0,0,0)" paint-order="fill stroke markers" d=" M 260.4999999999997 120.49999999999991 C 260.4999999999997 122.70913899932309 258.7091389993229 124.49999999999991 256.4999999999997 124.49999999999991 C 254.29086100067653 124.49999999999991 252.49999999999972 122.70913899932309 252.49999999999972 120.49999999999991 C 252.49999999999972 118.29086100067674 254.29086100067653 116.49999999999991 256.4999999999997 116.49999999999991 C 258.7091389993229 116.49999999999991 260.4999999999997 118.29086100067674 260.4999999999997 120.49999999999991 Z" stroke-opacity="1" stroke-linecap="round" stroke-linejoin="round" stroke-miterlimit="10"/><path fill="rgb(255,85,0)" stroke="none" paint-order="stroke fill markers" d=" M 260.4999999999997 70.49999999999994 C 260.4999999999997 72.70913899932312 258.7091389993229 74.49999999999994 256.4999999999997 74.49999999999994 C 254.29086100067653 74.49999999999994 252.49999999999972 72.70913899932312 252.49999999999972 70.49999999999994 C 252.49999999999972 68.29086100067677 254.29086100067653 66.49999999999994 256.4999999999997 66.49999999999994 C 258.7091389993229 66.49999999999994 260.4999999999997 68.29086100067677 260.4999999999997 70.49999999999994 Z" fill-opacity="1"/><path fill="none" stroke="rgb(0,0,0)" paint-order="fill stroke markers" d=" M 260.4999999999997 70.49999999999994 C 260.4999999999997 72.70913899932312 258.7091389993229 74.49999999999994 256.4999999999997 74.49999999999994 C 254.29086100067653 74.49999999999994 252.49999999999972 72.70913899932312 252.49999999999972 70.49999999999994 C 252.49999999999972 68.29086100067677 254.29086100067653 66.49999999999994 256.4999999999997 66.49999999999994 C 258.7091389993229 66.49999999999994 260.4999999999997 68.29086100067677 260.4999999999997 70.49999999999994 Z" stroke-opacity="1" stroke-linecap="round" stroke-linejoin="round" stroke-miterlimit="10"/><path fill="rgb(255,85,0)" stroke="none" paint-order="stroke fill markers" d=" M 260.4999999999997 20.499999999999943 C 260.4999999999997 22.709138999323116 258.7091389993229 24.499999999999943 256.4999999999997 24.499999999999943 C 254.29086100067653 24.499999999999943 252.49999999999972 22.709138999323116 252.49999999999972 20.499999999999943 C 252.49999999999972 18.29086100067677 254.29086100067653 16.499999999999943 256.4999999999997 16.499999999999943 C 258.7091389993229 16.499999999999943 260.4999999999997 18.29086100067677 260.4999999999997 20.499999999999943 Z" fill-opacity="1"/><path fill="none" stroke="rgb(0,0,0)" paint-order="fill stroke markers" d=" M 260.4999999999997 20.499999999999943 C 260.4999999999997 22.709138999323116 258.7091389993229 24.499999999999943 256.4999999999997 24.499999999999943 C 254.29086100067653 24.499999999999943 252.49999999999972 22.709138999323116 252.49999999999972 20.499999999999943 C 252.49999999999972 18.29086100067677 254.29086100067653 16.499999999999943 256.4999999999997 16.499999999999943 C 258.7091389993229 16.499999999999943 260.4999999999997 18.29086100067677 260.4999999999997 20.499999999999943 Z" stroke-opacity="1" stroke-linecap="round" stroke-linejoin="round" stroke-miterlimit="10"/><path fill="rgb(0,255,0)" stroke="none" paint-order="stroke fill markers" d=" M 310.49999999999966 20.499999999999943 C 310.49999999999966 22.709138999323116 308.7091389993228 24.499999999999943 306.49999999999966 24.499999999999943 C 304.2908610006765 24.499999999999943 302.49999999999966 22.709138999323116 302.49999999999966 20.499999999999943 C 302.49999999999966 18.29086100067677 304.2908610006765 16.499999999999943 306.49999999999966 16.499999999999943 C 308.7091389993228 16.499999999999943 310.49999999999966 18.29086100067677 310.49999999999966 20.499999999999943 Z" fill-opacity="1"/><path fill="none" stroke="rgb(0,0,0)" paint-order="fill stroke markers" d=" M 310.49999999999966 20.499999999999943 C 310.49999999999966 22.709138999323116 308.7091389993228 24.499999999999943 306.49999999999966 24.499999999999943 C 304.2908610006765 24.499999999999943 302.49999999999966 22.709138999323116 302.49999999999966 20.499999999999943 C 302.49999999999966 18.29086100067677 304.2908610006765 16.499999999999943 306.49999999999966 16.499999999999943 C 308.7091389993228 16.499999999999943 310.49999999999966 18.29086100067677 310.49999999999966 20.499999999999943 Z" stroke-opacity="1" stroke-linecap="round" stroke-linejoin="round" stroke-miterlimit="10"/><g transform="scale(19,19)"><g transform="translate(0.3684210526315789,12.802631578947368)"><path fill="rgb(0,0,0)" stroke="none" paint-order="stroke fill markers" d=" M 0.331 0.24 L 0.331 0.24 Q 0.331 0.25 0.321 0.25 Q 0.309 0.25 0.268 0.209 Q 0.20600000000000002 0.147 0.165 0.062 Q 0.099 -0.074 0.099 -0.25 Q 0.099 -0.419 0.162 -0.555 Q 0.214 -0.666 0.294 -0.733 Q 0.315 -0.75 0.321 -0.75 Q 0.331 -0.75 0.331 -0.74 Q 0.331 -0.735 0.318 -0.723 Q 0.157 -0.559 0.157 -0.25 Q 0.157 0.058 0.314 0.218 Q 0.331 0.23500000000000001 0.331 0.24 Z"/></g><g transform="translate(0.757421052631579,12.802631578947368)"><path fill="rgb(0,0,0)" stroke="none" paint-order="stroke fill markers" d=" M 0.46 -0.32 Q 0.46 -0.17400000000000002 0.423 -0.094 Q 0.364 0.018000000000000002 0.249 0.022 Q 0.158 0.022 0.10300000000000001 -0.05 Q 0.092 -0.063 0.084 -0.079 Q 0.039 -0.162 0.039 -0.32 Q 0.039 -0.467 0.076 -0.547 Q 0.126 -0.659 0.23800000000000002 -0.666 L 0.25 -0.666 Q 0.339 -0.666 0.395 -0.595 L 0.395 -0.594 Q 0.40900000000000003 -0.5760000000000001 0.42 -0.554 Q 0.46 -0.46900000000000003 0.46 -0.32 M 0.249 0 L 0.249 0 Q 0.312 0 0.34600000000000003 -0.061 Q 0.36 -0.088 0.366 -0.125 Q 0.377 -0.189 0.377 -0.332 Q 0.377 -0.47100000000000003 0.367 -0.527 Q 0.34900000000000003 -0.622 0.275 -0.641 Q 0.262 -0.644 0.249 -0.644 Q 0.179 -0.644 0.147 -0.5740000000000001 Q 0.136 -0.55 0.13 -0.516 Q 0.122 -0.462 0.122 -0.332 Q 0.122 -0.181 0.133 -0.121 Q 0.151 -0.025 0.221 -0.004 Q 0.23500000000000001 0 0.249 0 Z"/></g><g transform="translate(1.257421052631579,12.802631578947368)"><path fill="rgb(0,0,0)" stroke="none" paint-order="stroke fill markers" d=" M 0.203 -0.001 L 0.203 -0.001 Q 0.203 0.096 0.14 0.169 Q 0.123 0.189 0.112 0.193 Q 0.10200000000000001 0.193 0.10200000000000001 0.182 Q 0.10200000000000001 0.177 0.113 0.166 Q 0.17300000000000001 0.106 0.18 0.019 Q 0.181 0.009000000000000001 0.181 -0.001 Q 0.181 -0.016 0.179 -0.016 Q 0.178 -0.016 0.17400000000000002 -0.013000000000000001 Q 0.16 0 0.139 0 Q 0.10200000000000001 0 0.09 -0.034 Q 0.08600000000000001 -0.043000000000000003 0.08600000000000001 -0.053 Q 0.08600000000000001 -0.089 0.117 -0.10200000000000001 Q 0.127 -0.106 0.139 -0.106 Q 0.183 -0.106 0.198 -0.048 Q 0.203 -0.027 0.203 -0.001 Z"/></g><g transform="translate(1.7020877192982458,12.802631578947368)"><path fill="rgb(0,0,0)" stroke="none" paint-order="stroke fill markers" d=" M 0.46 -0.32 Q 0.46 -0.17400000000000002 0.423 -0.094 Q 0.364 0.018000000000000002 0.249 0.022 Q 0.158 0.022 0.10300000000000001 -0.05 Q 0.092 -0.063 0.084 -0.079 Q 0.039 -0.162 0.039 -0.32 Q 0.039 -0.467 0.076 -0.547 Q 0.126 -0.659 0.23800000000000002 -0.666 L 0.25 -0.666 Q 0.339 -0.666 0.395 -0.595 L 0.395 -0.594 Q 0.40900000000000003 -0.5760000000000001 0.42 -0.554 Q 0.46 -0.46900000000000003 0.46 -0.32 M 0.249 0 L 0.249 0 Q 0.312 0 0.34600000000000003 -0.061 Q 0.36 -0.088 0.366 -0.125 Q 0.377 -0.189 0.377 -0.332 Q 0.377 -0.47100000000000003 0.367 -0.527 Q 0.34900000000000003 -0.622 0.275 -0.641 Q 0.262 -0.644 0.249 -0.644 Q 0.179 -0.644 0.147 -0.5740000000000001 Q 0.136 -0.55 0.13 -0.516 Q 0.122 -0.462 0.122 -0.332 Q 0.122 -0.181 0.133 -0.121 Q 0.151 -0.025 0.221 -0.004 Q 0.23500000000000001 0 0.249 0 Z"/></g><g transform="translate(2.2020877192982455,12.802631578947368)"><path fill="rgb(0,0,0)" stroke="none" paint-order="stroke fill markers" d=" M 0.289 -0.25 L 0.289 -0.25 Q 0.289 -0.081 0.226 0.055 Q 0.17400000000000002 0.166 0.094 0.233 Q 0.073 0.25 0.067 0.25 Q 0.057 0.25 0.057 0.24 Q 0.057 0.23500000000000001 0.07 0.223 Q 0.231 0.059000000000000004 0.231 -0.25 Q 0.231 -0.555 0.081 -0.712 L 0.076 -0.717 Q 0.057 -0.735 0.057 -0.74 Q 0.057 -0.75 0.067 -0.75 Q 0.079 -0.75 0.12 -0.709 Q 0.182 -0.647 0.223 -0.562 Q 0.289 -0.426 0.289 -0.25 Z"/></g></g><g transform="scale(19,19)"><g transform="translate(16.473684210526315,2.0657894736842106)"><path fill="rgb(0,0,0)" stroke="none" paint-order="stroke fill markers" d=" M 0.331 0.24 L 0.331 0.24 Q 0.331 0.25 0.321 0.25 Q 0.309 0.25 0.268 0.209 Q 0.20600000000000002 0.147 0.165 0.062 Q 0.099 -0.074 0.099 -0.25 Q 0.099 -0.419 0.162 -0.555 Q 0.214 -0.666 0.294 -0.733 Q 0.315 -0.75 0.321 -0.75 Q 0.331 -0.75 0.331 -0.74 Q 0.331 -0.735 0.318 -0.723 Q 0.157 -0.559 0.157 -0.25 Q 0.157 0.058 0.314 0.218 Q 0.331 0.23500000000000001 0.331 0.24 Z"/></g><g transform="translate(16.862684210526314,2.0657894736842106)"><path fill="rgb(0,0,0)" stroke="none" paint-order="stroke fill markers" d=" M 0.449 -0.201 L 0.449 -0.201 Q 0.449 -0.098 0.372 -0.031 Q 0.31 0.022 0.231 0.022 Q 0.139 0.022 0.085 -0.055 Q 0.05 -0.10400000000000001 0.05 -0.161 Q 0.05 -0.20700000000000002 0.091 -0.213 Q 0.095 -0.214 0.099 -0.214 Q 0.136 -0.214 0.147 -0.181 Q 0.149 -0.17300000000000001 0.149 -0.165 Q 0.149 -0.133 0.121 -0.121 Q 0.111 -0.116 0.099 -0.116 Q 0.088 -0.116 0.082 -0.11800000000000001 Q 0.1 -0.055 0.159 -0.024 Q 0.192 -0.006 0.229 -0.006 Q 0.296 -0.006 0.336 -0.07100000000000001 Q 0.36 -0.113 0.36 -0.20800000000000002 Q 0.36 -0.292 0.342 -0.334 Q 0.314 -0.398 0.257 -0.398 Q 0.176 -0.398 0.128 -0.328 Q 0.122 -0.319 0.115 -0.319 Q 0.10200000000000001 -0.319 0.101 -0.333 L 0.101 -0.34500000000000003 L 0.101 -0.641 Q 0.101 -0.664 0.111 -0.665 Q 0.115 -0.665 0.123 -0.662 Q 0.186 -0.634 0.256 -0.634 Q 0.328 -0.634 0.392 -0.663 Q 0.397 -0.666 0.4 -0.666 Q 0.41000000000000003 -0.666 0.41000000000000003 -0.655 Q 0.41000000000000003 -0.642 0.378 -0.613 Q 0.31 -0.551 0.217 -0.551 Q 0.17500000000000002 -0.551 0.132 -0.5640000000000001 L 0.132 -0.369 Q 0.184 -0.42 0.259 -0.42 Q 0.34700000000000003 -0.42 0.404 -0.343 Q 0.449 -0.28200000000000003 0.449 -0.201 Z"/></g><g transform="translate(17.362684210526314,2.0657894736842106)"><path fill="rgb(0,0,0)" stroke="none" paint-order="stroke fill markers" d=" M 0.203 -0.001 L 0.203 -0.001 Q 0.203 0.096 0.14 0.169 Q 0.123 0.189 0.112 0.193 Q 0.10200000000000001 0.193 0.10200000000000001 0.182 Q 0.10200000000000001 0.177 0.113 0.166 Q 0.17300000000000001 0.106 0.18 0.019 Q 0.181 0.009000000000000001 0.181 -0.001 Q 0.181 -0.016 0.179 -0.016 Q 0.178 -0.016 0.17400000000000002 -0.013000000000000001 Q 0.16 0 0.139 0 Q 0.10200000000000001 0 0.09 -0.034 Q 0.08600000000000001 -0.043000000000000003 0.08600000000000001 -0.053 Q 0.08600000000000001 -0.089 0.117 -0.10200000000000001 Q 0.127 -0.106 0.139 -0.106 Q 0.183 -0.106 0.198 -0.048 Q 0.203 -0.027 0.203 -0.001 Z"/></g><g transform="translate(17.80735087719298,2.0657894736842106)"><path fill="rgb(0,0,0)" stroke="none" paint-order="stroke fill markers" d=" M 0.028 -0.165 L 0.028 -0.196 L 0.335 -0.665 Q 0.343 -0.677 0.355 -0.677 Q 0.369 -0.677 0.371 -0.666 L 0.371 -0.651 L 0.371 -0.196 L 0.47100000000000003 -0.196 L 0.47100000000000003 -0.165 L 0.371 -0.165 L 0.371 -0.078 Q 0.371 -0.047 0.383 -0.04 Q 0.397 -0.031 0.447 -0.031 L 0.468 -0.031 L 0.468 0 Q 0.427 -0.003 0.332 -0.003 Q 0.23800000000000002 -0.003 0.197 0 L 0.197 -0.031 L 0.218 -0.031 Q 0.28 -0.031 0.29 -0.048 Q 0.294 -0.055 0.294 -0.078 L 0.294 -0.165 L 0.028 -0.165 M 0.3 -0.196 L 0.3 -0.5690000000000001 L 0.056 -0.196 L 0.3 -0.196 Z"/></g><g transform="translate(18.30735087719298,2.0657894736842106)"><path fill="rgb(0,0,0)" stroke="none" paint-order="stroke fill markers" d=" M 0.289 -0.25 L 0.289 -0.25 Q 0.289 -0.081 0.226 0.055 Q 0.17400000000000002 0.166 0.094 0.233 Q 0.073 0.25 0.067 0.25 Q 0.057 0.25 0.057 0.24 Q 0.057 0.23500000000000001 0.07 0.223 Q 0.231 0.059000000000000004 0.231 -0.25 Q 0.231 -0.555 0.081 -0.712 L 0.076 -0.717 Q 0.057 -0.735 0.057 -0.74 Q 0.057 -0.75 0.067 -0.75 Q 0.079 -0.75 0.12 -0.709 Q 0.182 -0.647 0.223 -0.562 Q 0.289 -0.426 0.289 -0.25 Z"/></g></g></g></g></svg>