<svg version="1.1" xmlns="http://www.w3.org/2000/svg" xmlns:xlink="http://www.w3.org/1999/xlink" width="443" height="443"><defs><clipPath id="xhMRNfWfFSxJ"><path fill="none" stroke="none" d=" M 0 0 L 443 0 L 443 443 L 0 443 L 0 0 Z"/></clipPath></defs><g transform="scale(1,1)" clip-path="url(#xhMRNfWfFSxJ)"><g><rect fill="rgb(255,255,255)" stroke="none" x="0" y="0" width="443" height="443" fill-opacity="1"/><path fill="none" stroke="rgb(0,0,0)" paint-order="fill stroke markers" d=" M 439.9106960566986 220.9999999999996 C 439.9106960566986 341.7629678195012 342.0129678195009 439.6606960566995 221.2499999999999 439.6606960566995 C 100.48703218049887 439.6606960566995 2.5893039433011324 341.7629678195012 2.5893039433011324 220.9999999999996 C 2.5893039433011324 100.23703218049793 100.48703218049887 2.3393039432996545 221.2499999999999 2.3393039432996545 C 342.0129678195009 2.3393039432996545 439.9106960566986 100.23703218049793 439.9106960566986 220.9999999999996 Z" stroke-opacity="1" stroke-linecap="round" stroke-linejoin="round" stroke-miterlimit="10" stroke-width="1.5"/><path fill="none" stroke="rgb(0,0,0)" paint-order="fill stroke markers" d=" M 33.749999999999886 333.5000000000002 L 47.892135623729885 333.5000000000002 L 47.89213562373084 319.3578643762692 L 33.74999999999989 319.35786437627013 L 33.749999999999886 333.5000000000002" stroke-opacity="0.6980392156862745" stroke-linecap="round" stroke-linejoin="round" stroke-miterlimit="10" stroke-width="1.5"/><path fill="none" stroke="rgb(0,0,0)" paint-order="fill stroke markers" d=" M 333.7499999999999 33.49999999999858 L 320.0301131886001 36.92997170284854 L 323.46008489144936 50.64985851424956 L 337.17997170284985 47.21988681139844 L 333.7499999999999 33.49999999999858" stroke-opacity="0.6980392156862745" stroke-linecap="round" stroke-linejoin="round" stroke-miterlimit="10" stroke-width="1.5"/><path fill="none" stroke="rgb(0,0,0)" paint-order="fill stroke markers" d=" M 221.2499999999999 333.5000000000002 L 235.3921356237299 333.5000000000002 L 235.39213562373084 319.3578643762692 L 221.2499999999999 319.35786437627013 L 221.2499999999999 333.5000000000002" stroke-opacity="0.6980392156862745" stroke-linecap="round" stroke-linejoin="round" stroke-miterlimit="10" stroke-width="1.5"/><path fill="none" stroke="rgb(0,0,0)" paint-order="fill stroke markers" d=" M 33.749999999999886 333.5000000000002 L 408.7499999999999 333.5000000000002" stroke-opacity="1" stroke-linecap="round" stroke-linejoin="round" stroke-miterlimit="10" stroke-width="1.5"/><path fill="none" stroke="rgb(0,0,0)" paint-order="fill stroke markers" d=" M 333.7499999999999 33.49999999999858 L 408.7499999999999 333.5000000000002" stroke-opacity="1" stroke-linecap="round" stroke-linejoin="round" stroke-miterlimit="10" stroke-width="1.5"/><path fill="none" stroke="rgb(0,0,0)" paint-order="fill stroke markers" d=" M 33.749999999999886 333.5000000000002 L 333.7499999999999 33.49999999999858" stroke-opacity="1" stroke-linecap="round" stroke-linejoin="round" stroke-miterlimit="10" stroke-width="1.5"/><path fill="none" stroke="rgb(255,0,0)" paint-order="fill stroke markers" d=" M 221.2499999999999 220.9999999999996 L 221.2499999999999 333.5000000000002" stroke-opacity="1" stroke-linecap="round" stroke-linejoin="round" stroke-miterlimit="10" stroke-width="1.5"/><path fill="none" stroke="rgb(0,0,0)" paint-order="fill stroke markers" d=" M 33.74999999999994 108.49999999999898 L 408.7499999999999 333.5000000000002" stroke-opacity="1" stroke-linecap="round" stroke-linejoin="round" stroke-miterlimit="10" stroke-width="1.5"/><path fill="none" stroke="rgb(255,0,0)" paint-order="fill stroke markers" d=" M 333.7499999999999 258.4999999999998 L 333.7499999999999 33.49999999999858" stroke-opacity="1" stroke-linecap="round" stroke-linejoin="round" stroke-miterlimit="10" stroke-width="1.5"/><path fill="none" stroke="rgb(255,0,0)" paint-order="fill stroke markers" d=" M 33.74999999999994 108.49999999999898 L 33.749999999999886 333.5000000000002" stroke-opacity="1" stroke-linecap="round" stroke-linejoin="round" stroke-miterlimit="10" stroke-width="1.5"/><path fill="none" stroke="rgb(0,0,0)" paint-order="fill stroke markers" d=" M 33.74999999999994 108.49999999999898 L 333.7499999999999 33.49999999999858" stroke-opacity="1" stroke-linecap="round" stroke-linejoin="round" stroke-miterlimit="10" stroke-width="1.5"/><path fill="none" stroke="rgb(0,0,0)" paint-order="fill stroke markers" d=" M 33.749999999999886 333.5000000000002 L 333.7499999999999 258.4999999999998" stroke-opacity="1" stroke-linecap="round" stroke-linejoin="round" stroke-miterlimit="10" stroke-width="1.5"/><path fill="rgb(0,0,0)" stroke="none" paint-order="stroke fill markers" d=" M 36.749999999999886 333.5000000000002 C 36.749999999999886 335.1568542494926 35.40685424949227 336.5000000000002 33.749999999999886 336.5000000000002 C 32.0931457505075 336.5000000000002 30.749999999999886 335.1568542494926 30.749999999999886 333.5000000000002 C 30.749999999999886 331.84314575050786 32.0931457505075 330.5000000000002 33.749999999999886 330.5000000000002 C 35.40685424949227 330.5000000000002 36.749999999999886 331.84314575050786 36.749999999999886 333.5000000000002 Z" fill-opacity="1"/><path fill="rgb(0,0,0)" stroke="none" paint-order="stroke fill markers" d=" M 336.7499999999999 33.49999999999858 C 336.7499999999999 35.15685424949096 335.40685424949226 36.49999999999858 333.7499999999999 36.49999999999858 C 332.0931457505075 36.49999999999858 330.7499999999999 35.15685424949096 330.7499999999999 33.49999999999858 C 330.7499999999999 31.8431457505062 332.0931457505075 30.49999999999858 333.7499999999999 30.49999999999858 C 335.40685424949226 30.49999999999858 336.7499999999999 31.8431457505062 336.7499999999999 33.49999999999858 Z" fill-opacity="1"/><path fill="rgb(0,0,0)" stroke="none" paint-order="stroke fill markers" d=" M 411.7499999999999 333.5000000000002 C 411.7499999999999 335.1568542494926 410.40685424949226 336.5000000000002 408.7499999999999 336.5000000000002 C 407.0931457505075 336.5000000000002 405.7499999999999 335.1568542494926 405.7499999999999 333.5000000000002 C 405.7499999999999 331.84314575050786 407.0931457505075 330.5000000000002 408.7499999999999 330.5000000000002 C 410.40685424949226 330.5000000000002 411.7499999999999 331.84314575050786 411.7499999999999 333.5000000000002 Z" fill-opacity="1"/><path fill="rgb(255,0,0)" stroke="none" paint-order="stroke fill markers" d=" M 336.7499999999999 258.4999999999998 C 336.7499999999999 260.15685424949214 335.40685424949226 261.4999999999998 333.7499999999999 261.4999999999998 C 332.0931457505075 261.4999999999998 330.7499999999999 260.15685424949214 330.7499999999999 258.4999999999998 C 330.7499999999999 256.8431457505074 332.0931457505075 255.49999999999977 333.7499999999999 255.49999999999977 C 335.40685424949226 255.49999999999977 336.7499999999999 256.8431457505074 336.7499999999999 258.4999999999998 Z" fill-opacity="1"/><path fill="none" stroke="rgb(0,0,0)" paint-order="fill stroke markers" d=" M 336.7499999999999 258.4999999999998 C 336.7499999999999 260.15685424949214 335.40685424949226 261.4999999999998 333.7499999999999 261.4999999999998 C 332.0931457505075 261.4999999999998 330.7499999999999 260.15685424949214 330.7499999999999 258.4999999999998 C 330.7499999999999 256.8431457505074 332.0931457505075 255.49999999999977 333.7499999999999 255.49999999999977 C 335.40685424949226 255.49999999999977 336.7499999999999 256.8431457505074 336.7499999999999 258.4999999999998 Z" stroke-opacity="1" stroke-linecap="round" stroke-linejoin="round" stroke-miterlimit="10"/><path fill="rgb(255,0,0)" stroke="none" paint-order="stroke fill markers" d=" M 224.2499999999999 220.9999999999996 C 224.2499999999999 222.65685424949197 222.90685424949226 223.9999999999996 221.2499999999999 223.9999999999996 C 219.59314575050752 223.9999999999996 218.2499999999999 222.65685424949197 218.2499999999999 220.9999999999996 C 218.2499999999999 219.34314575050723 219.59314575050752 217.9999999999996 221.2499999999999 217.9999999999996 C 222.90685424949226 217.9999999999996 224.2499999999999 219.34314575050723 224.2499999999999 220.9999999999996 Z" fill-opacity="1"/><path fill="none" stroke="rgb(0,0,0)" paint-order="fill stroke markers" d=" M 224.2499999999999 220.9999999999996 C 224.2499999999999 222.65685424949197 222.90685424949226 223.9999999999996 221.2499999999999 223.9999999999996 C 219.59314575050752 223.9999999999996 218.2499999999999 222.65685424949197 218.2499999999999 220.9999999999996 C 218.2499999999999 219.34314575050723 219.59314575050752 217.9999999999996 221.2499999999999 217.9999999999996 C 222.90685424949226 217.9999999999996 224.2499999999999 219.34314575050723 224.2499999999999 220.9999999999996 Z" stroke-opacity="1" stroke-linecap="round" stroke-linejoin="round" stroke-miterlimit="10"/><path fill="rgb(255,0,0)" stroke="none" paint-order="stroke fill markers" d=" M 224.2499999999999 333.5000000000002 C 224.2499999999999 335.1568542494926 222.90685424949226 336.5000000000002 221.2499999999999 336.5000000000002 C 219.59314575050752 336.5000000000002 218.2499999999999 335.1568542494926 218.2499999999999 333.5000000000002 C 218.2499999999999 331.84314575050786 219.59314575050752 330.5000000000002 221.2499999999999 330.5000000000002 C 222.90685424949226 330.5000000000002 224.2499999999999 331.84314575050786 224.2499999999999 333.5000000000002 Z" fill-opacity="1"/><path fill="none" stroke="rgb(0,0,0)" paint-order="fill stroke markers" d=" M 224.2499999999999 333.5000000000002 C 224.2499999999999 335.1568542494926 222.90685424949226 336.5000000000002 221.2499999999999 336.5000000000002 C 219.59314575050752 336.5000000000002 218.2499999999999 335.1568542494926 218.2499999999999 333.5000000000002 C 218.2499999999999 331.84314575050786 219.59314575050752 330.5000000000002 221.2499999999999 330.5000000000002 C 222.90685424949226 330.5000000000002 224.2499999999999 331.84314575050786 224.2499999999999 333.5000000000002 Z" stroke-opacity="1" stroke-linecap="round" stroke-linejoin="round" stroke-miterlimit="10"/><path fill="rgb(0,0,0)" stroke="none" paint-order="stroke fill markers" d=" M 36.74999999999994 108.49999999999898 C 36.74999999999994 110.15685424949136 35.406854249492326 111.49999999999898 33.74999999999994 111.49999999999898 C 32.09314575050756 111.49999999999898 30.749999999999943 110.15685424949136 30.749999999999943 108.49999999999898 C 30.749999999999943 106.8431457505066 32.09314575050756 105.49999999999898 33.74999999999994 105.49999999999898 C 35.406854249492326 105.49999999999898 36.74999999999994 106.8431457505066 36.74999999999994 108.49999999999898 Z" fill-opacity="1"/><g transform="scale(19,19)"><g transform="translate(12,11.314578947368421)"><path fill="rgb(0,0,0)" stroke="none" paint-order="stroke fill markers" d=" M 0.74 -0.436 L 0.74 -0.436 Q 0.74 -0.281 0.63 -0.149 Q 0.531 -0.029 0.398 0.009000000000000001 Q 0.35100000000000003 0.022 0.305 0.022 Q 0.18 0.022 0.108 -0.066 Q 0.049 -0.138 0.049 -0.245 Q 0.049 -0.395 0.156 -0.529 Q 0.255 -0.65 0.388 -0.6900000000000001 Q 0.437 -0.705 0.485 -0.705 Q 0.612 -0.705 0.684 -0.613 Q 0.74 -0.541 0.74 -0.436 M 0.311 -0.004 L 0.311 -0.004 Q 0.405 -0.004 0.492 -0.088 Q 0.51 -0.105 0.525 -0.124 Q 0.623 -0.246 0.646 -0.41500000000000004 Q 0.651 -0.448 0.651 -0.47500000000000003 Q 0.651 -0.612 0.559 -0.661 Q 0.558 -0.661 0.557 -0.662 Q 0.521 -0.68 0.47900000000000004 -0.68 Q 0.385 -0.68 0.297 -0.599 Q 0.261 -0.5670000000000001 0.233 -0.524 Q 0.157 -0.40900000000000003 0.14400000000000002 -0.249 Q 0.14200000000000002 -0.231 0.14200000000000002 -0.217 Q 0.14200000000000002 -0.089 0.219 -0.033 Q 0.259 -0.004 0.311 -0.004 Z"/></g></g><g transform="scale(19,19)"><g transform="translate(0.6842105263157895,18.577736842105264)"><path fill="rgb(0,0,0)" stroke="none" paint-order="stroke fill markers" d=" M 0.179 -0.115 L 0.527 -0.6990000000000001 Q 0.537 -0.715 0.553 -0.716 Q 0.5680000000000001 -0.716 0.5700000000000001 -0.706 Q 0.5710000000000001 -0.7030000000000001 0.5720000000000001 -0.6920000000000001 L 0.633 -0.067 Q 0.636 -0.042 0.645 -0.037 L 0.646 -0.037 L 0.646 -0.037 L 0.646 -0.037 L 0.646 -0.037 L 0.646 -0.036000000000000004 Q 0.658 -0.031 0.6980000000000001 -0.031 Q 0.72 -0.031 0.721 -0.02 Q 0.721 0 0.7030000000000001 0 L 0.591 -0.003 L 0.59 -0.003 L 0.466 0 L 0.465 0 Q 0.451 0 0.451 -0.011 Q 0.459 -0.03 0.47500000000000003 -0.031 Q 0.547 -0.031 0.547 -0.064 Q 0.547 -0.063 0.531 -0.231 L 0.28 -0.231 L 0.20400000000000001 -0.10300000000000001 Q 0.19 -0.078 0.19 -0.066 Q 0.19 -0.035 0.23700000000000002 -0.031 Q 0.253 -0.031 0.253 -0.019 Q 0.253 0 0.234 0 L 0.138 -0.003 L 0.134 -0.003 L 0.05 0 L 0.048 0 Q 0.035 0 0.035 -0.011 Q 0.035 -0.029 0.05 -0.03 L 0.05 -0.031 L 0.056 -0.031 Q 0.11900000000000001 -0.035 0.159 -0.085 Q 0.169 -0.098 0.179 -0.115 M 0.299 -0.262 L 0.528 -0.262 L 0.496 -0.592 L 0.299 -0.262 Z"/></g></g><g transform="scale(19,19)"><g transform="translate(17.68421052631579,1.5251052631578947)"><path fill="rgb(0,0,0)" stroke="none" paint-order="stroke fill markers" d=" M 0.16 -0.078 L 0.294 -0.615 Q 0.298 -0.631 0.298 -0.634 Q 0.298 -0.646 0.28200000000000003 -0.649 L 0.281 -0.649 L 0.28 -0.649 Q 0.277 -0.649 0.271 -0.65 Q 0.254 -0.652 0.233 -0.652 Q 0.20700000000000002 -0.652 0.20500000000000002 -0.663 Q 0.20500000000000002 -0.681 0.22 -0.683 L 0.221 -0.683 L 0.222 -0.683 L 0.234 -0.683 L 0.5700000000000001 -0.683 Q 0.685 -0.683 0.734 -0.615 Q 0.756 -0.583 0.756 -0.545 Q 0.756 -0.464 0.666 -0.404 Q 0.665 -0.404 0.664 -0.403 Q 0.611 -0.369 0.547 -0.357 Q 0.649 -0.34500000000000003 0.687 -0.277 Q 0.7020000000000001 -0.249 0.7020000000000001 -0.216 Q 0.7020000000000001 -0.14300000000000002 0.632 -0.079 L 0.631 -0.078 Q 0.545 0 0.426 0 L 0.069 0 Q 0.044 0 0.042 -0.011 Q 0.042 -0.029 0.057 -0.031 L 0.069 -0.031 Q 0.134 -0.031 0.147 -0.045 Q 0.153 -0.052000000000000005 0.159 -0.073 Q 0.159 -0.074 0.16 -0.078 M 0.311 -0.366 L 0.457 -0.366 Q 0.556 -0.366 0.62 -0.438 Q 0.665 -0.489 0.665 -0.549 Q 0.665 -0.622 0.605 -0.644 Q 0.584 -0.652 0.556 -0.652 L 0.427 -0.652 Q 0.391 -0.652 0.383 -0.642 L 0.383 -0.642 L 0.383 -0.641 L 0.382 -0.641 L 0.382 -0.64 Q 0.378 -0.634 0.373 -0.614 L 0.311 -0.366 M 0.266 -0.031 L 0.402 -0.031 Q 0.498 -0.031 0.561 -0.10300000000000001 Q 0.609 -0.159 0.609 -0.227 Q 0.609 -0.3 0.557 -0.33 Q 0.531 -0.34400000000000003 0.494 -0.34400000000000003 L 0.305 -0.34400000000000003 L 0.23600000000000002 -0.065 Q 0.231 -0.047 0.231 -0.042 Q 0.231 -0.034 0.24 -0.032 L 0.24 -0.032 L 0.24 -0.032 L 0.244 -0.032 Q 0.25 -0.031 0.266 -0.031 Z"/></g></g><g transform="scale(19,19)"><g transform="translate(21.894736842105264,18.63036842105263)"><path fill="rgb(0,0,0)" stroke="none" paint-order="stroke fill markers" d=" M 0.76 -0.6950000000000001 L 0.6970000000000001 -0.44 Q 0.6920000000000001 -0.422 0.687 -0.421 L 0.686 -0.42 L 0.679 -0.42 Q 0.664 -0.42 0.664 -0.43 L 0.667 -0.47900000000000004 L 0.667 -0.481 Q 0.667 -0.605 0.589 -0.652 L 0.588 -0.653 Q 0.553 -0.674 0.506 -0.674 Q 0.4 -0.674 0.305 -0.595 Q 0.281 -0.5760000000000001 0.262 -0.553 Q 0.167 -0.442 0.145 -0.271 Q 0.14100000000000001 -0.24 0.14100000000000001 -0.217 Q 0.14100000000000001 -0.077 0.247 -0.028 Q 0.28800000000000003 -0.009000000000000001 0.337 -0.009000000000000001 Q 0.431 -0.009000000000000001 0.521 -0.082 Q 0.591 -0.14100000000000001 0.622 -0.24 Q 0.624 -0.25 0.635 -0.25 Q 0.647 -0.25 0.647 -0.24 Q 0.647 -0.222 0.624 -0.176 Q 0.593 -0.113 0.537 -0.064 Q 0.438 0.022 0.321 0.022 Q 0.193 0.022 0.116 -0.066 Q 0.05 -0.14100000000000001 0.05 -0.252 Q 0.05 -0.401 0.159 -0.531 Q 0.26 -0.652 0.398 -0.6910000000000001 Q 0.449 -0.705 0.498 -0.705 Q 0.607 -0.705 0.664 -0.616 L 0.734 -0.6930000000000001 Q 0.746 -0.705 0.749 -0.705 Q 0.76 -0.705 0.76 -0.6950000000000001 Z"/></g></g><g transform="scale(19,19)"><g transform="translate(12,18.683)"><path fill="rgb(0,0,0)" stroke="none" paint-order="stroke fill markers" d=" M 0.926 -0.606 L 0.793 -0.073 Q 0.788 -0.055 0.788 -0.049 Q 0.788 -0.032 0.835 -0.031 L 0.836 -0.031 L 0.853 -0.031 Q 0.879 -0.031 0.881 -0.02 Q 0.881 0 0.862 0 L 0.738 -0.003 L 0.737 -0.003 L 0.614 0 L 0.613 0 Q 0.598 0 0.598 -0.012 Q 0.598 -0.029 0.614 -0.031 L 0.626 -0.031 Q 0.6910000000000001 -0.031 0.704 -0.045 Q 0.71 -0.052000000000000005 0.716 -0.073 Q 0.716 -0.074 0.717 -0.078 L 0.86 -0.651 L 0.859 -0.651 L 0.455 -0.018000000000000002 Q 0.443 -0.001 0.433 0 Q 0.422 0 0.418 -0.023 L 0.332 -0.643 L 0.331 -0.643 L 0.195 -0.098 Q 0.191 -0.083 0.191 -0.075 Q 0.191 -0.038 0.23900000000000002 -0.032 Q 0.248 -0.031 0.259 -0.031 Q 0.277 -0.031 0.277 -0.02 Q 0.277 0 0.259 0 L 0.159 -0.003 L 0.156 -0.003 L 0.057 0 L 0.056 0 Q 0.042 0 0.042 -0.012 Q 0.042 -0.031 0.06 -0.031 Q 0.139 -0.034 0.16 -0.081 Q 0.164 -0.091 0.168 -0.106 L 0.295 -0.615 Q 0.299 -0.631 0.299 -0.634 Q 0.299 -0.646 0.28300000000000003 -0.649 L 0.28200000000000003 -0.649 L 0.28200000000000003 -0.649 Q 0.28 -0.65 0.277 -0.65 Q 0.253 -0.652 0.234 -0.652 Q 0.20800000000000002 -0.652 0.20600000000000002 -0.66 Q 0.20500000000000002 -0.662 0.20500000000000002 -0.664 Q 0.20500000000000002 -0.681 0.222 -0.683 L 0.222 -0.683 L 0.23500000000000001 -0.683 L 0.372 -0.683 Q 0.395 -0.683 0.399 -0.678 L 0.399 -0.677 Q 0.401 -0.673 0.403 -0.66 L 0.481 -0.094 L 0.846 -0.664 Q 0.857 -0.681 0.866 -0.682 Q 0.87 -0.683 0.885 -0.683 L 1.0170000000000001 -0.683 Q 1.042 -0.683 1.044 -0.672 Q 1.044 -0.655 1.03 -0.653 Q 1.025 -0.652 1.012 -0.652 Q 0.9490000000000001 -0.652 0.937 -0.636 L 0.936 -0.635 L 0.936 -0.634 Q 0.931 -0.627 0.926 -0.606 Z"/></g></g><g transform="scale(19,19)"><g transform="translate(17.789473684210527,14.472473684210525)"><path fill="rgb(0,0,0)" stroke="none" paint-order="stroke fill markers" d=" M 0.763 -0.606 L 0.628 -0.066 L 0.625 -0.049 Q 0.625 -0.032 0.672 -0.031 L 0.673 -0.031 L 0.6900000000000001 -0.031 Q 0.716 -0.031 0.718 -0.02 Q 0.718 0 0.6980000000000001 0 L 0.634 -0.002 L 0.633 -0.002 L 0.5710000000000001 -0.003 L 0.5690000000000001 -0.003 L 0.443 0 L 0.442 0 Q 0.428 0 0.428 -0.011 Q 0.428 -0.029 0.442 -0.031 L 0.442 -0.031 L 0.442 -0.031 L 0.452 -0.031 Q 0.515 -0.031 0.529 -0.041 L 0.53 -0.042 Q 0.538 -0.049 0.543 -0.064 L 0.612 -0.34 L 0.307 -0.34 L 0.23900000000000002 -0.066 L 0.23600000000000002 -0.049 Q 0.23600000000000002 -0.032 0.28200000000000003 -0.031 L 0.28200000000000003 -0.031 L 0.28200000000000003 -0.031 L 0.301 -0.031 Q 0.327 -0.031 0.329 -0.02 Q 0.329 0 0.309 0 L 0.245 -0.002 L 0.244 -0.002 L 0.182 -0.003 L 0.18 -0.003 L 0.054 0 L 0.053 0 Q 0.039 0 0.039 -0.011 Q 0.039 -0.029 0.054 -0.031 L 0.066 -0.031 Q 0.131 -0.031 0.14400000000000002 -0.045 Q 0.15 -0.052000000000000005 0.156 -0.073 Q 0.156 -0.074 0.157 -0.078 L 0.291 -0.615 Q 0.295 -0.631 0.295 -0.634 Q 0.295 -0.646 0.279 -0.649 L 0.278 -0.649 L 0.277 -0.649 Q 0.274 -0.649 0.268 -0.65 Q 0.251 -0.652 0.23 -0.652 Q 0.20400000000000001 -0.652 0.202 -0.663 Q 0.202 -0.683 0.221 -0.683 L 0.34900000000000003 -0.68 L 0.35000000000000003 -0.68 L 0.47700000000000004 -0.683 L 0.47800000000000004 -0.683 Q 0.492 -0.683 0.492 -0.672 Q 0.492 -0.655 0.47800000000000004 -0.653 L 0.47700000000000004 -0.653 L 0.47700000000000004 -0.653 L 0.47700000000000004 -0.653 L 0.47600000000000003 -0.652 L 0.458 -0.652 Q 0.397 -0.652 0.385 -0.635 L 0.384 -0.635 L 0.384 -0.634 Q 0.379 -0.627 0.374 -0.606 L 0.315 -0.371 L 0.62 -0.371 L 0.68 -0.615 Q 0.684 -0.632 0.684 -0.634 Q 0.684 -0.646 0.668 -0.649 Q 0.665 -0.649 0.657 -0.65 Q 0.64 -0.652 0.619 -0.652 Q 0.593 -0.652 0.591 -0.663 Q 0.591 -0.683 0.61 -0.683 L 0.738 -0.68 L 0.739 -0.68 L 0.866 -0.683 L 0.867 -0.683 Q 0.881 -0.683 0.881 -0.672 Q 0.881 -0.655 0.867 -0.653 L 0.866 -0.653 Q 0.861 -0.652 0.847 -0.652 Q 0.786 -0.652 0.774 -0.636 Q 0.769 -0.629 0.763 -0.606 Z"/></g></g><g transform="scale(19,19)"><g transform="translate(0.7894736842105263,5.261947368421052)"><path fill="rgb(0,0,0)" stroke="none" paint-order="stroke fill markers" d=" M 0.438 -0.006 L 0.438 -0.006 Q 0.448 0.073 0.47500000000000003 0.089 Q 0.488 0.097 0.509 0.097 Q 0.558 0.097 0.596 0.054 Q 0.616 0.032 0.626 0.001 Q 0.63 -0.01 0.638 -0.01 Q 0.649 -0.01 0.649 0 Q 0.649 0.019 0.625 0.07200000000000001 Q 0.5690000000000001 0.194 0.482 0.194 Q 0.399 0.194 0.399 0.084 Q 0.399 0.069 0.403 0.007 Q 0.35000000000000003 0.022 0.305 0.022 Q 0.18 0.022 0.108 -0.066 Q 0.049 -0.138 0.049 -0.245 Q 0.049 -0.395 0.156 -0.529 Q 0.255 -0.65 0.388 -0.6900000000000001 Q 0.437 -0.705 0.485 -0.705 Q 0.612 -0.705 0.684 -0.613 Q 0.74 -0.541 0.74 -0.436 Q 0.74 -0.28200000000000003 0.63 -0.149 Q 0.546 -0.047 0.438 -0.006 M 0.249 -0.014 L 0.243 -0.037 L 0.243 -0.046 Q 0.243 -0.095 0.28700000000000003 -0.128 Q 0.314 -0.148 0.34500000000000003 -0.148 Q 0.41600000000000004 -0.148 0.432 -0.049 Q 0.432 -0.046 0.433 -0.04 Q 0.5660000000000001 -0.114 0.624 -0.305 Q 0.652 -0.394 0.652 -0.468 Q 0.652 -0.598 0.5720000000000001 -0.652 L 0.5710000000000001 -0.653 L 0.5710000000000001 -0.653 Q 0.531 -0.68 0.47900000000000004 -0.68 Q 0.384 -0.68 0.295 -0.596 Q 0.265 -0.5680000000000001 0.23900000000000002 -0.532 Q 0.161 -0.42 0.14100000000000001 -0.266 Q 0.137 -0.23600000000000002 0.137 -0.213 Q 0.137 -0.08 0.223 -0.027 Q 0.23500000000000001 -0.02 0.249 -0.014 M 0.311 -0.003 L 0.311 -0.003 Q 0.352 -0.003 0.395 -0.021 Q 0.405 -0.034 0.406 -0.041 Q 0.406 -0.117 0.36 -0.125 L 0.359 -0.125 Q 0.353 -0.126 0.34500000000000003 -0.126 Q 0.304 -0.126 0.278 -0.088 Q 0.265 -0.067 0.265 -0.046 Q 0.265 -0.003 0.311 -0.003 Z"/></g></g></g></g></svg>