<svg version="1.1" xmlns="http://www.w3.org/2000/svg" xmlns:xlink="http://www.w3.org/1999/xlink" width="422" height="361"><defs><clipPath id="XHdKVLZyOSAN"><path fill="none" stroke="none" d=" M 0 0 L 422 0 L 422 361 L 0 361 L 0 0 Z"/></clipPath></defs><g transform="scale(1,1)" clip-path="url(#XHdKVLZyOSAN)"><g><rect fill="rgb(255,255,255)" stroke="none" x="0" y="0" width="422" height="361" fill-opacity="1"/><path fill="none" stroke="rgb(0,0,0)" paint-order="fill stroke markers" d=" M 210.24999999999986 229.49999999999886 C 218.85860816146948 229.49999999999886 226.50138503359426 223.99139810258305 229.2236659610101 215.82455532033538 L 210.24999999999986 209.49999999999852 Z" stroke-opacity="1" stroke-linecap="round" stroke-linejoin="round" stroke-miterlimit="10"/><path fill="none" stroke="rgb(0,0,0)" paint-order="fill stroke markers" d=" M 322.74999999999983 231.99999999999883 C 316.2935438788976 231.99999999999883 310.561461224804 236.13145142306067 308.5197505292421 242.2565835097464 L 322.74999999999983 246.9999999999991 Z" stroke-opacity="1" stroke-linecap="round" stroke-linejoin="round" stroke-miterlimit="10" stroke-width="1.5"/><path fill="none" stroke="rgb(0,0,0)" paint-order="fill stroke markers" d=" M 247.5263340389896 221.92544467966195 C 244.56202350882 230.8183762701708 248.17196938612 240.5769892110523 256.21008489144936 245.39985851424998 L 266.4999999999999 228.2499999999988 Z" stroke-opacity="1" stroke-linecap="round" stroke-linejoin="round" stroke-miterlimit="10" stroke-width="1.5"/><path fill="none" stroke="rgb(0,0,0)" paint-order="fill stroke markers" d=" M 252.7440921782674 223.6646973927546 C 250.59496704389448 230.11207279587353 253.21217780493694 237.18706717801257 259.0398115463007 240.68364742283092" stroke-opacity="1" stroke-linecap="round" stroke-linejoin="round" stroke-miterlimit="10" stroke-width="1.5"/><path fill="none" stroke="rgb(0,0,0)" paint-order="fill stroke markers" d=" M 285.47366596101017 234.57455532033566 C 288.4379764911797 225.6816237298268 284.8280306138797 215.92301078894533 276.7899151085504 211.10014148574766 L 266.4999999999999 228.2499999999988 Z" stroke-opacity="1" stroke-linecap="round" stroke-linejoin="round" stroke-miterlimit="10" stroke-width="1.5"/><path fill="none" stroke="rgb(0,0,0)" paint-order="fill stroke markers" d=" M 280.2559078217323 232.83530260724305 C 282.40503295610523 226.38792720412414 279.78782219506274 219.31293282198504 273.960188453699 215.8163525771667" stroke-opacity="1" stroke-linecap="round" stroke-linejoin="round" stroke-miterlimit="10" stroke-width="1.5"/><path fill="none" stroke="rgb(0,0,0)" paint-order="fill stroke markers" d=" M 22.749999999999943 322.00000000000034 L 397.7499999999998 322.00000000000034" stroke-opacity="1" stroke-linecap="round" stroke-linejoin="round" stroke-miterlimit="10" stroke-width="1.5"/><path fill="none" stroke="rgb(0,0,0)" paint-order="fill stroke markers" d=" M 322.74999999999983 21.999999999995453 L 397.7499999999998 322.00000000000034" stroke-opacity="1" stroke-linecap="round" stroke-linejoin="round" stroke-miterlimit="10" stroke-width="1.5"/><path fill="none" stroke="rgb(0,0,0)" paint-order="fill stroke markers" d=" M 22.749999999999943 322.00000000000034 L 322.74999999999983 21.999999999995453" stroke-opacity="1" stroke-linecap="round" stroke-linejoin="round" stroke-miterlimit="10" stroke-width="1.5"/><path fill="none" stroke="rgb(0,0,0)" paint-order="fill stroke markers" d=" M 322.74999999999983 21.999999999995453 L 322.74999999999983 322.00000000000034" stroke-opacity="1" stroke-linecap="round" stroke-linejoin="round" stroke-miterlimit="10" stroke-width="1.5"/><path fill="none" stroke="rgb(0,0,0)" paint-order="fill stroke markers" d=" M 322.74999999999983 134.49999999999727 L 210.2499999999999 322.00000000000034" stroke-opacity="1" stroke-linecap="round" stroke-linejoin="round" stroke-miterlimit="10" stroke-width="1.5"/><path fill="none" stroke="rgb(0,0,0)" paint-order="fill stroke markers" d=" M 210.24999999999986 209.49999999999852 L 210.2499999999999 322.00000000000034" stroke-opacity="1" stroke-linecap="round" stroke-linejoin="round" stroke-miterlimit="10" stroke-width="1.5"/><path fill="none" stroke="rgb(0,0,0)" paint-order="fill stroke markers" d=" M 210.24999999999986 209.49999999999852 L 322.74999999999983 246.9999999999991" stroke-opacity="1" stroke-linecap="round" stroke-linejoin="round" stroke-miterlimit="10" stroke-width="1.5"/><path fill="rgb(0,0,0)" stroke="none" paint-order="stroke fill markers" d=" M 25.749999999999943 322.00000000000034 C 25.749999999999943 323.6568542494927 24.406854249492323 325.00000000000034 22.749999999999943 325.00000000000034 C 21.093145750507563 325.00000000000034 19.749999999999943 323.6568542494927 19.749999999999943 322.00000000000034 C 19.749999999999943 320.343145750508 21.093145750507563 319.00000000000034 22.749999999999943 319.00000000000034 C 24.406854249492323 319.00000000000034 25.749999999999943 320.343145750508 25.749999999999943 322.00000000000034 Z" fill-opacity="1"/><path fill="rgb(0,0,0)" stroke="none" paint-order="stroke fill markers" d=" M 325.74999999999983 21.999999999995453 C 325.74999999999983 23.656854249487832 324.4068542494922 24.999999999995453 322.74999999999983 24.999999999995453 C 321.09314575050746 24.999999999995453 319.74999999999983 23.656854249487832 319.74999999999983 21.999999999995453 C 319.74999999999983 20.343145750503073 321.09314575050746 18.999999999995453 322.74999999999983 18.999999999995453 C 324.4068542494922 18.999999999995453 325.74999999999983 20.343145750503073 325.74999999999983 21.999999999995453 Z" fill-opacity="1"/><path fill="rgb(0,0,0)" stroke="none" paint-order="stroke fill markers" d=" M 400.7499999999998 322.00000000000034 C 400.7499999999998 323.6568542494927 399.40685424949214 325.00000000000034 397.7499999999998 325.00000000000034 C 396.0931457505074 325.00000000000034 394.7499999999998 323.6568542494927 394.7499999999998 322.00000000000034 C 394.7499999999998 320.343145750508 396.0931457505074 319.00000000000034 397.7499999999998 319.00000000000034 C 399.40685424949214 319.00000000000034 400.7499999999998 320.343145750508 400.7499999999998 322.00000000000034 Z" fill-opacity="1"/><path fill="rgb(0,255,0)" stroke="none" paint-order="stroke fill markers" d=" M 325.74999999999983 246.9999999999991 C 325.74999999999983 248.65685424949146 324.4068542494922 249.9999999999991 322.74999999999983 249.9999999999991 C 321.09314575050746 249.9999999999991 319.74999999999983 248.65685424949146 319.74999999999983 246.9999999999991 C 319.74999999999983 245.34314575050672 321.09314575050746 243.9999999999991 322.74999999999983 243.9999999999991 C 324.4068542494922 243.9999999999991 325.74999999999983 245.34314575050672 325.74999999999983 246.9999999999991 Z" fill-opacity="1"/><path fill="none" stroke="rgb(0,0,0)" paint-order="fill stroke markers" d=" M 325.74999999999983 246.9999999999991 C 325.74999999999983 248.65685424949146 324.4068542494922 249.9999999999991 322.74999999999983 249.9999999999991 C 321.09314575050746 249.9999999999991 319.74999999999983 248.65685424949146 319.74999999999983 246.9999999999991 C 319.74999999999983 245.34314575050672 321.09314575050746 243.9999999999991 322.74999999999983 243.9999999999991 C 324.4068542494922 243.9999999999991 325.74999999999983 245.34314575050672 325.74999999999983 246.9999999999991 Z" stroke-opacity="1" stroke-linecap="round" stroke-linejoin="round" stroke-miterlimit="10"/><path fill="rgb(255,0,0)" stroke="none" paint-order="stroke fill markers" d=" M 213.2499999999999 322.00000000000034 C 213.2499999999999 323.6568542494927 211.90685424949226 325.00000000000034 210.2499999999999 325.00000000000034 C 208.59314575050752 325.00000000000034 207.2499999999999 323.6568542494927 207.2499999999999 322.00000000000034 C 207.2499999999999 320.343145750508 208.59314575050752 319.00000000000034 210.2499999999999 319.00000000000034 C 211.90685424949226 319.00000000000034 213.2499999999999 320.343145750508 213.2499999999999 322.00000000000034 Z" fill-opacity="1"/><path fill="none" stroke="rgb(0,0,0)" paint-order="fill stroke markers" d=" M 213.2499999999999 322.00000000000034 C 213.2499999999999 323.6568542494927 211.90685424949226 325.00000000000034 210.2499999999999 325.00000000000034 C 208.59314575050752 325.00000000000034 207.2499999999999 323.6568542494927 207.2499999999999 322.00000000000034 C 207.2499999999999 320.343145750508 208.59314575050752 319.00000000000034 210.2499999999999 319.00000000000034 C 211.90685424949226 319.00000000000034 213.2499999999999 320.343145750508 213.2499999999999 322.00000000000034 Z" stroke-opacity="1" stroke-linecap="round" stroke-linejoin="round" stroke-miterlimit="10"/><path fill="rgb(255,0,0)" stroke="none" paint-order="stroke fill markers" d=" M 325.74999999999983 134.49999999999727 C 325.74999999999983 136.15685424948964 324.4068542494922 137.49999999999727 322.74999999999983 137.49999999999727 C 321.09314575050746 137.49999999999727 319.74999999999983 136.15685424948964 319.74999999999983 134.49999999999727 C 319.74999999999983 132.8431457505049 321.09314575050746 131.49999999999727 322.74999999999983 131.49999999999727 C 324.4068542494922 131.49999999999727 325.74999999999983 132.8431457505049 325.74999999999983 134.49999999999727 Z" fill-opacity="1"/><path fill="none" stroke="rgb(0,0,0)" paint-order="fill stroke markers" d=" M 325.74999999999983 134.49999999999727 C 325.74999999999983 136.15685424948964 324.4068542494922 137.49999999999727 322.74999999999983 137.49999999999727 C 321.09314575050746 137.49999999999727 319.74999999999983 136.15685424948964 319.74999999999983 134.49999999999727 C 319.74999999999983 132.8431457505049 321.09314575050746 131.49999999999727 322.74999999999983 131.49999999999727 C 324.4068542494922 131.49999999999727 325.74999999999983 132.8431457505049 325.74999999999983 134.49999999999727 Z" stroke-opacity="1" stroke-linecap="round" stroke-linejoin="round" stroke-miterlimit="10"/><path fill="rgb(0,255,0)" stroke="none" paint-order="stroke fill markers" d=" M 213.24999999999986 209.49999999999852 C 213.24999999999986 211.1568542494909 211.90685424949223 212.49999999999852 210.24999999999986 212.49999999999852 C 208.5931457505075 212.49999999999852 207.24999999999986 211.1568542494909 207.24999999999986 209.49999999999852 C 207.24999999999986 207.84314575050615 208.5931457505075 206.49999999999852 210.24999999999986 206.49999999999852 C 211.90685424949223 206.49999999999852 213.24999999999986 207.84314575050615 213.24999999999986 209.49999999999852 Z" fill-opacity="1"/><path fill="none" stroke="rgb(0,0,0)" paint-order="fill stroke markers" d=" M 213.24999999999986 209.49999999999852 C 213.24999999999986 211.1568542494909 211.90685424949223 212.49999999999852 210.24999999999986 212.49999999999852 C 208.5931457505075 212.49999999999852 207.24999999999986 211.1568542494909 207.24999999999986 209.49999999999852 C 207.24999999999986 207.84314575050615 208.5931457505075 206.49999999999852 210.24999999999986 206.49999999999852 C 211.90685424949223 206.49999999999852 213.24999999999986 207.84314575050615 213.24999999999986 209.49999999999852 Z" stroke-opacity="1" stroke-linecap="round" stroke-linejoin="round" stroke-miterlimit="10"/><path fill="rgb(255,0,255)" stroke="none" paint-order="stroke fill markers" d=" M 269.4999999999999 228.2499999999988 C 269.4999999999999 229.90685424949118 268.15685424949226 231.2499999999988 266.4999999999999 231.2499999999988 C 264.8431457505075 231.2499999999988 263.4999999999999 229.90685424949118 263.4999999999999 228.2499999999988 C 263.4999999999999 226.59314575050644 264.8431457505075 225.2499999999988 266.4999999999999 225.2499999999988 C 268.15685424949226 225.2499999999988 269.4999999999999 226.59314575050644 269.4999999999999 228.2499999999988 Z" fill-opacity="1"/><path fill="none" stroke="rgb(0,0,0)" paint-order="fill stroke markers" d=" M 269.4999999999999 228.2499999999988 C 269.4999999999999 229.90685424949118 268.15685424949226 231.2499999999988 266.4999999999999 231.2499999999988 C 264.8431457505075 231.2499999999988 263.4999999999999 229.90685424949118 263.4999999999999 228.2499999999988 C 263.4999999999999 226.59314575050644 264.8431457505075 225.2499999999988 266.4999999999999 225.2499999999988 C 268.15685424949226 225.2499999999988 269.4999999999999 226.59314575050644 269.4999999999999 228.2499999999988 Z" stroke-opacity="1" stroke-linecap="round" stroke-linejoin="round" stroke-miterlimit="10"/><g transform="scale(19,19)"><g transform="translate(0.10526315789473684,17.99878947368421)"><path fill="rgb(0,0,0)" stroke="none" paint-order="stroke fill markers" d=" M 0.179 -0.115 L 0.527 -0.6990000000000001 Q 0.537 -0.715 0.553 -0.716 Q 0.5680000000000001 -0.716 0.5700000000000001 -0.706 Q 0.5710000000000001 -0.7030000000000001 0.5720000000000001 -0.6920000000000001 L 0.633 -0.067 Q 0.636 -0.042 0.645 -0.037 L 0.646 -0.037 L 0.646 -0.037 L 0.646 -0.037 L 0.646 -0.037 L 0.646 -0.036000000000000004 Q 0.658 -0.031 0.6980000000000001 -0.031 Q 0.72 -0.031 0.721 -0.02 Q 0.721 0 0.7030000000000001 0 L 0.591 -0.003 L 0.59 -0.003 L 0.466 0 L 0.465 0 Q 0.451 0 0.451 -0.011 Q 0.459 -0.03 0.47500000000000003 -0.031 Q 0.547 -0.031 0.547 -0.064 Q 0.547 -0.063 0.531 -0.231 L 0.28 -0.231 L 0.20400000000000001 -0.10300000000000001 Q 0.19 -0.078 0.19 -0.066 Q 0.19 -0.035 0.23700000000000002 -0.031 Q 0.253 -0.031 0.253 -0.019 Q 0.253 0 0.234 0 L 0.138 -0.003 L 0.134 -0.003 L 0.05 0 L 0.048 0 Q 0.035 0 0.035 -0.011 Q 0.035 -0.029 0.05 -0.03 L 0.05 -0.031 L 0.056 -0.031 Q 0.11900000000000001 -0.035 0.159 -0.085 Q 0.169 -0.098 0.179 -0.115 M 0.299 -0.262 L 0.528 -0.262 L 0.496 -0.592 L 0.299 -0.262 Z"/></g></g><g transform="scale(19,19)"><g transform="translate(17.105263157894736,0.8935263157894737)"><path fill="rgb(0,0,0)" stroke="none" paint-order="stroke fill markers" d=" M 0.16 -0.078 L 0.294 -0.615 Q 0.298 -0.631 0.298 -0.634 Q 0.298 -0.646 0.28200000000000003 -0.649 L 0.281 -0.649 L 0.28 -0.649 Q 0.277 -0.649 0.271 -0.65 Q 0.254 -0.652 0.233 -0.652 Q 0.20700000000000002 -0.652 0.20500000000000002 -0.663 Q 0.20500000000000002 -0.681 0.22 -0.683 L 0.221 -0.683 L 0.222 -0.683 L 0.234 -0.683 L 0.5700000000000001 -0.683 Q 0.685 -0.683 0.734 -0.615 Q 0.756 -0.583 0.756 -0.545 Q 0.756 -0.464 0.666 -0.404 Q 0.665 -0.404 0.664 -0.403 Q 0.611 -0.369 0.547 -0.357 Q 0.649 -0.34500000000000003 0.687 -0.277 Q 0.7020000000000001 -0.249 0.7020000000000001 -0.216 Q 0.7020000000000001 -0.14300000000000002 0.632 -0.079 L 0.631 -0.078 Q 0.545 0 0.426 0 L 0.069 0 Q 0.044 0 0.042 -0.011 Q 0.042 -0.029 0.057 -0.031 L 0.069 -0.031 Q 0.134 -0.031 0.147 -0.045 Q 0.153 -0.052000000000000005 0.159 -0.073 Q 0.159 -0.074 0.16 -0.078 M 0.311 -0.366 L 0.457 -0.366 Q 0.556 -0.366 0.62 -0.438 Q 0.665 -0.489 0.665 -0.549 Q 0.665 -0.622 0.605 -0.644 Q 0.584 -0.652 0.556 -0.652 L 0.427 -0.652 Q 0.391 -0.652 0.383 -0.642 L 0.383 -0.642 L 0.383 -0.641 L 0.382 -0.641 L 0.382 -0.64 Q 0.378 -0.634 0.373 -0.614 L 0.311 -0.366 M 0.266 -0.031 L 0.402 -0.031 Q 0.498 -0.031 0.561 -0.10300000000000001 Q 0.609 -0.159 0.609 -0.227 Q 0.609 -0.3 0.557 -0.33 Q 0.531 -0.34400000000000003 0.494 -0.34400000000000003 L 0.305 -0.34400000000000003 L 0.23600000000000002 -0.065 Q 0.231 -0.047 0.231 -0.042 Q 0.231 -0.034 0.24 -0.032 L 0.24 -0.032 L 0.24 -0.032 L 0.244 -0.032 Q 0.25 -0.031 0.266 -0.031 Z"/></g></g><g transform="scale(19,19)"><g transform="translate(21.31578947368421,17.99878947368421)"><path fill="rgb(0,0,0)" stroke="none" paint-order="stroke fill markers" d=" M 0.76 -0.6950000000000001 L 0.6970000000000001 -0.44 Q 0.6920000000000001 -0.422 0.687 -0.421 L 0.686 -0.42 L 0.679 -0.42 Q 0.664 -0.42 0.664 -0.43 L 0.667 -0.47900000000000004 L 0.667 -0.481 Q 0.667 -0.605 0.589 -0.652 L 0.588 -0.653 Q 0.553 -0.674 0.506 -0.674 Q 0.4 -0.674 0.305 -0.595 Q 0.281 -0.5760000000000001 0.262 -0.553 Q 0.167 -0.442 0.145 -0.271 Q 0.14100000000000001 -0.24 0.14100000000000001 -0.217 Q 0.14100000000000001 -0.077 0.247 -0.028 Q 0.28800000000000003 -0.009000000000000001 0.337 -0.009000000000000001 Q 0.431 -0.009000000000000001 0.521 -0.082 Q 0.591 -0.14100000000000001 0.622 -0.24 Q 0.624 -0.25 0.635 -0.25 Q 0.647 -0.25 0.647 -0.24 Q 0.647 -0.222 0.624 -0.176 Q 0.593 -0.113 0.537 -0.064 Q 0.438 0.022 0.321 0.022 Q 0.193 0.022 0.116 -0.066 Q 0.05 -0.14100000000000001 0.05 -0.252 Q 0.05 -0.401 0.159 -0.531 Q 0.26 -0.652 0.398 -0.6910000000000001 Q 0.449 -0.705 0.498 -0.705 Q 0.607 -0.705 0.664 -0.616 L 0.734 -0.6930000000000001 Q 0.746 -0.705 0.749 -0.705 Q 0.76 -0.705 0.76 -0.6950000000000001 Z"/></g></g><g transform="scale(19,19)"><g transform="translate(17.210526315789473,13.893526315789474)"><path fill="rgb(0,0,0)" stroke="none" paint-order="stroke fill markers" d=" M 0.763 -0.606 L 0.628 -0.066 L 0.625 -0.049 Q 0.625 -0.032 0.672 -0.031 L 0.673 -0.031 L 0.6900000000000001 -0.031 Q 0.716 -0.031 0.718 -0.02 Q 0.718 0 0.6980000000000001 0 L 0.634 -0.002 L 0.633 -0.002 L 0.5710000000000001 -0.003 L 0.5690000000000001 -0.003 L 0.443 0 L 0.442 0 Q 0.428 0 0.428 -0.011 Q 0.428 -0.029 0.442 -0.031 L 0.442 -0.031 L 0.442 -0.031 L 0.452 -0.031 Q 0.515 -0.031 0.529 -0.041 L 0.53 -0.042 Q 0.538 -0.049 0.543 -0.064 L 0.612 -0.34 L 0.307 -0.34 L 0.23900000000000002 -0.066 L 0.23600000000000002 -0.049 Q 0.23600000000000002 -0.032 0.28200000000000003 -0.031 L 0.28200000000000003 -0.031 L 0.28200000000000003 -0.031 L 0.301 -0.031 Q 0.327 -0.031 0.329 -0.02 Q 0.329 0 0.309 0 L 0.245 -0.002 L 0.244 -0.002 L 0.182 -0.003 L 0.18 -0.003 L 0.054 0 L 0.053 0 Q 0.039 0 0.039 -0.011 Q 0.039 -0.029 0.054 -0.031 L 0.066 -0.031 Q 0.131 -0.031 0.14400000000000002 -0.045 Q 0.15 -0.052000000000000005 0.156 -0.073 Q 0.156 -0.074 0.157 -0.078 L 0.291 -0.615 Q 0.295 -0.631 0.295 -0.634 Q 0.295 -0.646 0.279 -0.649 L 0.278 -0.649 L 0.277 -0.649 Q 0.274 -0.649 0.268 -0.65 Q 0.251 -0.652 0.23 -0.652 Q 0.20400000000000001 -0.652 0.202 -0.663 Q 0.202 -0.683 0.221 -0.683 L 0.34900000000000003 -0.68 L 0.35000000000000003 -0.68 L 0.47700000000000004 -0.683 L 0.47800000000000004 -0.683 Q 0.492 -0.683 0.492 -0.672 Q 0.492 -0.655 0.47800000000000004 -0.653 L 0.47700000000000004 -0.653 L 0.47700000000000004 -0.653 L 0.47700000000000004 -0.653 L 0.47600000000000003 -0.652 L 0.458 -0.652 Q 0.397 -0.652 0.385 -0.635 L 0.384 -0.635 L 0.384 -0.634 Q 0.379 -0.627 0.374 -0.606 L 0.315 -0.371 L 0.62 -0.371 L 0.68 -0.615 Q 0.684 -0.632 0.684 -0.634 Q 0.684 -0.646 0.668 -0.649 Q 0.665 -0.649 0.657 -0.65 Q 0.64 -0.652 0.619 -0.652 Q 0.593 -0.652 0.591 -0.663 Q 0.591 -0.683 0.61 -0.683 L 0.738 -0.68 L 0.739 -0.68 L 0.866 -0.683 L 0.867 -0.683 Q 0.881 -0.683 0.881 -0.672 Q 0.881 -0.655 0.867 -0.653 L 0.866 -0.653 Q 0.861 -0.652 0.847 -0.652 Q 0.786 -0.652 0.774 -0.636 Q 0.769 -0.629 0.763 -0.606 Z"/></g></g><g transform="scale(19,19)"><g transform="translate(10.263157894736842,17.99878947368421)"><path fill="rgb(0,0,0)" stroke="none" paint-order="stroke fill markers" d=" M 0.16 -0.078 L 0.294 -0.615 Q 0.298 -0.631 0.298 -0.634 Q 0.298 -0.646 0.28200000000000003 -0.649 L 0.281 -0.649 L 0.28 -0.649 Q 0.277 -0.649 0.271 -0.65 Q 0.254 -0.652 0.233 -0.652 Q 0.20700000000000002 -0.652 0.20500000000000002 -0.663 Q 0.20500000000000002 -0.681 0.22 -0.683 L 0.221 -0.683 L 0.222 -0.683 L 0.234 -0.683 L 0.5700000000000001 -0.683 Q 0.685 -0.683 0.734 -0.615 Q 0.756 -0.583 0.756 -0.545 Q 0.756 -0.464 0.666 -0.404 Q 0.665 -0.404 0.664 -0.403 Q 0.611 -0.369 0.547 -0.357 Q 0.649 -0.34500000000000003 0.687 -0.277 Q 0.7020000000000001 -0.249 0.7020000000000001 -0.216 Q 0.7020000000000001 -0.14300000000000002 0.632 -0.079 L 0.631 -0.078 Q 0.545 0 0.426 0 L 0.069 0 Q 0.044 0 0.042 -0.011 Q 0.042 -0.029 0.057 -0.031 L 0.069 -0.031 Q 0.134 -0.031 0.147 -0.045 Q 0.153 -0.052000000000000005 0.159 -0.073 Q 0.159 -0.074 0.16 -0.078 M 0.311 -0.366 L 0.457 -0.366 Q 0.556 -0.366 0.62 -0.438 Q 0.665 -0.489 0.665 -0.549 Q 0.665 -0.622 0.605 -0.644 Q 0.584 -0.652 0.556 -0.652 L 0.427 -0.652 Q 0.391 -0.652 0.383 -0.642 L 0.383 -0.642 L 0.383 -0.641 L 0.382 -0.641 L 0.382 -0.64 Q 0.378 -0.634 0.373 -0.614 L 0.311 -0.366 M 0.266 -0.031 L 0.402 -0.031 Q 0.498 -0.031 0.561 -0.10300000000000001 Q 0.609 -0.159 0.609 -0.227 Q 0.609 -0.3 0.557 -0.33 Q 0.531 -0.34400000000000003 0.494 -0.34400000000000003 L 0.305 -0.34400000000000003 L 0.23600000000000002 -0.065 Q 0.231 -0.047 0.231 -0.042 Q 0.231 -0.034 0.24 -0.032 L 0.24 -0.032 L 0.24 -0.032 L 0.244 -0.032 Q 0.25 -0.031 0.266 -0.031 Z"/></g><g transform="translate(11.022157894736843,18.148789473684207) scale(0.7,0.7)"><path fill="rgb(0,0,0)" stroke="none" paint-order="stroke fill markers" d=" M 0.926 -0.606 L 0.793 -0.073 Q 0.788 -0.055 0.788 -0.049 Q 0.788 -0.032 0.835 -0.031 L 0.836 -0.031 L 0.853 -0.031 Q 0.879 -0.031 0.881 -0.02 Q 0.881 0 0.862 0 L 0.738 -0.003 L 0.737 -0.003 L 0.614 0 L 0.613 0 Q 0.598 0 0.598 -0.012 Q 0.598 -0.029 0.614 -0.031 L 0.626 -0.031 Q 0.6910000000000001 -0.031 0.704 -0.045 Q 0.71 -0.052000000000000005 0.716 -0.073 Q 0.716 -0.074 0.717 -0.078 L 0.86 -0.651 L 0.859 -0.651 L 0.455 -0.018000000000000002 Q 0.443 -0.001 0.433 0 Q 0.422 0 0.418 -0.023 L 0.332 -0.643 L 0.331 -0.643 L 0.195 -0.098 Q 0.191 -0.083 0.191 -0.075 Q 0.191 -0.038 0.23900000000000002 -0.032 Q 0.248 -0.031 0.259 -0.031 Q 0.277 -0.031 0.277 -0.02 Q 0.277 0 0.259 0 L 0.159 -0.003 L 0.156 -0.003 L 0.057 0 L 0.056 0 Q 0.042 0 0.042 -0.012 Q 0.042 -0.031 0.06 -0.031 Q 0.139 -0.034 0.16 -0.081 Q 0.164 -0.091 0.168 -0.106 L 0.295 -0.615 Q 0.299 -0.631 0.299 -0.634 Q 0.299 -0.646 0.28300000000000003 -0.649 L 0.28200000000000003 -0.649 L 0.28200000000000003 -0.649 Q 0.28 -0.65 0.277 -0.65 Q 0.253 -0.652 0.234 -0.652 Q 0.20800000000000002 -0.652 0.20600000000000002 -0.66 Q 0.20500000000000002 -0.662 0.20500000000000002 -0.664 Q 0.20500000000000002 -0.681 0.222 -0.683 L 0.222 -0.683 L 0.23500000000000001 -0.683 L 0.372 -0.683 Q 0.395 -0.683 0.399 -0.678 L 0.399 -0.677 Q 0.401 -0.673 0.403 -0.66 L 0.481 -0.094 L 0.846 -0.664 Q 0.857 -0.681 0.866 -0.682 Q 0.87 -0.683 0.885 -0.683 L 1.0170000000000001 -0.683 Q 1.042 -0.683 1.044 -0.672 Q 1.044 -0.655 1.03 -0.653 Q 1.025 -0.652 1.012 -0.652 Q 0.9490000000000001 -0.652 0.937 -0.636 L 0.936 -0.635 L 0.936 -0.634 Q 0.931 -0.627 0.926 -0.606 Z"/></g></g><g transform="scale(19,19)"><g transform="translate(15.578947368421053,6.051421052631579)"><path fill="rgb(0,0,0)" stroke="none" paint-order="stroke fill markers" d=" M 0.16 -0.078 L 0.294 -0.615 Q 0.298 -0.631 0.298 -0.634 Q 0.298 -0.646 0.28200000000000003 -0.649 L 0.281 -0.649 L 0.28 -0.649 Q 0.277 -0.649 0.271 -0.65 Q 0.254 -0.652 0.233 -0.652 Q 0.20700000000000002 -0.652 0.20500000000000002 -0.663 Q 0.20500000000000002 -0.681 0.22 -0.683 L 0.221 -0.683 L 0.222 -0.683 L 0.234 -0.683 L 0.5700000000000001 -0.683 Q 0.685 -0.683 0.734 -0.615 Q 0.756 -0.583 0.756 -0.545 Q 0.756 -0.464 0.666 -0.404 Q 0.665 -0.404 0.664 -0.403 Q 0.611 -0.369 0.547 -0.357 Q 0.649 -0.34500000000000003 0.687 -0.277 Q 0.7020000000000001 -0.249 0.7020000000000001 -0.216 Q 0.7020000000000001 -0.14300000000000002 0.632 -0.079 L 0.631 -0.078 Q 0.545 0 0.426 0 L 0.069 0 Q 0.044 0 0.042 -0.011 Q 0.042 -0.029 0.057 -0.031 L 0.069 -0.031 Q 0.134 -0.031 0.147 -0.045 Q 0.153 -0.052000000000000005 0.159 -0.073 Q 0.159 -0.074 0.16 -0.078 M 0.311 -0.366 L 0.457 -0.366 Q 0.556 -0.366 0.62 -0.438 Q 0.665 -0.489 0.665 -0.549 Q 0.665 -0.622 0.605 -0.644 Q 0.584 -0.652 0.556 -0.652 L 0.427 -0.652 Q 0.391 -0.652 0.383 -0.642 L 0.383 -0.642 L 0.383 -0.641 L 0.382 -0.641 L 0.382 -0.64 Q 0.378 -0.634 0.373 -0.614 L 0.311 -0.366 M 0.266 -0.031 L 0.402 -0.031 Q 0.498 -0.031 0.561 -0.10300000000000001 Q 0.609 -0.159 0.609 -0.227 Q 0.609 -0.3 0.557 -0.33 Q 0.531 -0.34400000000000003 0.494 -0.34400000000000003 L 0.305 -0.34400000000000003 L 0.23600000000000002 -0.065 Q 0.231 -0.047 0.231 -0.042 Q 0.231 -0.034 0.24 -0.032 L 0.24 -0.032 L 0.24 -0.032 L 0.244 -0.032 Q 0.25 -0.031 0.266 -0.031 Z"/></g><g transform="translate(16.33794736842105,6.201421052631579) scale(0.7,0.7)"><path fill="rgb(0,0,0)" stroke="none" paint-order="stroke fill markers" d=" M 0.427 -0.607 L 0.294 -0.076 Q 0.29 -0.061 0.29 -0.055 Q 0.29 -0.04 0.306 -0.036000000000000004 L 0.307 -0.036000000000000004 Q 0.314 -0.034 0.327 -0.033 Q 0.353 -0.031 0.391 -0.031 Q 0.422 -0.031 0.424 -0.025 Q 0.425 -0.023 0.425 -0.02 Q 0.421 -0.001 0.403 0 L 0.317 -0.002 L 0.316 -0.002 L 0.23500000000000001 -0.003 L 0.233 -0.003 L 0.15 -0.002 L 0.148 -0.002 L 0.067 0 L 0.066 0 Q 0.049 0 0.049 -0.012 Q 0.049 -0.027 0.06 -0.03 Q 0.067 -0.031 0.091 -0.031 Q 0.18 -0.031 0.197 -0.048 Q 0.203 -0.054 0.20700000000000002 -0.066 Q 0.20700000000000002 -0.068 0.20800000000000002 -0.07100000000000001 L 0.20800000000000002 -0.073 L 0.209 -0.073 L 0.209 -0.074 Q 0.209 -0.075 0.21 -0.079 L 0.34400000000000003 -0.613 Q 0.34800000000000003 -0.625 0.34800000000000003 -0.634 Q 0.34800000000000003 -0.643 0.339 -0.645 Q 0.333 -0.646 0.32 -0.646 L 0.281 -0.646 Q 0.178 -0.646 0.14 -0.623 Q 0.11900000000000001 -0.611 0.10300000000000001 -0.586 L 0.10200000000000001 -0.585 L 0.10200000000000001 -0.584 L 0.101 -0.584 Q 0.08 -0.551 0.053 -0.47300000000000003 Q 0.046 -0.454 0.041 -0.453 Q 0.039 -0.452 0.036000000000000004 -0.452 Q 0.024 -0.452 0.024 -0.463 Q 0.024 -0.46900000000000003 0.03 -0.481 L 0.09 -0.657 Q 0.096 -0.674 0.10400000000000001 -0.676 Q 0.109 -0.677 0.122 -0.677 L 0.677 -0.677 Q 0.7020000000000001 -0.677 0.704 -0.666 Q 0.704 -0.657 0.7020000000000001 -0.649 L 0.675 -0.47500000000000003 Q 0.672 -0.454 0.66 -0.452 Q 0.648 -0.452 0.648 -0.465 Q 0.648 -0.47200000000000003 0.651 -0.484 Q 0.659 -0.536 0.659 -0.5640000000000001 Q 0.659 -0.622 0.618 -0.637 Q 0.592 -0.646 0.513 -0.646 Q 0.459 -0.646 0.45 -0.644 Q 0.437 -0.641 0.431 -0.622 L 0.431 -0.621 Q 0.429 -0.616 0.427 -0.607 Z"/></g></g><g transform="scale(19,19)"><g transform="translate(10.052631578947368,10.683)"><path fill="rgb(0,0,0)" stroke="none" paint-order="stroke fill markers" d=" M 0.74 -0.436 L 0.74 -0.436 Q 0.74 -0.281 0.63 -0.149 Q 0.531 -0.029 0.398 0.009000000000000001 Q 0.35100000000000003 0.022 0.305 0.022 Q 0.18 0.022 0.108 -0.066 Q 0.049 -0.138 0.049 -0.245 Q 0.049 -0.395 0.156 -0.529 Q 0.255 -0.65 0.388 -0.6900000000000001 Q 0.437 -0.705 0.485 -0.705 Q 0.612 -0.705 0.684 -0.613 Q 0.74 -0.541 0.74 -0.436 M 0.311 -0.004 L 0.311 -0.004 Q 0.405 -0.004 0.492 -0.088 Q 0.51 -0.105 0.525 -0.124 Q 0.623 -0.246 0.646 -0.41500000000000004 Q 0.651 -0.448 0.651 -0.47500000000000003 Q 0.651 -0.612 0.559 -0.661 Q 0.558 -0.661 0.557 -0.662 Q 0.521 -0.68 0.47900000000000004 -0.68 Q 0.385 -0.68 0.297 -0.599 Q 0.261 -0.5670000000000001 0.233 -0.524 Q 0.157 -0.40900000000000003 0.14400000000000002 -0.249 Q 0.14200000000000002 -0.231 0.14200000000000002 -0.217 Q 0.14200000000000002 -0.089 0.219 -0.033 Q 0.259 -0.004 0.311 -0.004 Z"/></g></g><g transform="scale(19,19)"><g transform="translate(13.947368421052632,13.209315789473685)"><path fill="rgb(0,0,0)" stroke="none" paint-order="stroke fill markers" d=" M 0.74 -0.436 L 0.74 -0.436 Q 0.74 -0.281 0.63 -0.149 Q 0.531 -0.029 0.398 0.009000000000000001 Q 0.35100000000000003 0.022 0.305 0.022 Q 0.18 0.022 0.108 -0.066 Q 0.049 -0.138 0.049 -0.245 Q 0.049 -0.395 0.156 -0.529 Q 0.255 -0.65 0.388 -0.6900000000000001 Q 0.437 -0.705 0.485 -0.705 Q 0.612 -0.705 0.684 -0.613 Q 0.74 -0.541 0.74 -0.436 M 0.311 -0.004 L 0.311 -0.004 Q 0.405 -0.004 0.492 -0.088 Q 0.51 -0.105 0.525 -0.124 Q 0.623 -0.246 0.646 -0.41500000000000004 Q 0.651 -0.448 0.651 -0.47500000000000003 Q 0.651 -0.612 0.559 -0.661 Q 0.558 -0.661 0.557 -0.662 Q 0.521 -0.68 0.47900000000000004 -0.68 Q 0.385 -0.68 0.297 -0.599 Q 0.261 -0.5670000000000001 0.233 -0.524 Q 0.157 -0.40900000000000003 0.14400000000000002 -0.249 Q 0.14200000000000002 -0.231 0.14200000000000002 -0.217 Q 0.14200000000000002 -0.089 0.219 -0.033 Q 0.259 -0.004 0.311 -0.004 Z"/></g><g transform="translate(14.710368421052632,13.359315789473685) scale(0.7,0.7)"><path fill="rgb(0,0,0)" stroke="none" paint-order="stroke fill markers" d=" M 0.367 -0.318 Q 0.327 -0.218 0.242 -0.218 Q 0.149 -0.218 0.09 -0.294 L 0.09 -0.295 Q 0.042 -0.357 0.042 -0.441 Q 0.042 -0.525 0.091 -0.586 L 0.106 -0.603 Q 0.166 -0.666 0.253 -0.666 Q 0.353 -0.666 0.40800000000000003 -0.5690000000000001 Q 0.457 -0.482 0.457 -0.329 Q 0.457 -0.158 0.365 -0.055 Q 0.296 0.022 0.20600000000000002 0.022 Q 0.108 0.022 0.077 -0.039 Q 0.067 -0.06 0.067 -0.08600000000000001 Q 0.067 -0.126 0.10400000000000001 -0.133 Q 0.109 -0.134 0.113 -0.134 Q 0.145 -0.134 0.156 -0.106 Q 0.159 -0.098 0.159 -0.088 Q 0.159 -0.048 0.11900000000000001 -0.043000000000000003 Q 0.113 -0.042 0.107 -0.042 Q 0.136 -0.006 0.20500000000000002 -0.006 Q 0.276 -0.006 0.321 -0.077 Q 0.367 -0.15 0.367 -0.28600000000000003 L 0.367 -0.318 M 0.243 -0.241 Q 0.321 -0.241 0.352 -0.333 Q 0.365 -0.374 0.365 -0.421 Q 0.365 -0.519 0.34900000000000003 -0.562 Q 0.323 -0.632 0.266 -0.64 Q 0.259 -0.641 0.253 -0.641 Q 0.187 -0.641 0.153 -0.578 Q 0.132 -0.541 0.132 -0.452 L 0.132 -0.44 Q 0.132 -0.341 0.15 -0.304 Q 0.181 -0.241 0.243 -0.241 Z"/></g></g></g></g></svg>