<svg version="1.1" xmlns="http://www.w3.org/2000/svg" xmlns:xlink="http://www.w3.org/1999/xlink" width="685" height="545"><defs><clipPath id="TXJKvhSOkfZD"><path fill="none" stroke="none" d=" M 0 0 L 685 0 L 685 545 L 0 545 L 0 0 Z"/></clipPath></defs><g transform="scale(1,1)" clip-path="url(#TXJKvhSOkfZD)"><g><rect fill="rgb(255,255,255)" stroke="none" x="0" y="0" width="685" height="545" fill-opacity="1"/><path fill="none" stroke="rgb(0,0,0)" paint-order="fill stroke markers" d=" M 67.45498191554694 472.6762500648639 L 81.59689698306376 472.75523248767973 L 81.67587940588054 458.61331742016193 L 67.53396433836276 458.53433499734706 L 67.45498191554694 472.6762500648639" stroke-opacity="1" stroke-linecap="round" stroke-linejoin="round" stroke-miterlimit="10"/><path fill="none" stroke="rgb(0,0,0)" paint-order="fill stroke markers" d=" M 369.42996947376986 443.22388558302754 L 377.72957198958875 453.7887612604498 L 388.29444766701226 445.4891587446311 L 379.9948451511921 434.92428306720865 L 369.42996947376986 443.22388558302754" stroke-opacity="1" stroke-linecap="round" stroke-linejoin="round" stroke-miterlimit="10"/><path fill="none" stroke="rgb(0,0,0)" paint-order="fill stroke markers" d=" M 69.74999999999943 61.75000000000007 L 67.45498191554694 472.6762500648639" stroke-opacity="1" stroke-linecap="round" stroke-linejoin="round" stroke-miterlimit="10"/><path fill="none" stroke="rgb(0,0,0)" paint-order="fill stroke markers" d=" M 67.45498191554694 472.6762500648639 L 393.99999999998613 474.499999999976" stroke-opacity="1" stroke-linecap="round" stroke-linejoin="round" stroke-miterlimit="10"/><path fill="none" stroke="rgb(0,0,0)" paint-order="fill stroke markers" d=" M 393.99999999998613 474.499999999976 L 69.74999999999943 61.75000000000007" stroke-opacity="1" stroke-linecap="round" stroke-linejoin="round" stroke-miterlimit="10"/><path fill="none" stroke="rgb(0,0,0)" paint-order="fill stroke markers" d=" M 605.8740377066686 475.6833139111367 L 67.45498191554694 472.6762500648639" stroke-opacity="1" stroke-linecap="round" stroke-linejoin="round" stroke-miterlimit="10"/><path fill="none" stroke="rgb(125,125,255)" paint-order="fill stroke markers" d=" M 67.45498191554694 472.6762500648639 L 369.42996947376986 443.22388558302754" stroke-opacity="1" stroke-linecap="round" stroke-linejoin="round" stroke-miterlimit="10"/><path fill="none" stroke="rgb(125,125,255)" paint-order="fill stroke markers" d=" M 67.45498191554694 472.6762500648639 L 231.87499999999278 268.12499999998806" stroke-opacity="1" stroke-linecap="round" stroke-linejoin="round" stroke-miterlimit="10"/><path fill="none" stroke="rgb(255,0,51)" paint-order="fill stroke markers" d=" M 67.45498191554694 472.6762500648639 L 337.48797565449826 326.73705228869125" stroke-opacity="1" stroke-linecap="round" stroke-linejoin="round" stroke-miterlimit="10"/><path fill="none" stroke="rgb(0,0,0)" paint-order="fill stroke markers" d=" M 337.48797565449826 326.73705228869125 L 369.42996947376986 443.22388558302754" stroke-opacity="1" stroke-linecap="round" stroke-linejoin="round" stroke-miterlimit="10"/><path fill="none" stroke="rgb(0,0,0)" paint-order="fill stroke markers" d=" M 69.1019136023279 177.79079066624575 L 605.8740377066686 475.6833139111367" stroke-opacity="1" stroke-linecap="round" stroke-linejoin="round" stroke-miterlimit="10"/><path fill="none" stroke="rgb(0,0,0)" paint-order="fill stroke markers" d=" M 369.42996947376986 443.22388558302754 L 443.1009513090038 385.34910457739437" stroke-opacity="1" stroke-linecap="round" stroke-linejoin="round" stroke-miterlimit="10"/><path fill="rgb(0,0,0)" stroke="none" paint-order="stroke fill markers" d=" M 396.99999999998613 474.499999999976 C 396.99999999998613 476.1568542494684 395.6568542494785 477.499999999976 393.99999999998613 477.499999999976 C 392.34314575049376 477.499999999976 390.99999999998613 476.1568542494684 390.99999999998613 474.499999999976 C 390.99999999998613 472.84314575048364 392.34314575049376 471.499999999976 393.99999999998613 471.499999999976 C 395.6568542494785 471.499999999976 396.99999999998613 472.84314575048364 396.99999999998613 474.499999999976 Z" fill-opacity="1"/><path fill="rgb(0,0,0)" stroke="none" paint-order="stroke fill markers" d=" M 72.74999999999943 61.75000000000007 C 72.74999999999943 63.406854249492454 71.40685424949181 64.75000000000007 69.74999999999943 64.75000000000007 C 68.09314575050705 64.75000000000007 66.74999999999943 63.406854249492454 66.74999999999943 61.75000000000007 C 66.74999999999943 60.09314575050769 68.09314575050705 58.75000000000007 69.74999999999943 58.75000000000007 C 71.40685424949181 58.75000000000007 72.74999999999943 60.09314575050769 72.74999999999943 61.75000000000007 Z" fill-opacity="1"/><path fill="rgb(0,0,0)" stroke="none" paint-order="stroke fill markers" d=" M 70.45498191554694 472.6762500648639 C 70.45498191554694 474.33310431435626 69.11183616503932 475.6762500648639 67.45498191554694 475.6762500648639 C 65.79812766605455 475.6762500648639 64.45498191554694 474.33310431435626 64.45498191554694 472.6762500648639 C 64.45498191554694 471.0193958153715 65.79812766605455 469.6762500648639 67.45498191554694 469.6762500648639 C 69.11183616503932 469.6762500648639 70.45498191554694 471.0193958153715 70.45498191554694 472.6762500648639 Z" fill-opacity="1"/><path fill="rgb(0,0,0)" stroke="none" paint-order="stroke fill markers" d=" M 234.87499999999278 268.12499999998806 C 234.87499999999278 269.78185424948043 233.53185424948515 271.12499999998806 231.87499999999278 271.12499999998806 C 230.2181457505004 271.12499999998806 228.87499999999278 269.78185424948043 228.87499999999278 268.12499999998806 C 228.87499999999278 266.4681457504957 230.2181457505004 265.12499999998806 231.87499999999278 265.12499999998806 C 233.53185424948515 265.12499999998806 234.87499999999278 266.4681457504957 234.87499999999278 268.12499999998806 Z" fill-opacity="1"/><path fill="rgb(0,0,0)" stroke="none" paint-order="stroke fill markers" d=" M 72.1019136023279 177.79079066624575 C 72.1019136023279 179.44764491573812 70.75876785182028 180.79079066624575 69.1019136023279 180.79079066624575 C 67.44505935283551 180.79079066624575 66.1019136023279 179.44764491573812 66.1019136023279 177.79079066624575 C 66.1019136023279 176.1339364167534 67.44505935283551 174.79079066624575 69.1019136023279 174.79079066624575 C 70.75876785182028 174.79079066624575 72.1019136023279 176.1339364167534 72.1019136023279 177.79079066624575 Z" fill-opacity="1"/><path fill="rgb(0,0,0)" stroke="none" paint-order="stroke fill markers" d=" M 608.8740377066686 475.6833139111367 C 608.8740377066686 477.34016816062905 607.530891956161 478.6833139111367 605.8740377066686 478.6833139111367 C 604.2171834571761 478.6833139111367 602.8740377066686 477.34016816062905 602.8740377066686 475.6833139111367 C 602.8740377066686 474.0264596616443 604.2171834571761 472.6833139111367 605.8740377066686 472.6833139111367 C 607.530891956161 472.6833139111367 608.8740377066686 474.0264596616443 608.8740377066686 475.6833139111367 Z" fill-opacity="1"/><path fill="rgb(0,0,0)" stroke="none" paint-order="stroke fill markers" d=" M 340.48797565449826 326.73705228869125 C 340.48797565449826 328.3939065381836 339.1448299039906 329.73705228869125 337.48797565449826 329.73705228869125 C 335.8311214050059 329.73705228869125 334.48797565449826 328.3939065381836 334.48797565449826 326.73705228869125 C 334.48797565449826 325.0801980391989 335.8311214050059 323.73705228869125 337.48797565449826 323.73705228869125 C 339.1448299039906 323.73705228869125 340.48797565449826 325.0801980391989 340.48797565449826 326.73705228869125 Z" fill-opacity="1"/><path fill="rgb(0,0,0)" stroke="none" paint-order="stroke fill markers" d=" M 446.1009513090038 385.34910457739437 C 446.1009513090038 387.00595882688674 444.75780555849616 388.34910457739437 443.1009513090038 388.34910457739437 C 441.4440970595114 388.34910457739437 440.1009513090038 387.00595882688674 440.1009513090038 385.34910457739437 C 440.1009513090038 383.692250327902 441.4440970595114 382.34910457739437 443.1009513090038 382.34910457739437 C 444.75780555849616 382.34910457739437 446.1009513090038 383.692250327902 446.1009513090038 385.34910457739437 Z" fill-opacity="1"/><path fill="rgb(0,0,0)" stroke="none" paint-order="stroke fill markers" d=" M 372.42996947376986 443.22388558302754 C 372.42996947376986 444.8807398325199 371.0868237232622 446.22388558302754 369.42996947376986 446.22388558302754 C 367.7731152242775 446.22388558302754 366.42996947376986 444.8807398325199 366.42996947376986 443.22388558302754 C 366.42996947376986 441.56703133353517 367.7731152242775 440.22388558302754 369.42996947376986 440.22388558302754 C 371.0868237232622 440.22388558302754 372.42996947376986 441.56703133353517 372.42996947376986 443.22388558302754 Z" fill-opacity="1"/><g transform="scale(17,17)"><g transform="translate(2.9411764705882355,3.1535882352941176)"><path fill="rgb(0,0,0)" stroke="none" paint-order="stroke fill markers" d=" M 0.16 -0.078 L 0.294 -0.615 Q 0.298 -0.631 0.298 -0.634 Q 0.298 -0.646 0.28200000000000003 -0.649 L 0.281 -0.649 L 0.28 -0.649 Q 0.277 -0.649 0.271 -0.65 Q 0.254 -0.652 0.233 -0.652 Q 0.20700000000000002 -0.652 0.20500000000000002 -0.663 Q 0.20500000000000002 -0.681 0.22 -0.683 L 0.221 -0.683 L 0.222 -0.683 L 0.234 -0.683 L 0.5700000000000001 -0.683 Q 0.685 -0.683 0.734 -0.615 Q 0.756 -0.583 0.756 -0.545 Q 0.756 -0.464 0.666 -0.404 Q 0.665 -0.404 0.664 -0.403 Q 0.611 -0.369 0.547 -0.357 Q 0.649 -0.34500000000000003 0.687 -0.277 Q 0.7020000000000001 -0.249 0.7020000000000001 -0.216 Q 0.7020000000000001 -0.14300000000000002 0.632 -0.079 L 0.631 -0.078 Q 0.545 0 0.426 0 L 0.069 0 Q 0.044 0 0.042 -0.011 Q 0.042 -0.029 0.057 -0.031 L 0.069 -0.031 Q 0.134 -0.031 0.147 -0.045 Q 0.153 -0.052000000000000005 0.159 -0.073 Q 0.159 -0.074 0.16 -0.078 M 0.311 -0.366 L 0.457 -0.366 Q 0.556 -0.366 0.62 -0.438 Q 0.665 -0.489 0.665 -0.549 Q 0.665 -0.622 0.605 -0.644 Q 0.584 -0.652 0.556 -0.652 L 0.427 -0.652 Q 0.391 -0.652 0.383 -0.642 L 0.383 -0.642 L 0.383 -0.641 L 0.382 -0.641 L 0.382 -0.64 Q 0.378 -0.634 0.373 -0.614 L 0.311 -0.366 M 0.266 -0.031 L 0.402 -0.031 Q 0.498 -0.031 0.561 -0.10300000000000001 Q 0.609 -0.159 0.609 -0.227 Q 0.609 -0.3 0.557 -0.33 Q 0.531 -0.34400000000000003 0.494 -0.34400000000000003 L 0.305 -0.34400000000000003 L 0.23600000000000002 -0.065 Q 0.231 -0.047 0.231 -0.042 Q 0.231 -0.034 0.24 -0.032 L 0.24 -0.032 L 0.24 -0.032 L 0.244 -0.032 Q 0.25 -0.031 0.266 -0.031 Z"/></g></g><g transform="scale(17,17)"><g transform="translate(2.7058823529411766,28.918294117647058)"><path fill="rgb(0,0,0)" stroke="none" paint-order="stroke fill markers" d=" M 0.76 -0.6950000000000001 L 0.6970000000000001 -0.44 Q 0.6920000000000001 -0.422 0.687 -0.421 L 0.686 -0.42 L 0.679 -0.42 Q 0.664 -0.42 0.664 -0.43 L 0.667 -0.47900000000000004 L 0.667 -0.481 Q 0.667 -0.605 0.589 -0.652 L 0.588 -0.653 Q 0.553 -0.674 0.506 -0.674 Q 0.4 -0.674 0.305 -0.595 Q 0.281 -0.5760000000000001 0.262 -0.553 Q 0.167 -0.442 0.145 -0.271 Q 0.14100000000000001 -0.24 0.14100000000000001 -0.217 Q 0.14100000000000001 -0.077 0.247 -0.028 Q 0.28800000000000003 -0.009000000000000001 0.337 -0.009000000000000001 Q 0.431 -0.009000000000000001 0.521 -0.082 Q 0.591 -0.14100000000000001 0.622 -0.24 Q 0.624 -0.25 0.635 -0.25 Q 0.647 -0.25 0.647 -0.24 Q 0.647 -0.222 0.624 -0.176 Q 0.593 -0.113 0.537 -0.064 Q 0.438 0.022 0.321 0.022 Q 0.193 0.022 0.116 -0.066 Q 0.05 -0.14100000000000001 0.05 -0.252 Q 0.05 -0.401 0.159 -0.531 Q 0.26 -0.652 0.398 -0.6910000000000001 Q 0.449 -0.705 0.498 -0.705 Q 0.607 -0.705 0.664 -0.616 L 0.734 -0.6930000000000001 Q 0.746 -0.705 0.749 -0.705 Q 0.76 -0.705 0.76 -0.6950000000000001 Z"/></g></g><g transform="scale(17,17)"><g transform="translate(23.176470588235293,28.977117647058822)"><path fill="rgb(0,0,0)" stroke="none" paint-order="stroke fill markers" d=" M 0.179 -0.115 L 0.527 -0.6990000000000001 Q 0.537 -0.715 0.553 -0.716 Q 0.5680000000000001 -0.716 0.5700000000000001 -0.706 Q 0.5710000000000001 -0.7030000000000001 0.5720000000000001 -0.6920000000000001 L 0.633 -0.067 Q 0.636 -0.042 0.645 -0.037 L 0.646 -0.037 L 0.646 -0.037 L 0.646 -0.037 L 0.646 -0.037 L 0.646 -0.036000000000000004 Q 0.658 -0.031 0.6980000000000001 -0.031 Q 0.72 -0.031 0.721 -0.02 Q 0.721 0 0.7030000000000001 0 L 0.591 -0.003 L 0.59 -0.003 L 0.466 0 L 0.465 0 Q 0.451 0 0.451 -0.011 Q 0.459 -0.03 0.47500000000000003 -0.031 Q 0.547 -0.031 0.547 -0.064 Q 0.547 -0.063 0.531 -0.231 L 0.28 -0.231 L 0.20400000000000001 -0.10300000000000001 Q 0.19 -0.078 0.19 -0.066 Q 0.19 -0.035 0.23700000000000002 -0.031 Q 0.253 -0.031 0.253 -0.019 Q 0.253 0 0.234 0 L 0.138 -0.003 L 0.134 -0.003 L 0.05 0 L 0.048 0 Q 0.035 0 0.035 -0.011 Q 0.035 -0.029 0.05 -0.03 L 0.05 -0.031 L 0.056 -0.031 Q 0.11900000000000001 -0.035 0.159 -0.085 Q 0.169 -0.098 0.179 -0.115 M 0.299 -0.262 L 0.528 -0.262 L 0.496 -0.592 L 0.299 -0.262 Z"/></g></g><g transform="scale(17,17)"><g transform="translate(2.764705882352941,11.56535294117647)"><path fill="rgb(0,0,0)" stroke="none" paint-order="stroke fill markers" d=" M 0.303 -0.316 L 0.303 -0.316 L 0.241 -0.066 L 0.23800000000000002 -0.049 Q 0.23800000000000002 -0.032 0.28400000000000003 -0.031 L 0.28400000000000003 -0.031 L 0.28400000000000003 -0.031 L 0.303 -0.031 Q 0.329 -0.031 0.331 -0.02 Q 0.331 0 0.311 0 L 0.247 -0.002 L 0.246 -0.002 L 0.184 -0.003 L 0.182 -0.003 L 0.056 0 L 0.055 0 Q 0.04 0 0.04 -0.012 Q 0.04 -0.029 0.056 -0.031 L 0.068 -0.031 Q 0.133 -0.031 0.146 -0.045 Q 0.152 -0.052000000000000005 0.158 -0.073 Q 0.158 -0.074 0.159 -0.078 L 0.293 -0.615 Q 0.297 -0.631 0.297 -0.634 Q 0.297 -0.646 0.281 -0.649 L 0.28 -0.649 L 0.28 -0.649 Q 0.278 -0.65 0.275 -0.65 Q 0.251 -0.652 0.232 -0.652 Q 0.20600000000000002 -0.652 0.20400000000000001 -0.66 Q 0.203 -0.662 0.203 -0.664 Q 0.203 -0.681 0.22 -0.683 L 0.22 -0.683 L 0.233 -0.683 L 0.557 -0.683 Q 0.678 -0.683 0.73 -0.609 Q 0.754 -0.5740000000000001 0.754 -0.532 Q 0.754 -0.451 0.671 -0.385 Q 0.583 -0.316 0.47300000000000003 -0.316 L 0.303 -0.316 M 0.375 -0.614 L 0.307 -0.342 L 0.448 -0.342 Q 0.543 -0.342 0.602 -0.395 Q 0.643 -0.433 0.658 -0.522 L 0.658 -0.523 Q 0.661 -0.542 0.661 -0.556 Q 0.661 -0.652 0.525 -0.652 L 0.429 -0.652 Q 0.393 -0.652 0.385 -0.642 L 0.385 -0.642 L 0.385 -0.641 L 0.384 -0.641 L 0.384 -0.64 Q 0.38 -0.634 0.375 -0.614 Z"/></g></g><g transform="scale(17,17)"><g transform="translate(20.058823529411764,18.977117647058822)"><path fill="rgb(0,0,0)" stroke="none" paint-order="stroke fill markers" d=" M 0.926 -0.606 L 0.793 -0.073 Q 0.788 -0.055 0.788 -0.049 Q 0.788 -0.032 0.835 -0.031 L 0.836 -0.031 L 0.853 -0.031 Q 0.879 -0.031 0.881 -0.02 Q 0.881 0 0.862 0 L 0.738 -0.003 L 0.737 -0.003 L 0.614 0 L 0.613 0 Q 0.598 0 0.598 -0.012 Q 0.598 -0.029 0.614 -0.031 L 0.626 -0.031 Q 0.6910000000000001 -0.031 0.704 -0.045 Q 0.71 -0.052000000000000005 0.716 -0.073 Q 0.716 -0.074 0.717 -0.078 L 0.86 -0.651 L 0.859 -0.651 L 0.455 -0.018000000000000002 Q 0.443 -0.001 0.433 0 Q 0.422 0 0.418 -0.023 L 0.332 -0.643 L 0.331 -0.643 L 0.195 -0.098 Q 0.191 -0.083 0.191 -0.075 Q 0.191 -0.038 0.23900000000000002 -0.032 Q 0.248 -0.031 0.259 -0.031 Q 0.277 -0.031 0.277 -0.02 Q 0.277 0 0.259 0 L 0.159 -0.003 L 0.156 -0.003 L 0.057 0 L 0.056 0 Q 0.042 0 0.042 -0.012 Q 0.042 -0.031 0.06 -0.031 Q 0.139 -0.034 0.16 -0.081 Q 0.164 -0.091 0.168 -0.106 L 0.295 -0.615 Q 0.299 -0.631 0.299 -0.634 Q 0.299 -0.646 0.28300000000000003 -0.649 L 0.28200000000000003 -0.649 L 0.28200000000000003 -0.649 Q 0.28 -0.65 0.277 -0.65 Q 0.253 -0.652 0.234 -0.652 Q 0.20800000000000002 -0.652 0.20600000000000002 -0.66 Q 0.20500000000000002 -0.662 0.20500000000000002 -0.664 Q 0.20500000000000002 -0.681 0.222 -0.683 L 0.222 -0.683 L 0.23500000000000001 -0.683 L 0.372 -0.683 Q 0.395 -0.683 0.399 -0.678 L 0.399 -0.677 Q 0.401 -0.673 0.403 -0.66 L 0.481 -0.094 L 0.846 -0.664 Q 0.857 -0.681 0.866 -0.682 Q 0.87 -0.683 0.885 -0.683 L 1.0170000000000001 -0.683 Q 1.042 -0.683 1.044 -0.672 Q 1.044 -0.655 1.03 -0.653 Q 1.025 -0.652 1.012 -0.652 Q 0.9490000000000001 -0.652 0.937 -0.636 L 0.936 -0.635 L 0.936 -0.634 Q 0.931 -0.627 0.926 -0.606 Z"/></g></g><g transform="scale(17,17)"><g transform="translate(13.882352941176471,15.388882352941176)"><path fill="rgb(0,0,0)" stroke="none" paint-order="stroke fill markers" d=" M 0.159 -0.078 L 0.159 -0.078 L 0.293 -0.615 Q 0.297 -0.631 0.297 -0.634 Q 0.297 -0.646 0.281 -0.649 L 0.28 -0.649 L 0.28 -0.649 Q 0.278 -0.65 0.275 -0.65 Q 0.251 -0.652 0.232 -0.652 Q 0.20600000000000002 -0.652 0.20400000000000001 -0.66 Q 0.203 -0.662 0.203 -0.664 Q 0.203 -0.681 0.22 -0.683 L 0.22 -0.683 L 0.233 -0.683 L 0.5690000000000001 -0.683 Q 0.6990000000000001 -0.683 0.763 -0.582 Q 0.804 -0.518 0.804 -0.43 Q 0.804 -0.28500000000000003 0.7030000000000001 -0.159 Q 0.607 -0.042 0.47700000000000004 -0.01 Q 0.438 0 0.399 0 L 0.068 0 Q 0.043000000000000003 0 0.041 -0.008 Q 0.04 -0.009000000000000001 0.04 -0.012 Q 0.04 -0.029 0.056 -0.031 L 0.068 -0.031 Q 0.133 -0.031 0.146 -0.045 Q 0.152 -0.052000000000000005 0.158 -0.073 Q 0.158 -0.074 0.159 -0.078 M 0.375 -0.614 L 0.23800000000000002 -0.065 Q 0.233 -0.047 0.233 -0.042 Q 0.233 -0.034 0.242 -0.032 L 0.242 -0.032 L 0.242 -0.032 L 0.246 -0.032 Q 0.252 -0.031 0.268 -0.031 L 0.381 -0.031 Q 0.505 -0.031 0.595 -0.124 Q 0.604 -0.134 0.612 -0.14400000000000002 Q 0.6920000000000001 -0.248 0.713 -0.41600000000000004 Q 0.717 -0.447 0.717 -0.467 Q 0.717 -0.601 0.612 -0.639 Q 0.578 -0.652 0.536 -0.652 L 0.429 -0.652 Q 0.393 -0.652 0.385 -0.642 L 0.385 -0.642 L 0.385 -0.641 L 0.384 -0.641 L 0.384 -0.64 Q 0.38 -0.634 0.375 -0.614 Z"/></g></g><g transform="scale(17,17)"><g transform="translate(35.94117647058823,28.683)"><path fill="rgb(0,0,0)" stroke="none" paint-order="stroke fill markers" d=" M 0.438 -0.006 L 0.438 -0.006 Q 0.448 0.073 0.47500000000000003 0.089 Q 0.488 0.097 0.509 0.097 Q 0.558 0.097 0.596 0.054 Q 0.616 0.032 0.626 0.001 Q 0.63 -0.01 0.638 -0.01 Q 0.649 -0.01 0.649 0 Q 0.649 0.019 0.625 0.07200000000000001 Q 0.5690000000000001 0.194 0.482 0.194 Q 0.399 0.194 0.399 0.084 Q 0.399 0.069 0.403 0.007 Q 0.35000000000000003 0.022 0.305 0.022 Q 0.18 0.022 0.108 -0.066 Q 0.049 -0.138 0.049 -0.245 Q 0.049 -0.395 0.156 -0.529 Q 0.255 -0.65 0.388 -0.6900000000000001 Q 0.437 -0.705 0.485 -0.705 Q 0.612 -0.705 0.684 -0.613 Q 0.74 -0.541 0.74 -0.436 Q 0.74 -0.28200000000000003 0.63 -0.149 Q 0.546 -0.047 0.438 -0.006 M 0.249 -0.014 L 0.243 -0.037 L 0.243 -0.046 Q 0.243 -0.095 0.28700000000000003 -0.128 Q 0.314 -0.148 0.34500000000000003 -0.148 Q 0.41600000000000004 -0.148 0.432 -0.049 Q 0.432 -0.046 0.433 -0.04 Q 0.5660000000000001 -0.114 0.624 -0.305 Q 0.652 -0.394 0.652 -0.468 Q 0.652 -0.598 0.5720000000000001 -0.652 L 0.5710000000000001 -0.653 L 0.5710000000000001 -0.653 Q 0.531 -0.68 0.47900000000000004 -0.68 Q 0.384 -0.68 0.295 -0.596 Q 0.265 -0.5680000000000001 0.23900000000000002 -0.532 Q 0.161 -0.42 0.14100000000000001 -0.266 Q 0.137 -0.23600000000000002 0.137 -0.213 Q 0.137 -0.08 0.223 -0.027 Q 0.23500000000000001 -0.02 0.249 -0.014 M 0.311 -0.003 L 0.311 -0.003 Q 0.352 -0.003 0.395 -0.021 Q 0.405 -0.034 0.406 -0.041 Q 0.406 -0.117 0.36 -0.125 L 0.359 -0.125 Q 0.353 -0.126 0.34500000000000003 -0.126 Q 0.304 -0.126 0.278 -0.088 Q 0.265 -0.067 0.265 -0.046 Q 0.265 -0.003 0.311 -0.003 Z"/></g></g><g transform="scale(17,17)"><g transform="translate(26.058823529411764,22.035941176470587)"><path fill="rgb(0,0,0)" stroke="none" paint-order="stroke fill markers" d=" M 0.375 -0.614 L 0.31 -0.353 L 0.422 -0.353 Q 0.533 -0.353 0.591 -0.41100000000000003 Q 0.635 -0.455 0.645 -0.533 L 0.645 -0.534 Q 0.646 -0.545 0.646 -0.553 Q 0.646 -0.642 0.52 -0.651 L 0.518 -0.651 Q 0.499 -0.652 0.464 -0.652 Q 0.41200000000000003 -0.652 0.403 -0.651 Q 0.385 -0.648 0.379 -0.629 L 0.379 -0.629 Q 0.378 -0.624 0.375 -0.614 M 0.519 -0.34 L 0.519 -0.34 Q 0.605 -0.308 0.612 -0.23500000000000001 Q 0.613 -0.229 0.613 -0.222 Q 0.613 -0.203 0.609 -0.17500000000000002 Q 0.599 -0.095 0.599 -0.061 Q 0.599 -0.009000000000000001 0.625 -0.002 L 0.626 -0.002 Q 0.632 0 0.639 0 Q 0.682 0 0.712 -0.052000000000000005 Q 0.723 -0.069 0.73 -0.091 Q 0.734 -0.105 0.743 -0.105 Q 0.755 -0.105 0.755 -0.093 Q 0.755 -0.073 0.731 -0.037 Q 0.712 -0.008 0.687 0.008 Q 0.663 0.022 0.635 0.022 Q 0.552 0.022 0.519 -0.027 Q 0.502 -0.051000000000000004 0.502 -0.08600000000000001 Q 0.502 -0.107 0.518 -0.171 Q 0.532 -0.225 0.532 -0.24 Q 0.532 -0.302 0.47600000000000003 -0.322 L 0.47600000000000003 -0.323 Q 0.453 -0.331 0.423 -0.331 L 0.304 -0.331 L 0.23800000000000002 -0.066 L 0.23500000000000001 -0.049 Q 0.23500000000000001 -0.032 0.281 -0.031 L 0.281 -0.031 L 0.281 -0.031 L 0.3 -0.031 Q 0.326 -0.031 0.328 -0.02 Q 0.328 0 0.308 0 L 0.182 -0.003 L 0.181 -0.003 L 0.056 0 L 0.055 0 Q 0.041 0 0.041 -0.011 Q 0.041 -0.029 0.056 -0.031 L 0.068 -0.031 Q 0.133 -0.031 0.146 -0.045 Q 0.152 -0.052000000000000005 0.158 -0.073 Q 0.158 -0.074 0.159 -0.078 L 0.293 -0.615 Q 0.297 -0.631 0.297 -0.634 Q 0.297 -0.646 0.281 -0.649 L 0.28 -0.649 L 0.279 -0.649 Q 0.276 -0.649 0.27 -0.65 Q 0.253 -0.652 0.232 -0.652 Q 0.20600000000000002 -0.652 0.20400000000000001 -0.663 Q 0.20400000000000001 -0.681 0.219 -0.683 L 0.233 -0.683 L 0.518 -0.683 Q 0.643 -0.683 0.704 -0.617 Q 0.739 -0.581 0.739 -0.533 Q 0.739 -0.446 0.632 -0.384 Q 0.58 -0.353 0.519 -0.34 Z"/></g></g><g transform="scale(17,17)"><g transform="translate(21.235294117647058,27.388882352941177)"><path fill="rgb(0,0,0)" stroke="none" paint-order="stroke fill markers" d=" M 0.303 -0.325 L 0.241 -0.076 Q 0.23700000000000002 -0.061 0.23700000000000002 -0.053 Q 0.23700000000000002 -0.039 0.25 -0.036000000000000004 Q 0.257 -0.034 0.269 -0.033 Q 0.294 -0.031 0.321 -0.031 Q 0.34600000000000003 -0.031 0.34900000000000003 -0.03 L 0.354 -0.023 Q 0.355 -0.021 0.355 -0.019 Q 0.355 0 0.334 0 L 0.186 -0.003 L 0.185 -0.003 L 0.054 0 L 0.053 0 Q 0.038 0 0.038 -0.012 Q 0.038 -0.029 0.054 -0.031 L 0.066 -0.031 Q 0.131 -0.031 0.14400000000000002 -0.045 Q 0.15 -0.052000000000000005 0.156 -0.073 Q 0.156 -0.074 0.157 -0.078 L 0.289 -0.607 Q 0.294 -0.625 0.294 -0.631 Q 0.294 -0.648 0.248 -0.649 L 0.247 -0.649 L 0.229 -0.649 Q 0.203 -0.649 0.201 -0.66 Q 0.201 -0.678 0.217 -0.68 L 0.231 -0.68 L 0.721 -0.68 Q 0.745 -0.68 0.747 -0.673 L 0.748 -0.673 Q 0.75 -0.667 0.748 -0.653 L 0.728 -0.48 Q 0.721 -0.457 0.714 -0.455 Q 0.7020000000000001 -0.455 0.7020000000000001 -0.467 Q 0.7020000000000001 -0.47200000000000003 0.704 -0.485 Q 0.707 -0.512 0.707 -0.539 Q 0.707 -0.606 0.673 -0.628 L 0.672 -0.629 Q 0.64 -0.649 0.561 -0.649 L 0.429 -0.649 Q 0.392 -0.649 0.385 -0.638 L 0.384 -0.638 L 0.384 -0.637 Q 0.381 -0.633 0.379 -0.625 L 0.379 -0.624 L 0.378 -0.623 Q 0.377 -0.619 0.375 -0.61 L 0.311 -0.356 L 0.402 -0.356 Q 0.47500000000000003 -0.356 0.5 -0.383 L 0.501 -0.384 Q 0.518 -0.403 0.531 -0.452 Q 0.536 -0.47100000000000003 0.546 -0.47300000000000003 Q 0.557 -0.47300000000000003 0.558 -0.462 Q 0.558 -0.457 0.555 -0.446 L 0.5 -0.229 Q 0.49 -0.209 0.485 -0.20800000000000002 Q 0.47300000000000003 -0.20800000000000002 0.47300000000000003 -0.22 Q 0.47300000000000003 -0.224 0.47600000000000003 -0.231 Q 0.483 -0.261 0.483 -0.28 Q 0.483 -0.309 0.461 -0.318 L 0.461 -0.318 Q 0.442 -0.325 0.4 -0.325 L 0.303 -0.325 Z"/></g></g></g></g></svg>